<?xml version="1.0" encoding="utf-8"?>
<!-- Generator: Adobe Illustrator 27.0.0, SVG Export Plug-In . SVG Version: 6.00 Build 0)  -->
<svg version="1.1" id="Layer_1" xmlns="http://www.w3.org/2000/svg" xmlns:xlink="http://www.w3.org/1999/xlink" x="0px" y="0px"
	 viewBox="0 0 484.62 669.23" style="enable-background:new 0 0 484.62 669.23;" xml:space="preserve">
<style type="text/css">
	.st0{fill:#010101;}
	.st1{fill:#FFFFFF;}
	.st2{fill:#D22026;}
	.st3{fill:#ED2224;}
	.st4{fill:#4683C4;}
	.st5{fill:#2578BE;}
	.st6{fill:#FBC09C;}
	.st7{fill:#E4906C;}
	.st8{fill:#D07051;}
	.st9{fill:#B71F25;}
	.st10{fill:url(#SVGID_1_);}
	.st11{fill:url(#SVGID_00000023270086465196306070000004482388426334375589_);}
	.st12{fill:#F9AC8A;}
	.st13{fill:url(#SVGID_00000039123998790040799710000017727590923817454988_);}
	.st14{fill:url(#SVGID_00000165219983432533092650000018365775313209087395_);}
	.st15{fill:url(#SVGID_00000010275944048077021830000005473613740696059026_);}
	.st16{fill:url(#SVGID_00000034083774018004999030000004396504298140591506_);}
	.st17{fill:url(#SVGID_00000031907970463352810750000013413812303784316547_);}
	.st18{fill:#FAB391;}
	.st19{fill:#FCD2C3;}
	.st20{fill:url(#SVGID_00000066477116920624216270000008169508001411919502_);}
	.st21{fill:url(#SVGID_00000104701615581414147080000006864926867871050114_);}
	.st22{fill:#FCCFB7;}
	.st23{fill:url(#SVGID_00000127006759977045843410000001684252986222525572_);}
	.st24{fill:#C86839;}
	.st25{fill:#D47A54;}
	.st26{fill:#F69580;}
	.st27{fill:#F58B71;}
	.st28{fill:#A54037;}
	.st29{fill:url(#SVGID_00000127018459764432203320000016560857780940179896_);}
	.st30{fill:#6A3214;}
	.st31{fill:#7D3E1C;}
	.st32{fill:#995A36;}
	.st33{fill:#A36C4E;}
	.st34{fill:url(#SVGID_00000125597744840408217000000007400620197374714026_);}
	.st35{fill:url(#SVGID_00000014621948316141061950000011434101830161163654_);}
	.st36{fill:#1569B3;}
	.st37{fill:url(#SVGID_00000145019300817683010570000003606504995139644083_);}
	.st38{fill:#C87251;}
	.st39{fill:#A54D36;}
</style>
<g>
	<g>
		<path class="st0" d="M292.27,522.75c-2.81,0-5.47-0.1-7.92-0.29c-20.8-1.63-40.86-14.54-41.71-15.09c-0.31-0.2-0.53-0.53-0.6-0.9
			c-1.37-7.2,3.5-16.07,3.71-16.45c0.16-0.28,0.4-0.5,0.7-0.61l11.64-4.53c0.05-0.02,0.1-0.04,0.16-0.05l26.52-6.79
			c0.1-0.02,0.2-0.04,0.3-0.04c0.23-0.01,23.63-0.71,32.92-0.71c1.7,0,2.83,0.02,3.44,0.07c4.12,0.32,17.79,2.26,20.63,13.98
			c2.71,11.16-7.86,25.74-8.31,26.36c-0.2,0.27-0.49,0.46-0.82,0.53C332.72,518.28,311.38,522.75,292.27,522.75L292.27,522.75z"/>
		<path class="st1" d="M246.96,490.69c0,0-4.85,8.73-3.56,15.52c0,0,20.37,13.26,41.07,14.87c20.69,1.62,48.18-4.2,48.18-4.2
			s10.67-14.55,8.08-25.22c-2.59-10.67-15.2-12.61-19.4-12.93c-4.2-0.32-36.22,0.65-36.22,0.65l-26.52,6.79L246.96,490.69z"/>
		<path class="st2" d="M325.85,513.33c-6.79,3.56-26.84,8.73-52.38,2.26c-23.43-5.93-27.13-19.58-28.02-21.69
			c-1.3,3.16-2.86,8.11-2.06,12.32c0,0,20.37,13.26,41.07,14.87c20.69,1.62,48.18-4.2,48.18-4.2s4.72-6.45,7.12-13.91
			C336.28,504.47,331.52,510.36,325.85,513.33z M293.84,483.9c9.05,5.17,18.75,2.91,18.75,2.91c5.66-4.67,13-6.17,16.19-6.61
			c-3.03-0.99-5.85-1.35-7.46-1.47c-3.41-0.26-25.07,0.33-33.17,0.56C289.4,480.84,291.23,482.41,293.84,483.9z"/>
		<path class="st3" d="M292.28,520c-2.74,0-5.33-0.09-7.7-0.28c-18.33-1.43-36.66-12.32-39.92-14.34c-0.33-2.53,0.21-5.36,0.91-7.7
			c4.59,9.3,13.85,15.77,27.57,19.24c7.01,1.77,14.07,2.8,21.05,3.06C293.54,519.99,292.91,520,292.28,520L292.28,520z
			 M314.35,518.45c5.38-1.08,9.56-2.55,12.14-3.91c3.15-1.65,5.97-4.11,8.46-6.28c0.67-0.58,1.32-1.15,1.96-1.68
			c-1.92,4.35-4.26,7.88-5.08,9.06C329.93,516.03,323.06,517.36,314.35,518.45L314.35,518.45z M307.31,485.93
			c-3.26,0-8.13-0.56-12.79-3.22c-1.18-0.68-2.23-1.39-3.14-2.14c7.57-0.21,20.29-0.53,26.61-0.53c1.61,0,2.7,0.02,3.23,0.06
			c0.33,0.03,0.74,0.06,1.21,0.12c-3.27,1-7.12,2.65-10.44,5.31C311.33,485.66,309.61,485.93,307.31,485.93L307.31,485.93z"/>
	</g>
	<g>
		<path class="st0" d="M263.97,494.07c-12.19,0-19.41-3.79-19.71-3.96c-0.54-0.29-0.83-0.89-0.72-1.5
			c1.33-7.11,5.79-14.7,10.09-22.04c5.55-9.46,10.79-18.39,9.22-25.42c-2.28-10.26-25.4-18.08-34.12-20.23
			c-0.51-0.13-0.91-0.53-1.03-1.04c-0.12-0.51,0.06-1.05,0.46-1.39l21.78-18.32c0.25-0.21,0.57-0.33,0.9-0.33
			c0.05,0,0.09,0,0.14,0.01c41.14,4.01,53.9,15.82,59.92,24.35c5.01,7.11,4.08,17.95,3.25,27.52c-0.21,2.47-0.42,4.81-0.52,7.02
			c-0.45,9.9,13.51,17.94,13.65,18.02c0.55,0.31,0.82,0.95,0.67,1.56c-0.15,0.61-0.69,1.05-1.32,1.07c-9.48,0.31-16.33,2.7-25.82,6
			c-5.54,1.93-11.82,4.12-19.9,6.32C275.21,493.27,269.5,494.07,263.97,494.07L263.97,494.07z"/>
		<path class="st4" d="M229.07,419.56c0,0,32.18,7.92,35.15,21.29c2.97,13.37-16.34,32.18-19.31,48.02c0,0,13.86,7.43,35.65,1.49
			c21.78-5.94,30.7-11.88,46.04-12.38c0,0-14.85-8.42-14.36-19.31c0.5-10.89,3.47-25.25-2.48-33.67
			c-5.94-8.42-18.32-19.8-58.91-23.76L229.07,419.56z"/>
		<path class="st5" d="M264.22,440.85c2.97,13.37-16.34,32.18-19.31,48.02c0,0,12.47,6.67,32.33,2.3
			c-13.91-13.16-4.22-36.97-7.58-53.78c-3.47-17.33-27.23-23.76-27.23-23.76l-5.76-0.45l-7.6,6.39
			C229.07,419.56,261.25,427.48,264.22,440.85z"/>
		<g>
			<path class="st0" d="M213.97,424.43c-20.69,0-38.28-13.32-40.91-30.99c-0.09-0.61,0.23-1.22,0.79-1.48
				c5.2-2.43,9.76-3.78,13.54-4c0.47-0.03,1.07-0.04,1.85-0.04c5.08,0,16.58,0.6,28.75,1.25c13.35,0.7,27.16,1.43,35.66,1.55
				c0.4,0.01,0.77,0.18,1.03,0.48c0.26,0.29,0.39,0.69,0.34,1.08c-0.97,8.8-5.7,16.94-13.31,22.91
				C234.13,421.15,224.27,424.43,213.97,424.43L213.97,424.43z"/>
			<path class="st4" d="M187.49,389.36c-4.39,0.26-9.32,2.13-13.03,3.87c2.5,16.8,19.23,29.8,39.52,29.8
				c20.73,0,37.76-13.57,39.67-30.91C235.97,391.86,194.37,388.96,187.49,389.36z"/>
			<path class="st5" d="M187.49,389.36c-4.39,0.26-9.32,2.13-13.03,3.87c2.5,16.8,19.23,29.8,39.52,29.8
				c20.73,0,37.76-13.57,39.67-30.91C235.97,391.86,194.37,388.96,187.49,389.36z M242.07,406.67
				c-9.16,12.45-31.82,18.47-45.17,11.9c-10-4.92-12.83-10.48-13.61-13.68C195.26,409.66,219.01,416.35,242.07,406.67z"/>
		</g>
	</g>
	<g>
		<path class="st0" d="M161.43,520.4c-0.03-0.02-0.06-0.04-0.08-0.06c-0.03-0.02-3.25-2.1-4.71-6.4
			c-1.71-5.04-12.95-15.57-14.23-16.75c-0.07-0.06-0.14-0.12-0.22-0.17l-28.38-17.48c-0.14-0.08-0.28-0.14-0.44-0.18l-13.2-2.91
			c-0.1-0.02-0.2-0.03-0.31-0.03c-0.35,0-0.69,0.13-0.95,0.36c-0.54,0.49-13.32,12.23-13.32,26.27c0,10.5,2.95,30.29,22.68,44.81
			c0.05,0.03,0.09,0.07,0.15,0.09c0.67,0.38,16.63,9.25,28.09,9.25c12.15,0,24.84-5.83,29.52-13.57c0.15-0.25,0.3-0.51,0.44-0.77
			C170.93,534.41,167.42,524.8,161.43,520.4z"/>
		<path class="st1" d="M91.61,513.41c3.96,17.16,17.16,29.79,28.38,35.29s20.46,0.32,23.76-2.27c3.07-2.41,15.82-8.16,21.05-3.51
			c0.14-0.23,0.27-0.46,0.4-0.7c4.29-8.09,0.66-16.84-4.62-20.72c0,0-3.63-2.27-5.28-7.12c-1.65-4.86-13.86-16.19-13.86-16.19
			l-28.39-17.48l-13.2-2.91C99.86,477.79,87.64,496.24,91.61,513.41z"/>
		<path class="st2" d="M86.98,503.04c0,13.6,4.95,31.08,22.11,43.71c0,0,16.17,9.07,27.39,9.07c10.89,0,23.65-5.19,28.32-12.9
			c-5.23-4.65-17.99,1.1-21.05,3.51c-3.3,2.59-12.54,7.77-23.76,2.27s-24.42-18.13-28.38-35.29c-3.96-17.16,8.25-35.61,8.25-35.61
			S86.98,489.45,86.98,503.04z"/>
		<path class="st3" d="M136.49,554.44c-10.34,0-25.44-8.19-26.63-8.84c-18.69-13.79-21.48-32.58-21.48-42.56
			c0-5.26,2.06-10.26,4.51-14.34c-2.62,6.93-4.72,16.07-2.66,25c4.21,18.25,18.32,30.92,29.12,36.22c3.49,1.71,7.1,2.58,10.72,2.58
			c7.58,0,13.05-3.83,14.55-5.01c2.15-1.69,9.24-4.97,14.57-4.97c1.49,0,2.72,0.25,3.69,0.75
			C158.22,549.62,146.97,554.44,136.49,554.44L136.49,554.44z"/>
		<path class="st2" d="M155.31,514.38c-1.65-4.86-13.86-16.19-13.86-16.19l-1.73-1.07l-12.79,10.46c0,0,4.95,10.36,13.86,15.54
			c0,0,10.61-3.3,20.15-1.35c-0.11-0.09-0.23-0.18-0.34-0.27C160.59,521.5,156.96,519.23,155.31,514.38z"/>
		<path class="st3" d="M140.98,521.62c-6.6-4.07-10.91-11.16-12.3-13.69l11.14-9.11l0.75,0.46c3.4,3.17,12.15,11.85,13.4,15.53
			c0.72,2.12,1.79,3.79,2.81,5.03c-0.78-0.05-1.58-0.07-2.4-0.07C148.22,519.77,142.79,521.12,140.98,521.62L140.98,521.62z"/>
	</g>
	<g>
		<path class="st0" d="M187.32,411.48l-6.6-2.48c-1.95,6.62-8.69,15.89-11.48,19.55c-4.61,7.29-10.59,14.72-17.64,19.03
			c-17.52,10.71-53.39,25-53.75,25.14c-0.65,0.26-1.01,0.95-0.85,1.63c0.1,0.43,2.67,10.74,12.07,21.33
			c8.65,9.75,24.98,21.54,53.61,22.32c0.01,0,0.02,0,0.04,0c0.49,0,0.95-0.26,1.21-0.69c0.26-0.44,0.26-0.99,0-1.42
			c-0.02-0.04-2.17-3.8-1.71-9.78c0.6-7.99,5.55-16.32,14.31-24.11c14.19-12.62,23.35-32.8,28.24-46.27
			c2.06-7.42,2.68-14.03,2.68-14.03L187.32,411.48z"/>
		<path class="st4" d="M98.37,474.02c0,0,9.9,41.09,64.36,42.58c0,0-9.41-15.84,12.87-35.65c22.28-19.8,32.18-59.41,32.18-59.41
			s-7.92-12.38-26.73-13.37c0,0-10.89,29.71-28.71,40.6C134.51,459.66,98.37,474.02,98.37,474.02z"/>
		<path class="st5" d="M175.6,480.95c22.28-19.8,32.18-59.41,32.18-59.41s-0.11-0.18-0.33-0.48c-4.95,18.48-16.5,35.96-37.95,51.47
			c-18.69,13.51-23.6,36.29-24.56,41.94c5.33,1.19,11.23,1.94,17.79,2.12C162.73,516.6,153.33,500.76,175.6,480.95z"/>
	</g>
	<g>
		<path class="st0" d="M138.41,384.29c-0.01,0-0.02,0-0.04,0c-0.58-0.03-14.29-0.85-17.38-7.35c-1.37-2.88-0.5-6.28,2.6-10.09
			c11.38-14.01,33.3-23.69,34.23-24.1c0.13-0.06,0.28-0.1,0.42-0.11c3.79-0.41,7.57-0.56,11.22-0.45
			c14.29,0.42,22.48,4.56,22.83,4.74c0.6,0.31,0.88,0.99,0.67,1.61l-6.85,19.74c-0.13,0.38-0.43,0.68-0.81,0.82
			c-0.18,0.07-0.37,0.1-0.56,0.09c-0.22-0.01-0.43-0.06-0.62-0.16c-0.09-0.05-9.48-4.84-17.24-5.06c-2.18-0.06-4.02,0.24-5.46,0.91
			c-7.94,3.67-15.66,14.47-15.74,14.58c-0.09,0.13-0.2,0.24-0.33,0.33l-6.07,4.25C139.02,384.21,138.72,384.3,138.41,384.29
			L138.41,384.29z"/>
		<path class="st6" d="M144.51,378.69c0,0,7.92-11.16,16.29-15.03c8.37-3.87,23.98,4.18,23.98,4.18l6.85-19.74
			c0,0-12.36-6.37-33.23-4.13c0,0-22.41,9.79-33.71,23.7c-11.3,13.91,13.75,15.27,13.75,15.27L144.51,378.69z"/>
		<path class="st7" d="M160.8,363.66c8.37-3.87,23.98,4.18,23.98,4.18l2.52-7.26c-0.21-0.14-0.42-0.27-0.65-0.39
			c-6.17-3.48-25.01-3.04-25.01-3.04c-10.06,5.32-18.76,20.59-18.76,20.59l0.16,1.98l1.46-1.02
			C144.51,378.69,152.43,367.53,160.8,363.66z"/>
	</g>
	<g>
		<path class="st0" d="M146.49,381.72c0,0-1.76-6.91-13.68-12.57c-7.89-3.75-15.22-2.07-19.28-0.5c-1.74,0.88-3.42,1.98-5.03,3.32
			c-0.56,0.46-1.11,0.95-1.66,1.48l-0.07,0.06c-0.15,0.14-0.29,0.28-0.43,0.42l-0.13,0.13c-0.13,0.13-0.26,0.27-0.39,0.41
			l-0.04,0.04l-0.09,0.09c-0.12,0.13-0.25,0.27-0.36,0.38l-0.12,0.14c-0.12,0.14-0.25,0.27-0.36,0.4l-0.05,0.06
			c-0.37,0.43-0.73,0.86-1.06,1.29l-0.03,0.04l-0.06,0.08l-0.24,0.31l-0.06,0.08l-0.07,0.1l-0.2,0.27l-0.15,0.2
			c-0.06,0.08-0.12,0.16-0.17,0.23l-0.11,0.16l-0.04,0.06l-0.04,0.05l-0.1,0.15l-0.16,0.24l-0.03,0.05l-0.06,0.09
			c-0.09,0.13-0.17,0.25-0.24,0.37c-1.75,2.7-3.29,4.43-3.98,5.14c-1.38,0.3-2.48,0.53-3.49,0.32c-0.45-0.09-0.87-0.27-1.3-0.54
			l-0.61-0.39c-1.16-0.74-2.37-1.51-3.71-2.09c-0.67-0.29-1.35-0.5-2.04-0.64c-2.72-0.56-5.38,0.05-7.48,1.73
			c-2.42,1.93-3.67,4.93-3.26,7.82c0.31,2.16,1.51,3.96,3.36,5.09c-0.35,1.29-0.38,2.61-0.1,3.9c0.93,4.2,3.94,6.05,6.7,7.13
			c0.48,2.4,1.8,4.37,3.78,5.59c1.74,1.08,3.58,1.8,5.62,2.23c1.91,0.4,4,0.51,6.36,0.36c0.97,1.01,2.21,1.93,3.83,2.88
			c0.9,0.52,1.95,1.1,2.98,1.49c1.89,1.77,4.45,3.05,7.26,3.64c5.76,1.19,11.02-0.65,13.69-4.72c5.29,0.29,9.59-1.46,12.19-4.94
			c0.29-0.25,0.5-0.61,0.69-0.94c0.27-0.47,0.67-1.21,1.21-2.22c0.15-0.29,0.3-0.58,0.44-0.86c2.07-4.31,2.2-7.96,2.18-9.06
			c0.05-0.17,0.1-0.35,0.15-0.52C150.14,386.92,146.49,381.72,146.49,381.72z"/>
		<g>
			<path class="st6" d="M147.44,384.47c-0.16-3.86-6.42-15.22-20.21-16.88c-13.78-1.66-21.67,8.68-24.14,12.48
				c-2.46,3.8-4.55,5.76-4.55,5.76c-7.19,2.34-7.16-2.44-13.5-3.04c-6.85-0.46-10.65,9.77-3.67,11.93l0.4,0.07
				c-2.14,3.94,0.15,9.58,5.78,10.55l0.08-0.06c0.21,6.23,6.58,7.95,14.35,7.84l0.21-0.48c1.59,2.06,4.1,3.76,6.42,4.62l0.14,0.14
				c4.61,5.5,16.69,6.1,19.87-1.15l0.05-0.08c5.25,0.71,9.28-0.16,12.77-5.16c0,0-1.73,3.71,1.02-1.46
				c0.14-0.27,0.28-0.55,0.41-0.81c2.31-4.81,2.05-8.73,2.05-8.73C146.81,395.59,147.6,388.33,147.44,384.47z M97.31,398.03
				l0.01,0.16c-0.06-0.01-0.13-0.02-0.19-0.02L97.31,398.03z"/>
			<path class="st7" d="M128.81,376.93c0,0,2.32-5.17,6.29-6.17c3.05,1.44,6.13,3.26,7.94,5.29c0.3,0.34,0.58,0.61,0.85,0.84
				c-3.21-4.13-8.67-8.34-16.65-9.3c-0.08-0.01-0.15-0.01-0.23-0.02c1.3,0.42,3.75,1.27,6.42,2.43
				C131.77,371.32,129.77,373.54,128.81,376.93z M105.2,402.78c-0.17,0.01-0.27,0.01-0.27,0.01S105.03,402.79,105.2,402.78z
				 M147.44,384.47c-0.02-0.52-0.16-1.18-0.4-1.93c0.62,5.63-3.26,15.38-3.26,15.38s0.79,4.63-2.53,10.65
				c-3.32,6.01-11.8,4.58-14.04,3.79c-2.23-0.78-3.31,0.59-5.34,1.13c-2.03,0.54-4.95-2.3-4.95-2.3l0.57,1.87
				c-1.49-1.27-3.04-8.45,2.22-9.92c5.25-1.46,14.02,3.23,14.02,3.23l-1.67-2.74l1.53-4.31l1.29-0.85
				c-11.93-4.07-7.51-16.88-7.51-16.88c-3.68,4.66-4.49,14.71-4.52,15.66c-0.04,0.95-3.15,2.86-9.44-0.68
				c-4.48-2.52-8.72-5.8-10.79-7.48c-1.56-5.28,3.46-12.27,6.76-16.12c-3.13,2.59-5.21,5.45-6.28,7.1c-2.46,3.8-4.55,5.76-4.55,5.76
				c-1.68,0.55-2.96,0.7-4.03,0.62c0.12,0.02,0.24,0.04,0.38,0.06c4,0.57,5.94,2.05,6.87,3.28c0.14,1.01,0.03,2.13-1.02,2.4
				c-2.03,0.54-8.52-0.49-8.52-0.49l5.38,2.55c1.35,0.44,4.29,0.09,4.29,0.09s3.27,1.16,3.73,2.05c0.45,0.89-2.22,2.25-2.22,2.25
				l3.28-0.44c0,0,3.76,1.1,4.06,2.76c0.26,1.45-4.35,1.76-5.53,1.82c0.68-0.02,2.52-0.05,3.98,0.26c1.84,0.38,3.6,1.86,4.41,5.7
				c0.6,2.89,4.21,6.94,5.96,8.77c-1.52,0.7-3.46,0.48-4.95-0.58c-2.23-1.58-4.31-2.33-8.37-4.29c-4.06-1.96-4.67-6.72-4.67-6.72
				l-1.38,1.85c-1.05,0.33-4.14,1.1-7.8,0.08c-3.47-0.96-4.21-3.8-4.36-5.07c0.47-2.95,2.65-4.38,2.65-4.38s-4.19,2.48-6.23,1.58
				c-1.58-0.7-2.36-3.9-2.63-5.32c1.25-2.44,3.55-3.23,3.9-3.33c-0.29,0.08-2.04,0.57-4.25,0.69c-2.15,0.12-3.09-3.79-3.27-4.66
				c-1.16,2.87-0.47,6.22,3.19,7.36l0.4,0.07c-2.14,3.94,0.15,9.58,5.78,10.55l0.08-0.06c0.21,6.23,6.58,7.95,14.35,7.84l0.21-0.48
				c1.59,2.06,4.1,3.76,6.42,4.62l0.14,0.14c4.61,5.5,16.69,6.1,19.87-1.15l0.05-0.08c5.25,0.71,9.28-0.16,12.77-5.16
				c0,0-1.73,3.71,1.02-1.46c0.14-0.27,0.28-0.55,0.41-0.81c2.31-4.81,2.05-8.73,2.05-8.73
				C146.81,395.59,147.6,388.33,147.44,384.47z"/>
			<path class="st8" d="M141.33,410.89c-3.31,3.38-6.17,5.3-11.07,4.81c-1.07-0.11-3.92-1.26-4.8-0.66c-1.49,1.01-4.53,0-5.93-0.74
				c-3.94-2.09-3.56-8.88,0.44-10.63c3.13-1.37,7.34-0.56,10.57-0.04c0.2,0.03,0.24-0.23,0.06-0.29c-0.21-0.07-0.43-0.14-0.64-0.21
				c0.08-0.06,0.15-0.14,0.2-0.26c0.5-1.23,0.96-2.45,1.23-3.76c0.06-0.27-0.08-0.55-0.32-0.67c-6.12-3.06-5.91-11.39-3.8-16.93
				c0.02-0.05-0.05-0.08-0.07-0.04c-1.48,3.4-2.18,7.13-1.68,10.83c0.23,1.69,0.87,3.25,1.84,4.64c0.54,0.78,1.27,1.4,2.03,1.95
				c1.2,0.86,0.08,2.2-0.42,3.38c-0.09,0.21-0.07,0.4,0.01,0.56c-3.42-1.05-7.12-1.76-10.43-0.09c-1.93,0.98-2.95,2.99-3.19,5.14
				c-0.79-0.89-1.58-1.8-2.42-2.62c0.02-0.02,0.05-0.04,0.07-0.07c1.1-1.38,2.07-2.63,2.82-4.25c0.04-0.08-0.07-0.13-0.12-0.06
				c-0.76,1.26-1.85,2.88-3.33,3.36c-0.16,0.05-0.26,0.13-0.32,0.23c-1.41-1.2-3-2.12-4.99-2.37c-2.8-0.35-5.94,1.93-6.77,4.58
				c-0.68,2.16,0.02,4.17,1.24,5.9c-1.75-0.17-3.67-0.71-5.38-0.6c-1.63,0.1-2.88-0.21-4.42-0.96c-2.27-1.1-3.47-3.22-3.68-5.51
				c0.04-0.14,0.03-0.28-0.03-0.41c-0.05-1.37,0.24-2.79,0.88-4.07c1.73-3.45,6.8-2.48,9.81-1.97c3.64,0.61,7.03,0.08,10.21-1.91
				c0.07-0.05,0.01-0.17-0.07-0.14c-1.41,0.53-2.8,0.93-4.29,1.17c-1.26,0.2-2.28-0.11-3.5-0.16c-2.18-0.08-4.32-0.59-6.51-0.63
				c-3.79-0.07-6.46,1.76-7.21,5.52c-0.12,0.6-0.18,1.21-0.18,1.81c-3.65-0.46-6.1-4.25-5.64-7.76c0.52-3.97,4.89-5.92,8.44-5.03
				c2.63,0.66,4.91,2.3,7.56,2.93c2.35,0.55,5.25-0.81,7.05-2.22c0.07-0.05,0-0.16-0.07-0.11c-1.19,0.82-2.41,1.42-3.84,1.68
				c-0.85,0.15-1.6-0.25-2.4-0.46c-1.94-0.5-3.69-1.38-5.52-2.18c-3.14-1.37-6.11-1.56-9.05,0.38c-0.91,0.6-1.65,1.4-2.2,2.31
				c-0.02-0.01-0.03-0.01-0.05-0.02c-6.69-2.01-2.41-10.8,3.12-10.94c1.62-0.04,3.24,0.64,4.62,1.41c0.93,0.51,1.89,1.38,2.95,1.6
				c2.19,0.45,4.28,0.43,6.41-0.4c0.12-0.04,0.06-0.21-0.06-0.18c-2.25,0.48-4.02,0.91-6.02-0.35c-1.35-0.85-2.67-1.75-4.14-2.38
				c-2.78-1.19-5.79-1-8.17,0.9c-3.89,3.11-3.95,9.21,0.91,11.21c-0.57,1.33-0.76,2.82-0.44,4.27c0.79,3.59,3.33,5.29,6.59,6.45
				c0.26,2.18,1.31,4.21,3.29,5.43c3.56,2.2,7.38,2.68,11.48,2.37c0.12-0.01,0.2-0.05,0.28-0.1c0.05,0.05,0.09,0.11,0.14,0.16
				c1.08,1.23,2.48,2.2,3.89,3.02c0.83,0.48,1.97,1.12,3.03,1.48c5.13,5.06,15.8,5.52,19.5-1.31c0.25,0.02,0.5,0.03,0.74,0.05
				c4.85,0.28,9.65-1.29,12.02-5.85C141.71,410.9,141.47,410.75,141.33,410.89z M110.01,418.37c0.15,0.03,0.31,0.06,0.45,0.07
				c0.87,0.08,1.16-1.12,0.28-1.35c-1.06-0.27-2.03-0.29-3.06-0.76c-1.09-0.5-2.1-1.18-3.04-1.92c-1.82-1.43-3.41-3.47-3.5-5.86
				c-0.13-3.39,3.85-5.65,6.81-5.02c2.74,0.59,5.34,3.02,7.37,4.85c0,0,0.01,0,0.01,0c-0.11,1.96,0.4,3.97,1.44,5.39
				c1.21,1.65,3.24,2.36,5.18,2.62c1.2,0.16,2.63-0.3,3.77,0.03c0.65,0.19,1.35,0.3,2.06,0.37
				C124.28,422.64,115.05,422.37,110.01,418.37z"/>
		</g>
	</g>
	<g>
		<g>
			<path class="st0" d="M192.94,341.63c0.09,0.06,9.37,5.88,15.04,9.85c5.98,5.67,8.55,11.14,5.93,18.73
				c-2.12,6.16-11.74,8.31-16.03,8.97c-4.78-0.42-10.96-2.31-18.25-7.48c-0.24-0.17-0.41-0.4-0.51-0.66
				c-0.13-0.34-0.12-0.74,0.05-1.09c0.08-0.16,7.78-16.33,11.69-27.59c0.14-0.4,0.46-0.72,0.86-0.86
				C192.13,341.36,192.58,341.41,192.94,341.63z"/>
			<path class="st3" d="M180.44,370.56c0,0,7.77-16.27,11.75-27.74c0,0,9.56,6,15.24,9.99c5.67,3.99,9.74,9.36,6.74,17.04
				C211.18,377.53,197.86,382.92,180.44,370.56z"/>
			<path class="st2" d="M184.92,366.95c0.67,0.02,15.99,6.29,17.18,8.09c0.98,1.5-1.93,2.52-2.95,2.82
				c-4.76-0.19-10.4-1.91-16.62-5.89C182.97,370.76,184.36,366.93,184.92,366.95z"/>
			<path class="st9" d="M183.64,363.64c15.41,12.88,27.45,10.02,28.14,9.85c-2.69,2.74-7.06,4.59-12.62,4.37
				c1.02-0.3,3.93-1.32,2.95-2.82c-1.19-1.81-16.51-8.07-17.18-8.09c-0.56-0.02-1.95,3.8-2.38,5.02c-0.69-0.44-1.39-0.91-2.1-1.41
				C180.44,370.56,181.78,367.75,183.64,363.64z"/>
		</g>
		
			<linearGradient id="SVGID_1_" gradientUnits="userSpaceOnUse" x1="287.8351" y1="408.9562" x2="295.7561" y2="415.2269" gradientTransform="matrix(-0.3426 -0.9395 -0.9395 0.3426 685.3215 486.0133)">
			<stop  offset="0" style="stop-color:#EF4334"/>
			<stop  offset="1" style="stop-color:#ED2224"/>
		</linearGradient>
		<path class="st10" d="M213.01,367.38c0,0-3.03-4.69-7.75-8.24c-4.72-3.55-12.38-11.56-12.38-11.56l0.17-2.43
			C193.04,345.15,219.47,357.64,213.01,367.38z"/>
	</g>
	<g>
		<path class="st0" d="M217.01,408.78c-1.68,0-3.37-0.06-5.04-0.19c-21.56-1.66-40.45-13.57-41.24-14.08
			c-0.53-0.34-0.77-0.98-0.59-1.58c0.12-0.4,2.93-9.84,9.06-20.26c7.9-13.42,17.69-22.13,28.38-25.27
			c-0.16-1.92,0.02-4.55,1.69-6.55c1.52-1.81,3.9-2.72,7.1-2.72c6.81,0,18.05,2.5,20.55,7.88c0.57,1.23,0.9,3.04-0.33,5.19
			c8.82,5.13,15.07,14.09,18.13,26.01c2.41,9.38,2.01,17.19,1.99,17.52c-0.02,0.34-0.16,0.67-0.41,0.92
			C252.02,399.92,236.77,408.78,217.01,408.78L217.01,408.78z"/>
		<path class="st3" d="M234.55,351.67c6.17-7.33-8.41-12.15-18.18-12.15c-7.93,0-7.73,6.14-7.24,8.9
			c-26.4,6.67-37.65,44.89-37.65,44.89s19.14,12.21,40.6,13.86c21.45,1.65,38.62-7.92,43.24-12.54
			C255.31,394.64,257.03,363.39,234.55,351.67z"/>
		<path class="st2" d="M188.31,391.67c-5.91-12.38,6.64-32.9,10.48-38.7c-19.03,12.2-27.31,40.35-27.31,40.35
			s19.14,12.21,40.6,13.86c16.29,1.25,30.09-3.96,37.82-8.57C227.49,409.2,194.71,405.07,188.31,391.67z M221.32,352.4
			c-8.82-2.05-11.26-6.27-11.85-9.17c-0.74,1.81-0.57,3.89-0.34,5.2c-1,0.25-1.98,0.56-2.94,0.9
			C212.47,352.96,221.32,352.4,221.32,352.4z M237.87,353.66c-1.05-0.71-2.15-1.38-3.32-1.99c1.78-2.12,1.83-4.03,0.77-5.67
			c-0.5,2.32-2.3,6.49-8.71,6.72C226.6,352.73,232.62,355.04,237.87,353.66z"/>
		
			<linearGradient id="SVGID_00000178885166106073767570000014263639092968330660_" gradientUnits="userSpaceOnUse" x1="245.5886" y1="374.1292" x2="256.3813" y2="382.6733">
			<stop  offset="0" style="stop-color:#EF4334"/>
			<stop  offset="1" style="stop-color:#ED2224"/>
		</linearGradient>
		<path style="fill:url(#SVGID_00000178885166106073767570000014263639092968330660_);" d="M233.2,356.69l5.28-0.66
			c0,0,14.52,8.91,15.51,37.3C253.99,393.32,254.32,371.87,233.2,356.69z"/>
		<path class="st9" d="M188.31,391.67c-5.91-12.38,6.64-32.9,10.48-38.7c-4.08,2.61-7.66,5.96-10.77,9.61
			c0.95,0.78,1.45,2.84-0.37,7.97c-3.63,10.23-3.96,21.45,1.98,26.41c5.59,4.65,15.84,10.77,40.91,9.01
			c8.08-1.69,14.78-4.62,19.36-7.35C227.49,409.2,194.71,405.07,188.31,391.67z M176.1,391.67c-1.36-2.88,0.08-8.73,1.79-13.74
			c-4.37,8.46-6.41,15.39-6.41,15.39s17.14,10.93,37.16,13.5C193.39,403.68,178.29,396.32,176.1,391.67z M220.25,352.43
			c0.67-0.01,1.07-0.03,1.07-0.03c-8.82-2.05-11.26-6.27-11.85-9.17c-0.62,1.53-0.6,3.24-0.44,4.52
			C211.34,349.27,215.31,351.44,220.25,352.43z M234.99,351.08c1.33-1.88,1.28-3.59,0.32-5.08c-0.5,2.32-2.3,6.49-8.71,6.72
			c0,0,0.18,0.07,0.5,0.17C229.61,352.74,232.26,352.19,234.99,351.08z"/>
	</g>
	<g>
		<path class="st0" d="M226.72,348.81c-8,0-13.18-4.24-13.39-4.42c-0.47-0.39-0.63-1.05-0.4-1.62c4.66-11.18-0.44-23.54-0.49-23.67
			c-0.18-0.43-0.14-0.93,0.12-1.32c0.26-0.39,0.7-0.63,1.17-0.63c18.74,0,29.33,11.86,29.77,12.36c0.32,0.36,0.43,0.86,0.29,1.33
			c-0.14,0.46-0.5,0.82-0.97,0.95c-8.07,2.24-12.36,15.76-12.4,15.9c-0.17,0.53-0.63,0.92-1.19,0.98
			C228.4,348.77,227.55,348.81,226.72,348.81L226.72,348.81z"/>
		<path class="st7" d="M213.73,318.56c0,0,5.45,12.87,0.5,24.75c0,0,5.94,4.95,14.85,3.96c0,0,4.46-14.36,13.37-16.83
			C242.44,330.45,232.04,318.56,213.73,318.56z"/>
	</g>
	<g>
		<path class="st0" d="M255.57,410.11c-0.92,0-1.85-0.01-2.77-0.04c-0.08,0-0.17-0.01-0.25-0.03c-0.5-0.1-12.32-2.64-24.3-11.38
			c-0.34-0.25-0.55-0.64-0.58-1.06c-0.02-0.42,0.15-0.83,0.47-1.12l16.83-15.1c0.26-0.24,0.6-0.36,0.94-0.36
			c0.26,0,0.52,0.07,0.75,0.21c0.08,0.05,8.47,5.26,16.17,5.73c0.18,0.01,0.37,0.02,0.56,0.02c8,0,24.77-8.68,24.94-8.77
			c0.21-0.11,0.43-0.16,0.65-0.16c0.4,0,0.8,0.17,1.07,0.5l6.93,8.17c0.21,0.24,0.33,0.55,0.33,0.88l0.25,11.14
			c0.01,0.48-0.22,0.93-0.62,1.2C296.32,400.35,281.49,410.11,255.57,410.11L255.57,410.11z"/>
		<path class="st6" d="M245.91,382.43c0,0,8.66,5.45,16.83,5.94c8.17,0.5,26.24-8.91,26.24-8.91l6.93,8.17l0.25,11.14
			c0,0-15.84,10.64-43.32,9.9c0,0-11.88-2.48-23.76-11.14L245.91,382.43z"/>
		<path class="st7" d="M252.84,408.67c27.48,0.74,43.32-9.9,43.32-9.9l-0.05-2.08c-0.28,0.18-0.57,0.38-0.86,0.59
			c-7.59,5.61-33.34,10.56-41.92,8.91c-7.69-1.48-16.44-11.96-18.17-14.13l-6.09,5.46C240.96,406.19,252.84,408.67,252.84,408.67z"
			/>
	</g>
	<g>
		<path class="st0" d="M352.69,372c-0.97-1.81-2.89-2.81-5.39-2.81c-1,0-2.08,0.16-3.21,0.47c-0.11,0.03-0.23,0.07-0.35,0.11
			c0.68-1.1,1.33-2.38,1.95-3.82l0.03-0.07l0.2-0.47l0.03-0.06l0.02-0.05l0.15-0.38l0.05-0.13l0.02-0.06l0.12-0.33l0.03-0.09
			l0.04-0.1l0.1-0.26c0.04-0.1,0.07-0.18,0.1-0.27l0.05-0.14c0-0.01,0.01-0.04,0.02-0.05l0.12-0.35c0.04-0.13,0.1-0.25,0.15-0.38
			l0.04-0.09c0.06-0.12,0.12-0.24,0.18-0.36l0.09-0.15l0.11-0.2l0.15-0.26c0.37-0.63,0.76-1.29,0.94-2.09
			c0.16-0.7,0.12-1.39-0.11-2.09c-0.8-2.39-4.61-3.87-7.69-3.87c-0.33,0-0.65,0.02-0.96,0.05c-2.44,0.27-4.22,3.04-5.94,5.71
			c-0.31,0.48-0.61,0.95-0.92,1.4c-0.1,0.15-0.2,0.29-0.31,0.45l-0.05,0.07c-0.1,0.14-0.2,0.28-0.32,0.44l-0.05,0.06
			c-0.1,0.13-0.2,0.26-0.31,0.39c0,0.01-0.03,0.03-0.03,0.04c-0.1,0.12-0.2,0.23-0.29,0.34c-0.12,0.13-0.26,0.27-0.42,0.4
			c-0.88,0.78-2.1,1.49-3.25,2.07c0.23-0.24,0.49-0.47,0.77-0.67c1.05-0.77,2.16-1.95,3.12-3.32c0.46-0.66,0.87-1.34,1.2-2
			c0.02-0.04,0.04-0.08,0.05-0.1c0.09-0.19,0.18-0.37,0.26-0.56c0-0.01,0.02-0.05,0.03-0.06l0.05-0.12
			c0.06-0.16,0.12-0.31,0.18-0.47l0.07-0.2c0.05-0.15,0.09-0.29,0.13-0.41c0.02-0.08,0.05-0.16,0.07-0.24
			c0.04-0.15,0.07-0.3,0.1-0.48c0.01-0.05,0.02-0.11,0.03-0.17c0.03-0.24,0.05-0.45,0.05-0.64c0-0.2,0.01-0.41,0.03-0.6
			c0.02-0.2,0.04-0.4,0.06-0.61c0.18-1.4,0.62-3.02,1.37-4.95c0.79-2.06,0.32-3.16-0.12-3.69c-1.55-3.33-5.97-3.5-6.86-3.5
			c-0.1,0-0.15,0-0.15,0c-0.1,0-0.21,0.02-0.3,0.04c-5.47,1.49-6.91,8.24-7.45,10.78c-0.04,0.2-0.08,0.38-0.12,0.53
			c-0.02,0.07-0.05,0.16-0.09,0.27l-0.02,0.04c0,0.01-0.02,0.05-0.02,0.06c-0.03,0.09-0.07,0.17-0.11,0.26l-0.06,0.11
			c-0.05,0.1-0.11,0.21-0.18,0.31l-0.05,0.09c-0.09,0.14-0.19,0.29-0.29,0.44c-0.26,0.36-0.57,0.75-0.94,1.16
			c-0.51,0.57-1.09,1.16-1.75,1.75c-0.15,0.13-0.3,0.26-0.47,0.42c-0.14,0.12-0.27,0.23-0.41,0.35l-0.07,0.05
			c-0.13,0.11-0.25,0.21-0.41,0.33l-0.06,0.05c-0.15,0.12-0.3,0.24-0.45,0.35c-1.3,0.98-4.51,1.68-6.9,2.07
			c0.22-0.65,0.45-1.42,0.66-2.28c0-0.01,0.01-0.04,0.01-0.05l0.02-0.09c0.03-0.13,0.06-0.25,0.09-0.39l0.04-0.19l0.07-0.36
			l0.02-0.08l0.02-0.12c0.02-0.12,0.04-0.24,0.06-0.34l0.04-0.24l0.06-0.37l0.01-0.1l0.02-0.12c0.01-0.1,0.03-0.2,0.04-0.3l0.01-0.1
			l0.02-0.19c0.02-0.18,0.03-0.35,0.05-0.54c0-0.02,0-0.05,0.01-0.07c0.02-0.21,0.03-0.42,0.04-0.61l0.01-0.14V355
			c0.01-0.15,0.01-0.3,0.01-0.46l0-0.12v-0.11c0-0.13,0-0.27-0.01-0.39c0-0.09-0.01-0.18-0.01-0.26c-0.01-0.13-0.01-0.27-0.02-0.4
			l-0.02-0.27c-0.01-0.13-0.02-0.26-0.04-0.4l-0.01-0.08l-0.02-0.17c-0.02-0.14-0.04-0.28-0.06-0.4c-0.01-0.09-0.03-0.17-0.04-0.26
			c-0.03-0.15-0.06-0.3-0.09-0.44l-0.01-0.05c-0.01-0.06-0.02-0.12-0.04-0.16c-0.05-0.22-0.11-0.44-0.17-0.66
			c-0.08-0.28-0.18-0.55-0.32-0.9l-0.06-0.15c-0.12-0.28-0.25-0.53-0.38-0.75c-0.02-0.04-0.05-0.08-0.06-0.1
			c-0.13-0.22-0.28-0.43-0.44-0.65c-0.03-0.04-0.06-0.07-0.07-0.09c-0.17-0.22-0.35-0.42-0.54-0.61l-0.07-0.07
			c-0.21-0.2-0.41-0.37-0.59-0.52c-0.2-0.15-0.42-0.3-0.66-0.46c-0.02-0.01-0.04-0.03-0.06-0.03c-0.44-0.26-0.91-0.49-1.42-0.66
			c-0.95-0.33-2.01-0.51-3.08-0.51c-0.56,0-3.39,0.07-4.22,1.52c-0.06,0.1-0.1,0.2-0.14,0.31c0,0,0,0,0,0.01
			c-0.02,0.05-0.03,0.1-0.05,0.16c-0.01,0.04-0.03,0.08-0.04,0.17l-0.03,0.13c-0.01,0.04-0.02,0.08-0.03,0.14l-0.01,0.1
			c0,0-0.01,0.06-0.01,0.06l-0.01,0.1c0,0.01-0.01,0.07-0.01,0.08l-0.01,0.06l-0.01,0.15l-0.01,0.14l0,0.07l-0.01,0.11
			c0,0.01,0,0.08,0,0.09l-0.01,0.27c-0.02,0.64-0.02,1.41-0.02,2.23c0,2.29,0,5.43-0.59,6.87c-0.02,0.06-0.05,0.11-0.08,0.16
			l-0.04,0.08c-1.25,2.39-2.57,6.85-2.93,8.08c-1.75,1.86-3.03,4.01-3.97,6.09c-0.77,2.84-1.86,7.47-1.34,9.24
			c0.77,2.62,6.33,6.79,6.33,6.79l1.85,11.42c0,0,4.04,1.84,10,2.89c0.27,0.01,0.54,0.03,0.79,0.04l0.09,0l0.09,0.01
			c0.58,0.03,1.16,0.05,1.74,0.06l0.15,0c0.23,0.01,0.47,0.01,0.71,0.02l0.08,0l0.11,0c0.27,0,0.54,0.01,0.81,0.01
			c0.01,0,0.05,0,0.06,0l0.25,0l0.48,0h0.09h0.11h0.76l0.73,0l0.16,0l0.53-0.01l0.19,0c0.22,0,0.44-0.01,0.64-0.02
			c3.82-0.11,8.41-1.74,11.44-2.82c1.19-0.42,2.32-0.82,2.78-0.9c0.1-0.02,0.29-0.04,0.6-0.04c0.92,0,2.26,0.17,3.68,0.35
			c0.83,0.11,1.69,0.22,2.55,0.3l0.09,0.01c0.21,0.02,0.42,0.04,0.63,0.06c0.01,0,0.08,0.01,0.09,0.01
			c0.21,0.02,0.42,0.03,0.63,0.05l0.16,0.01l0.04,0c0.17,0.01,0.33,0.02,0.5,0.02c0.24,0.01,0.47,0.01,0.69,0.01
			c3.16,0,6.12-1.62,7.06-2.19c0.1-0.01,0.2-0.02,0.31-0.04c0.07-0.01,0.13-0.02,0.22-0.04c0.14-0.03,0.28-0.06,0.39-0.09
			c0.09-0.03,0.18-0.06,0.26-0.09c0.11-0.04,0.21-0.08,0.34-0.14c0.08-0.04,0.16-0.08,0.24-0.12c0.09-0.05,0.18-0.11,0.26-0.17
			c0.08-0.05,0.16-0.11,0.23-0.17c0.05-0.04,0.1-0.09,0.17-0.16c1.35-1.3,1.13-3.22,0.98-4.49c-0.01-0.13-0.03-0.26-0.04-0.37
			c-0.25-2.45-3.73-3.51-5.46-3.51c-0.17,0-0.32,0.01-0.47,0.02c-0.18,0.02-0.38,0.05-0.58,0.07c-0.01,0-0.06,0.01-0.08,0.01
			l-0.64,0.09c-0.52,0.08-1.09,0.16-1.74,0.24c-0.23,0.03-0.46,0.05-0.73,0.08c-0.24,0.02-0.48,0.04-0.76,0.06
			c-0.25,0.02-0.5,0.03-0.76,0.04c-0.07,0-0.15,0-0.22,0.01c2.34-0.45,4.53-1.07,5.96-1.67c0.12-0.05,0.23-0.1,0.34-0.15l0.07-0.04
			c0.09-0.04,0.18-0.08,0.25-0.12c0.05-0.02,0.09-0.04,0.1-0.05c0.08-0.04,0.16-0.09,0.26-0.14c0.02-0.01,0.06-0.03,0.07-0.04
			c0.1-0.06,0.19-0.12,0.28-0.19c0.89-0.65,2.46-2.1,4.12-3.64c1.4-1.3,3.15-2.92,3.67-3.25c0.18-0.11,0.34-0.24,0.51-0.41
			C354.2,377.36,353.86,374.19,352.69,372z"/>
		<g>
			<path class="st6" d="M287.64,381.26c0,0,0.77-8.95,6.33-14.66c0,0,1.54-5.56,2.93-8.18c1.39-2.62,0.46-10.34,1.08-11.42
				c0.62-1.08,7.87-2.16,9.57,3.7c1.7,5.86-1.54,12.65-1.54,12.65s7.25-0.77,9.72-2.62c2.47-1.85,5.4-4.78,5.86-6.79
				c0.46-2.01,1.54-8.95,6.64-10.34c0,0,4.63-0.15,5.86,2.93c0,0,0.77,0.46,0,2.47c-0.77,2.01-1.54,4.48-1.54,6.64
				c0,2.16-2.47,6.02-4.78,7.72c-2.31,1.7-3.09,4.48-3.09,4.48s5.4-1.85,7.72-4.32c2.32-2.47,4.63-8.18,7.41-8.49
				c2.78-0.31,6.64,1.08,7.25,2.93c0.62,1.85-0.93,2.93-1.54,4.78c-0.62,1.85-2.47,6.64-4.94,8.95c-2.47,2.32-12.81,5.56-12.81,5.56
				s6.48,0.46,8.64-0.46c2.16-0.93,4.63-4.94,8.03-5.87c3.39-0.93,6.02-0.31,7.1,1.7c1.08,2.01,1.23,4.78,0,5.56
				c-1.23,0.77-6.17,5.71-7.87,6.94c-1.7,1.24-9.26,3.09-13.74,2.78c0,0,4.01,2.01,6.64,2.01s4.78-0.46,6.17-0.62
				c1.39-0.15,4.32,0.77,4.48,2.31c0.15,1.54,0.77,4.32-2.47,4.48c0,0-3.24,2.16-6.64,2.16c-3.39,0-8.03-1.08-9.88-0.77
				c-1.85,0.31-8.8,3.55-14.04,3.7c-5.25,0.15-15.12-0.15-18.52-1.7C295.66,399.48,288.41,388.98,287.64,381.26z"/>
			<path class="st12" d="M319.58,366.29c0,0,3.09,0.62,2.31,3.24C321.9,369.53,321.44,367.53,319.58,366.29z"/>
			<path class="st12" d="M323.65,373.4c0,0,2.43,2,0.52,3.95C324.17,377.34,324.71,375.36,323.65,373.4z"/>
			<path class="st12" d="M325.96,383.2c0,0,2.44,1.99,0.53,3.95C326.49,387.15,327.02,385.15,325.96,383.2z"/>
			<path class="st12" d="M326.97,391.76c0,0,2.42,2.04-0.45,3.2C326.52,394.96,327.61,393.29,326.97,391.76z"/>
			
				<linearGradient id="SVGID_00000009571080509803054880000018037913576974305931_" gradientUnits="userSpaceOnUse" x1="292.3945" y1="365.8302" x2="301.4228" y2="354.9499">
				<stop  offset="0" style="stop-color:#E4906C"/>
				<stop  offset="1" style="stop-color:#FBC09C"/>
			</linearGradient>
			<path style="fill:url(#SVGID_00000009571080509803054880000018037913576974305931_);" d="M307.17,360.13
				c0.72-2.51,1.33-6.11,0.37-9.42c-1.7-5.87-8.95-4.78-9.57-3.7c-0.61,1.07,0.3,8.7-1.06,11.37
				C298.22,357.46,301.06,357.09,307.17,360.13z"/>
			
				<linearGradient id="SVGID_00000016070557609723544050000002888726399645119655_" gradientUnits="userSpaceOnUse" x1="334.3371" y1="363.5412" x2="327.6239" y2="351.7351">
				<stop  offset="0" style="stop-color:#E4906C"/>
				<stop  offset="1" style="stop-color:#FBC09C"/>
			</linearGradient>
			<path style="fill:url(#SVGID_00000016070557609723544050000002888726399645119655_);" d="M330.58,360.35
				c1.14-1.64,1.97-3.46,1.97-4.7c0-2.16,0.77-4.63,1.54-6.64c0.77-2.01,0-2.47,0-2.47c-1.23-3.09-5.86-2.93-5.86-2.93
				c-5.09,1.39-6.17,8.33-6.64,10.34c-0.14,0.61-0.51,1.31-1.03,2.04C322.7,356.12,329.36,356.84,330.58,360.35z"/>
			
				<linearGradient id="SVGID_00000147206836436755231580000007031429533996385930_" gradientUnits="userSpaceOnUse" x1="343.6101" y1="373.4097" x2="339.9064" y2="362.7616">
				<stop  offset="0" style="stop-color:#E4906C"/>
				<stop  offset="1" style="stop-color:#FBC09C"/>
			</linearGradient>
			<path style="fill:url(#SVGID_00000147206836436755231580000007031429533996385930_);" d="M340.26,371.46l1.07-0.58
				c2.09-2.48,3.63-6.48,4.18-8.14c0.62-1.85,2.16-2.93,1.54-4.78c-0.62-1.85-4.48-3.24-7.25-2.93c-2.78,0.31-5.09,6.02-7.41,8.49
				c-0.16,0.17-0.33,0.33-0.51,0.49l-0.19,0.51C331.7,364.52,341.42,366.14,340.26,371.46z"/>
			
				<linearGradient id="SVGID_00000117660043818584958140000015050285267506055310_" gradientUnits="userSpaceOnUse" x1="345.8074" y1="389.0678" x2="344.6499" y2="377.0297">
				<stop  offset="0" style="stop-color:#E4906C"/>
				<stop  offset="1" style="stop-color:#FBC09C"/>
			</linearGradient>
			<path style="fill:url(#SVGID_00000117660043818584958140000015050285267506055310_);" d="M351.53,378.18
				c1.23-0.77,1.08-3.55,0-5.56c-1.08-2.01-3.7-2.62-7.1-1.7c-3.07,0.84-5.38,4.18-7.39,5.51l-0.25,0.82c0,0,7.64,3.24,4.63,7.87
				c-0.3,0.46-0.5,0.86-0.63,1.2c1.32-0.41,2.36-0.83,2.87-1.2C345.36,383.89,350.3,378.95,351.53,378.18z"/>
			
				<linearGradient id="SVGID_00000177466369331983512760000010921494985638514310_" gradientUnits="userSpaceOnUse" x1="339.0862" y1="401.4179" x2="341.864" y2="393.3159">
				<stop  offset="0" style="stop-color:#E4906C"/>
				<stop  offset="1" style="stop-color:#FBC09C"/>
			</linearGradient>
			<path style="fill:url(#SVGID_00000177466369331983512760000010921494985638514310_);" d="M335.41,398.08
				c0.93,0.09,1.85,0.16,2.69,0.16c3.39,0,6.64-2.16,6.64-2.16c3.24-0.15,2.62-2.93,2.47-4.48c-0.15-1.54-3.09-2.47-4.48-2.31
				c-1.25,0.14-3.12,0.52-5.38,0.6l-0.09,0.09C337.25,389.98,339.33,395.76,335.41,398.08z"/>
			<path class="st7" d="M346.63,381.53c-0.93,1.04-2.55,2.89-7.87,4.4c-5.32,1.5-10.53,1.5-10.53,1.5l1.95,0.58
				c-0.16-0.07-0.26-0.12-0.26-0.12c4.48,0.31,12.04-1.54,13.74-2.78c1.7-1.23,6.64-6.17,7.87-6.94c0.09-0.06,0.18-0.13,0.25-0.21
				C350.23,378.93,347.3,380.78,346.63,381.53z M304.27,364.06l-2.32,1.74c0,0,5.09-1.39,9.38-2.55c3.85-1.04,6.94-3.76,8.21-5.99
				c-1.12,1.26-2.53,2.52-3.81,3.48c-2.47,1.85-9.72,2.62-9.72,2.62s3.24-6.79,1.54-12.65c-0.67-2.31-2.2-3.54-3.85-4.12
				c1.16,0.94,3.99,3.74,3.35,8.09C306.24,360.12,304.27,364.06,304.27,364.06z M325.56,377.6c0,0,4.75,1.04,8.1,0.69
				c3.36-0.35,3.94-1.5,5.32-2.89c0.77-0.77,1.71-1.92,2.4-2.8c-1.93,1.54-3.53,3.57-4.99,4.19c-2.16,0.93-8.64,0.46-8.64,0.46
				s10.34-3.24,12.81-5.56c2.47-2.31,4.32-7.1,4.94-8.95c0.51-1.53,1.65-2.53,1.68-3.88c-0.92,0.86-2.29,2.95-2.99,3.92
				c-0.93,1.27-1.27,4.63-3.24,7.18c-1.97,2.55-6.83,3.82-8.8,4.51C330.19,375.17,325.56,377.6,325.56,377.6z M333.91,361.53
				c-0.51,0.76-1.01,1.45-1.52,1.98c-2.32,2.47-7.72,4.32-7.72,4.32s0.77-2.78,3.09-4.48c2.31-1.7,4.78-5.56,4.78-7.72
				c0-0.45,0.04-0.92,0.1-1.39c-0.44,1.52-1.28,4.07-2.22,5.17c-1.39,1.62-6.13,4.51-7.87,9.72c0,0,4.51-1.04,7.29-2.55
				C332.46,365.19,333.33,362.95,333.91,361.53z M334.94,397.16c-2.08-0.58-5.32-0.81-6.94-0.69c-1.62,0.12-8.45,3.13-12.5,3.82
				c-3.11,0.53-11.45,0.38-15.17,0.29c4.38,0.59,10.23,0.71,13.86,0.6c5.25-0.15,12.19-3.4,14.04-3.7c1.85-0.31,6.48,0.77,9.88,0.77
				c3.39,0,6.64-2.16,6.64-2.16c1.38-0.07,2.06-0.61,2.37-1.33c-1.14,0.72-3.26,0.79-3.26,0.79
				C341.89,397.85,337.02,397.74,334.94,397.16z"/>
			<path class="st18" d="M298.48,347.62c-0.58,0.35,0.12,6.48,0.12,6.48c1.85,0,4.51,0.58,4.51,0.58s0.93-1.04,0.46-4.4
				C303.11,346.93,299.06,347.27,298.48,347.62z M329.96,345.54c-1.62,0.12-2.08,4.63-2.08,4.63l4.4,2.08
				c1.17-2.13,1.69-3.83,1.39-4.86C333.17,345.67,330.98,345.46,329.96,345.54z M346.06,358.98c-0.37-1.69-2.59-2.18-3.66-2.25
				c-1.76-0.11-2.58,4.34-2.58,4.34l4.49,2.38C345.64,361.54,346.28,359.99,346.06,358.98z M349,373.11
				c-1.49-0.73-3.37,2.89-3.37,2.89l2.93,3.53c1.68-1.01,2.75-2.06,2.91-3.02C351.75,374.85,349.92,373.56,349,373.11z
				 M342.59,392.52l0.74,3.44c1.46-0.44,2.29-0.13,2.79-0.67c0.88-0.95,0.24-2.53-0.16-3.21
				C345.31,390.99,342.59,392.52,342.59,392.52z"/>
			<path class="st19" d="M343.73,395.31l-0.54-2.51c0.51-0.25,1.34-0.59,1.91-0.59c0.21,0,0.35,0.05,0.4,0.14
				c0.35,0.59,0.86,1.9,0.22,2.58c-0.14,0.15-0.38,0.18-0.87,0.22C344.54,395.19,344.17,395.22,343.73,395.31L343.73,395.31z
				 M348.67,378.84l-2.41-2.91c0.62-1.08,1.64-2.4,2.32-2.4c0.07,0,0.13,0.02,0.19,0.04c0.85,0.42,2.4,1.55,2.18,2.85
				C350.83,377.11,350.01,377.98,348.67,378.84L348.67,378.84z M344.14,362.77l-3.73-1.98c0.34-1.55,1.12-3.54,1.92-3.54
				c1.08,0.07,2.93,0.53,3.21,1.84C345.64,359.54,345.58,360.6,344.14,362.77L344.14,362.77z M302.84,354.09
				c-0.73-0.14-2.37-0.44-3.78-0.5c-0.25-2.33-0.39-4.9-0.23-5.55c0.16-0.04,0.49-0.11,0.94-0.11c0.88,0,2.97,0.24,3.27,2.42
				C303.35,352.52,303.04,353.64,302.84,354.09L302.84,354.09z M332.05,351.56l-3.61-1.71c0.23-1.67,0.84-3.74,1.56-3.79
				c0.1-0.01,0.2-0.01,0.32-0.01c0.57,0,2.45,0.11,2.85,1.49C333.3,348,333.32,349.13,332.05,351.56L332.05,351.56z"/>
		</g>
	</g>
	<g>
		<g>
			<path class="st0" d="M249.49,378.85c-0.09-0.07-8.74-6.79-14.4-10.75c-7.38-3.68-13.39-4.21-19.63,0.85
				c-5.06,4.11-3.79,13.88-2.94,18.13c2.03,4.34,5.92,9.5,13.28,14.58c0.24,0.17,0.52,0.25,0.8,0.25c0.37,0,0.73-0.14,1-0.42
				c0.13-0.13,12.68-12.9,21.92-20.44c0.33-0.27,0.52-0.68,0.52-1.1C250.03,379.51,249.83,379.11,249.49,378.85z"/>
			<path class="st3" d="M226.6,400.5c0,0,12.62-12.87,22.03-20.55c0,0-8.91-6.93-14.6-10.89c-5.69-3.96-12.13-5.94-18.32-0.5
				C209.52,374.01,209.02,388.37,226.6,400.5z"/>
			<path class="st2" d="M228.45,395.06c-0.25-0.62-11.39-12.87-13.49-13.37c-1.75-0.41-1.7,2.67-1.64,3.73
				c1.81,4.41,5.35,9.12,11.23,13.59C225.55,398.19,228.66,395.58,228.45,395.06z"/>
			<path class="st9" d="M232,395.13c-17.38-10.06-18.82-22.35-18.89-23.06c-1.66,3.47-1.9,8.2,0.22,13.35
				c-0.07-1.06-0.11-4.14,1.64-3.73c2.1,0.5,13.24,12.75,13.49,13.37c0.21,0.52-2.91,3.14-3.9,3.96c0.66,0.5,1.33,1,2.04,1.49
				C226.6,400.5,228.78,398.28,232,395.13z"/>
		</g>
		
			<linearGradient id="SVGID_00000090280462893857739370000015851705777135411121_" gradientUnits="userSpaceOnUse" x1="233.0006" y1="374.6904" x2="240.922" y2="380.9614">
			<stop  offset="0" style="stop-color:#EF4334"/>
			<stop  offset="1" style="stop-color:#ED2224"/>
		</linearGradient>
		<path style="fill:url(#SVGID_00000090280462893857739370000015851705777135411121_);" d="M218.43,368.82c0,0,5.45,1.24,10.4,4.46
			c4.95,3.22,15.1,7.67,15.1,7.67l2.23-0.99C246.15,379.96,225.36,359.41,218.43,368.82z"/>
	</g>
	<g>
		<path class="st0" d="M345.54,191.46c-0.25-0.2-0.56-0.3-0.86-0.3c-0.31,0-0.62,0.1-0.88,0.31l-0.07,0.06
			c-1.14,0.9-11.79,8.83-33.74,8.83c-2.26,0-4.59-0.09-6.95-0.26c2.96-1.49,6.97-3.8,11.3-7.07c7.9-5.97,18.31-16.41,23.03-32.25
			c0.19-0.63-0.09-1.3-0.66-1.62c-0.21-0.12-0.45-0.18-0.68-0.18c-0.39,0-0.77,0.16-1.04,0.47c-0.01,0.01-0.16,0.18-0.44,0.47
			c-0.78,0.81-2.44,2.47-4.88,4.48c0,0-0.07,0.06-0.07,0.06c-0.23,0.19-0.46,0.38-0.71,0.58l-0.1,0.08l-0.1,0.08
			c-0.27,0.21-0.53,0.42-0.82,0.64l-0.17,0.13c-0.25,0.2-0.52,0.39-0.77,0.58l-0.14,0.1l-0.04,0.03c-0.3,0.22-0.61,0.45-0.94,0.68
			l-0.22,0.16c-0.33,0.23-0.66,0.47-1.04,0.73c-0.33,0.23-0.68,0.46-1.03,0.69l-0.17,0.11l-0.06,0.04c-0.36,0.23-0.72,0.46-1.09,0.7
			l-0.09,0.05l-0.1,0.06c-0.34,0.21-0.69,0.42-1.06,0.64l-0.18,0.1c-0.39,0.23-0.78,0.45-1.19,0.68l-0.26,0.15
			c-0.41,0.23-0.83,0.46-1.27,0.69c-0.42,0.22-0.86,0.44-1.28,0.65l-0.18,0.09l-0.11,0.06c-0.43,0.21-0.87,0.42-1.32,0.62
			l-0.12,0.05l-0.11,0.05c-0.41,0.19-0.83,0.37-1.26,0.55l-0.21,0.09c-0.46,0.19-0.93,0.38-1.4,0.57l-0.15,0.06l-0.15,0.06
			c-0.49,0.19-0.98,0.37-1.49,0.55c-0.49,0.17-0.99,0.34-1.49,0.49l-0.2,0.06l-0.14,0.04c-0.5,0.15-1,0.3-1.51,0.45l-0.26,0.07
			c-0.47,0.13-0.94,0.25-1.42,0.36l-0.1,0.03l-0.15,0.04c-0.52,0.12-1.05,0.24-1.59,0.34l-0.34,0.07c-0.55,0.11-1.1,0.21-1.66,0.29
			c-3.86,0.6-7.8,0.91-11.72,0.91c-6.97,0-12.82-0.97-16.89-1.93c7.57-1.47,19.91-5.49,28.93-16.51c0.42-0.51,0.42-1.24,0.01-1.76
			c-0.27-0.35-0.68-0.53-1.1-0.53c-0.21,0-0.42,0.05-0.62,0.14c-0.14,0.07-14.16,6.81-37.05,7.53c-15.44,0.49-27.61,3.16-34.32,5
			c5.33-4.84,14.83-12.53,23.31-14.61c0.75-0.19,1.21-0.94,1.03-1.7c-0.16-0.64-0.73-1.07-1.36-1.07c-0.11,0-0.22,0.01-0.33,0.04
			c-0.96,0.23-23.71,5.76-33.58,9.46l-0.87,0.33l-0.22,0.09l-0.09,0.04c-0.2,0.07-0.4,0.15-0.59,0.23l-0.4,0.16l-0.23,0.09
			l-0.3,0.12l-0.43,0.17l-0.43,0.17l-0.09,0.03l-0.47,0.19l-0.11,0.05l-0.38,0.16l-0.5,0.21l-0.15,0.07l-0.26,0.11
			c-0.36,0.15-0.73,0.31-1.09,0.47l-0.1,0.04l-0.29,0.13l-0.61,0.27l-0.08,0.04l-0.3,0.14l-0.62,0.29
			c-0.12,0.06-0.25,0.11-0.36,0.17c-0.22,0.1-0.45,0.21-0.67,0.31l-0.15,0.07l-0.15,0.07l-0.73,0.36l-0.07,0.04l-0.05,0.03
			c-0.9,0.44-1.79,0.91-2.69,1.39c0,0-0.04,0.02-0.05,0.03c-0.27,0.15-0.54,0.29-0.8,0.44l-0.07,0.04l-0.13,0.07
			c-0.26,0.15-0.52,0.3-0.77,0.44l-0.09,0.05l-0.1,0.06c-0.27,0.15-0.53,0.31-0.78,0.47l-0.11,0.07c-1.23,0.75-2.4,1.52-3.51,2.33
			c-0.26,0.19-0.52,0.38-0.77,0.57l-0.12,0.09c-0.25,0.19-0.5,0.38-0.75,0.58l-0.05,0.04l-0.04,0.04c-1.38,1.11-2.63,2.26-3.72,3.45
			l-0.06,0.07c-0.2,0.22-0.4,0.44-0.59,0.67c-0.05,0.05-0.09,0.11-0.12,0.14c-0.19,0.22-0.37,0.45-0.55,0.67l-0.05,0.07l-0.05,0.06
			c-0.38,0.48-0.73,0.97-1.06,1.46c0.09-3.7,1.33-9.6,6.72-16.74c0.42-0.56,0.37-1.34-0.13-1.84c-0.27-0.27-0.63-0.41-0.99-0.41
			c-0.3,0-0.59,0.09-0.84,0.28c0,0-0.09,0.07-0.26,0.2l-0.25,0.2c-0.09,0.07-0.2,0.16-0.31,0.25l-0.04,0.04l-0.22,0.18l-0.16,0.13
			l-0.05,0.04c-0.13,0.11-0.27,0.23-0.41,0.35l-0.09,0.08c-0.15,0.13-0.31,0.27-0.47,0.41l-0.1,0.09c-0.17,0.15-0.34,0.31-0.52,0.47
			l-0.1,0.09c-0.19,0.17-0.38,0.35-0.58,0.53l-0.08,0.08c-0.21,0.2-0.42,0.4-0.64,0.6l-0.06,0.06c-0.22,0.21-0.44,0.43-0.65,0.63
			l-0.04,0.04c0,0-0.04,0.04-0.04,0.04c-0.23,0.23-0.46,0.46-0.69,0.7l-0.06,0.06l-0.06,0.06c-0.23,0.24-0.46,0.48-0.7,0.73
			l-0.07,0.07l-0.06,0.07c-0.24,0.25-0.47,0.51-0.72,0.78l-0.13,0.15c-0.24,0.27-0.48,0.54-0.73,0.82l-0.06,0.07l-0.07,0.08
			c-0.25,0.28-0.49,0.57-0.74,0.87l-0.12,0.15c-0.25,0.31-0.51,0.61-0.75,0.92l-0.06,0.07l-0.04,0.06
			c-0.26,0.33-0.53,0.67-0.79,1.01l-0.04,0.06c-0.26,0.34-0.52,0.69-0.78,1.05c0,0.01-0.03,0.04-0.03,0.04l-0.04,0.06
			c-0.25,0.35-0.5,0.71-0.77,1.11l-0.09,0.13c-0.24,0.36-0.48,0.72-0.72,1.1l-0.06,0.1l-0.05,0.08c-0.23,0.37-0.46,0.74-0.68,1.12
			l-0.05,0.09l-0.07,0.11c-0.22,0.38-0.44,0.76-0.65,1.14l-0.11,0.21c-0.22,0.4-0.43,0.8-0.62,1.19l-0.06,0.12l-0.03,0.07
			c-0.21,0.42-0.41,0.84-0.61,1.28l-0.05,0.12c-0.2,0.45-0.4,0.9-0.59,1.4c-0.18,0.46-0.36,0.92-0.54,1.43l-0.03,0.07
			c-0.16,0.46-0.31,0.92-0.46,1.42l-0.04,0.14c-0.13,0.44-0.26,0.91-0.37,1.37l-0.06,0.23c-0.11,0.45-0.21,0.92-0.3,1.38l-0.02,0.12
			l-0.02,0.12c-0.09,0.48-0.16,0.96-0.23,1.42l-0.03,0.22c-0.06,0.43-0.1,0.83-0.13,1.23c-1.86-2.4-4.18-6.2-4.18-10.24
			c0-0.69-0.51-1.28-1.19-1.39c-0.07-0.01-0.14-0.02-0.21-0.02c-0.6,0-1.15,0.39-1.34,0.98c-0.11,0.35-2.48,8.09,0.36,14.91
			c-4.91,1.64-19.6,7.5-26.03,20.79c-0.33,0.68-0.06,1.49,0.6,1.84c0.21,0.11,0.44,0.17,0.66,0.17c0.48,0,0.95-0.25,1.21-0.68
			c0.04-0.06,3.09-4.97,11.79-7.34c-5.39,5.77-15.3,18.57-16.3,35.38c-0.02,0.42-0.04,0.84-0.06,1.3c0,0,0,0.05,0,0.05
			c-0.01,0.44-0.02,0.88-0.02,1.33c0,0.76,0.61,1.38,1.37,1.4h0.04c0.74,0,1.36-0.58,1.4-1.33c0.02-0.36,0.52-7.88,8.57-14.54
			c-2.58,6.43-6.28,18.54-4.18,31.29c0.02,0.16,0.08,0.31,0.16,0.45c0.27,0.48,6.67,11.94,17.83,22.62
			c12.34,11.79,16.89,19.8,13.9,24.47c-0.32,0.5-0.29,1.14,0.07,1.61c0.27,0.35,0.69,0.55,1.11,0.55c0.14,0,0.28-0.02,0.42-0.06
			c0.15-0.05,2.84-0.92,4.95-3.64c0.68,2.34,1.42,5.79,1.15,9.12c-0.05,0.58,0.27,1.13,0.8,1.38c0.19,0.09,0.4,0.13,0.6,0.13
			c0.35,0,0.7-0.13,0.97-0.39c0.2-0.19,4.13-4.02,4.89-10.15c1.88,2.48,4.25,5.97,4.92,8.5c0.16,0.62,0.73,1.05,1.36,1.05
			c0.06,0,0.12,0,0.18-0.01c0.7-0.09,1.22-0.69,1.22-1.39c0-0.3-0.02-5.4-1.3-11.44c0.79,0.9,1.7,1.88,2.73,2.9
			c3.49,2.83,13.13,10.21,20.69,12.01l4.06,0.24c2.27-3.32,4.79-6.34,6.34-7.42l1.08,7.87l0.9,0.05l-0.8,0.66l0.55,4.04
			c0,0,20.15,8.19,35.71,6.58c4.66-0.62,7.99-1.95,9.32-3.78c2.13-2.92,4.02-7.61,4.79-9.64c0.04-0.1,6.76-0.73,7.55-1.02
			c1.81-0.67,3.69-2.13,4.02-3.54c0.06-0.26,1.08-4.01,0.86-4c0,0,0.1-0.01,0.1-0.01l0.07,0l0.08-0.01
			c0.39-0.03,0.77-0.08,1.13-0.16l0.09-0.02c0.11-0.02,0.21-0.05,0.36-0.09l0.05-0.01l0.08-0.02c0.11-0.03,0.21-0.07,0.3-0.09
			c0.06-0.02,0.12-0.04,0.2-0.07c0.11-0.04,0.22-0.08,0.3-0.12c0.06-0.02,0.11-0.05,0.17-0.08c0.11-0.05,0.22-0.11,0.33-0.17
			c1.03-0.61,1.69-1.52,1.9-2.64c0.04-0.22,0.07-0.43,0.09-0.61c0.23-2.24-0.67-4.21-0.45-6.44c0.25-2.49,0.94-4.91,1.13-7.4
			l0.07-0.04c0,0,0.06-0.04,0.07-0.05c3.28-2.31,11.32-8.36,15.03-14.61c0.14-0.24,0.28-0.49,0.41-0.72
			c0.03-0.06,0.07-0.13,0.1-0.19l0.04-0.08l0.05-0.09c0.07-0.14,0.14-0.28,0.21-0.42c0.08-0.16,0.14-0.32,0.21-0.48l0.02-0.05
			l0.03-0.06c0.03-0.06,0.05-0.12,0.08-0.18c0.17-0.43,0.14-0.95-0.11-1.34c-2.24-3.42-5.91-6.88-9.79-10.54
			c-7.07-6.67-14.39-13.56-14.1-20.94c0.36-9.06-1.62-17.26-5.91-24.46c7.8,3.49,15.61,5.26,23.28,5.26
			c5.81,0,11.59-1.03,17.18-3.05c0.68-0.25,1.06-0.97,0.88-1.67c-0.16-0.63-0.73-1.06-1.36-1.06c-0.07,0-0.14,0.01-0.21,0.02
			c-0.03,0.01-3.04,0.45-7.41,0.45c-5.05,0-11.92-0.59-18.33-3.08c3.4-0.45,8.16-1.35,13.35-3.1c13.17-4.46,22.68-12.41,27.5-23
			C346.22,192.56,346.05,191.86,345.54,191.46z"/>
		<g>
			<g>
				<path class="st6" d="M319.69,279.08c-6.18-9.45-24.61-20.01-24.11-32.3c0.66-16.5-6.93-26.73-12.21-32.02
					c-5.28-5.28-32.68-20.79-32.68-20.79s-14.52,5.94-15.51,6.27c-0.99,0.33-34.33,31.36-34.33,31.36s-6.93,36.31-5.94,36.97
					c0.99,0.66-1.32,24.09-1.32,24.09l3.96,9.9c0,0,8.58,16.5,35.98,26.4c27.39,9.9,44.23,6.6,46.87,2.97
					c2.64-3.63,4.95-10.23,4.95-10.23s8.25,0.33,10.23-2.31c1.98-2.64,0.33-6.27,0.33-6.27s5.94,0.66,6.6-2.31
					c0.48-2.18-0.33-4.42-0.11-6.66c0.28-2.77,0.74-5.52,0.93-8.3C304.6,294.97,316.64,286.72,319.69,279.08z"/>
				
					<linearGradient id="SVGID_00000027583657867671299740000012725606179194107557_" gradientUnits="userSpaceOnUse" x1="286.0703" y1="324.7672" x2="280.13" y2="324.107">
					<stop  offset="0" style="stop-color:#E4906C"/>
					<stop  offset="1" style="stop-color:#FAB391"/>
				</linearGradient>
				<path style="fill:url(#SVGID_00000027583657867671299740000012725606179194107557_);" d="M281.98,329.38
					c1.92-3.53,3.37-7.68,3.37-7.68s1.69,0.07,3.73-0.1l-8.76-2.54C280.31,319.06,282.12,325.08,281.98,329.38z"/>
				<path class="st18" d="M221.15,287.37c-0.5-19.31,13.86-51.49,13.86-51.49l10.2-39.68c-4.23,1.72-9.45,3.84-10.03,4.03
					c-0.99,0.33-34.33,31.36-34.33,31.36s-6.93,36.31-5.94,36.97c0.99,0.66-1.32,24.09-1.32,24.09l3.96,9.9
					c0,0,8.58,16.5,35.98,26.4c15.54,5.62,27.67,6.98,35.75,6.45c-0.04-0.01-0.07-0.01-0.1-0.02
					C227.09,328.47,221.65,306.68,221.15,287.37z"/>
				<path class="st22" d="M314.58,274.19c-1.24-1.55-2.97-3.63-5.31-6.2c-4,3.37-4.75,7.25-3.25,9.44
					C307.62,278.29,310.54,278.61,314.58,274.19z"/>
				
					<linearGradient id="SVGID_00000127722128259215769340000002297337946596067252_" gradientUnits="userSpaceOnUse" x1="281.3754" y1="210.0358" x2="265.533" y2="246.3412">
					<stop  offset="0" style="stop-color:#E4906C"/>
					<stop  offset="1" style="stop-color:#FBC09C"/>
				</linearGradient>
				<path style="fill:url(#SVGID_00000127722128259215769340000002297337946596067252_);" d="M247.72,263.94c0,0-4.95-20.79,0-29.7
					c4.95-8.91,21.45-15.18,21.45-15.18l8.25-0.33c0,0,8.91,23.43-1.32,56.44L247.72,263.94z"/>
				<path class="st24" d="M248.53,263.95c-0.14,0-0.28-0.04-0.41-0.11c-0.27-0.16-0.43-0.45-0.42-0.76
					c0.01-0.19,1.1-19.39,22.66-33.18c0.14-0.09,0.29-0.13,0.45-0.13c0.08,0,0.16,0.01,0.24,0.04c0.23,0.07,0.42,0.24,0.53,0.46
					l2.65,5.75c0.11,0.24,0.11,0.51-0.01,0.74l-7.15,14.9c-0.07,0.13-0.16,0.25-0.28,0.33l-17.81,11.83
					C248.85,263.9,248.69,263.95,248.53,263.95L248.53,263.95z"/>
				<path class="st25" d="M248.51,263.13c0,0,0.85-18.81,22.3-32.5l2.65,5.75l-7.13,14.91L248.51,263.13z"/>
				<path class="st7" d="M250.69,193.97c0,0-14.52,5.94-15.51,6.27c-0.99,0.33-34.33,31.36-34.33,31.36s-1.76,9.23-3.38,18.46
					l4.61,0.28c-0.6,0.51-1.11,0.98-1.48,1.39c-1.11,1.22-2.81,3.43-4.37,5.61c-1.93,2.69-3.66,5.34-3.79,6.03l2.62,1.85l11.74,8.3
					c0,0,6.93,4.46,9.41,9.41c0,0,0.74-7.92-0.25-13.12c0,0,2.97,2.72,3.96,5.45c0,0,2.23-11.63-1.49-19.31c0,0,2.23,0.25,5.94,0.74
					c0,0-3.72-3.53-4.89-7.1c5.44-3.37,17.5-11.53,23.7-21.12c4.81-7.43,7.38-15.88,8.69-21.58c6.16,0.82,27.05,4.53,39.14,18.29
					c-2.36-4.57-5.24-8-7.64-10.41C278.09,209.48,250.69,193.97,250.69,193.97z M306.8,281.68c-4.69,0.25-11.99,7.07-3.47,14.2
					c0-0.01,0-0.02,0-0.03c1.27-0.88,13.27-9.1,16.34-16.72C318.23,280.08,310.75,281.47,306.8,281.68z M207.78,295.3
					c-3.22-12.87-7.99-18.46-12.77-20.34c-0.38,7.14-1.43,17.7-1.43,17.7l3.96,9.9c0,0,8.58,16.5,35.98,26.4
					c2.73,0.99,5.36,1.84,7.87,2.58C229.35,326.4,212.91,315.81,207.78,295.3z"/>
				<g>
					<path class="st26" d="M296.53,317.95c0.57-2.32,0.42-4.83,0.42-4.83s0.76,0.1,1.72,0.05l-2.69-1.53c0,0-11.59-1.32-12.43-1.32
						c-0.84,0-7.96-1.98-8.38-1.98c-0.42,0-7.12-2.48-7.12-2.48L258,300.91c0,0,3.94,3.9,10.26,8.14
						C274.96,313.11,285.49,318.71,296.53,317.95z"/>
					<path class="st27" d="M256.32,299.75c14.66,13.04,40.76,13.37,40.76,13.37l0.07,0.02c0.95,0.08,4.89,0.28,5.38-2.33
						c0.06-0.3,0.09-0.6,0.11-0.89C271.69,311.53,256.32,299.75,256.32,299.75z"/>
					<path class="st28" d="M281.06,310.73c-8.61-2.03-17.2-5.63-24.73-11c-0.02-0.02-0.04,0.02-0.02,0.04
						c7.32,6.28,15.6,10.15,24.43,12.33c5.22,1.29,10.95,2.27,16.53,2.18c-0.15-0.7-0.33-1.16-0.33-1.16s2.69,0.35,4.35-0.62
						C294.5,312.53,287.86,312.33,281.06,310.73z"/>
				</g>
				
					<radialGradient id="SVGID_00000124870806194940807300000014056405868159860910_" cx="162.6014" cy="113.6365" r="5.9144" gradientTransform="matrix(0.4951 0 0 0.4951 176.8751 243.8571)" gradientUnits="userSpaceOnUse">
					<stop  offset="0" style="stop-color:#A54037"/>
					<stop  offset="1" style="stop-color:#E4906C"/>
				</radialGradient>
				<path style="fill:url(#SVGID_00000124870806194940807300000014056405868159860910_);" d="M253.5,301.57c0,0,2.97-2.31,7.76-2.64
					C261.25,298.93,255.48,297.44,253.5,301.57z"/>
				<g>
					<path class="st30" d="M247.29,234.56c0,0,13.29-12.23,24.72-12.76c0,0,6.11,0.27,6.91-2.66c0.8-2.92-3.46-3.99-7.18-3.46
						C268.03,216.22,255,221.27,247.29,234.56z"/>
					<path class="st31" d="M258.45,223.39c0,0,6.65-3.06,10.37-3.32c3.72-0.27,8.51-0.4,8.38-2.66
						C277.06,215.15,267.76,215.42,258.45,223.39z"/>
				</g>
			</g>
			<g>
				<path class="st32" d="M206.3,268.81c0,0,7.43,6.68,8.42,11.14c0,0,0.25-12.13-1.98-16.59c0,0,4.21,3.47,6.19,7.18
					c0,0,0.49-12.87-5.45-19.31c0,0,3.47,2.72,8.42,4.21c0,0-6.19-4.21-6.93-12.38c0,0,13.61-7.67,16.83-15.1
					c0,0-2.72,9.16-8.66,13.86c0,0,23.76-6.44,27.72-39.61c0,0,14.85,2.48,28.47,11.88c13.61,9.41,31.93,16.34,51.74,9.16
					c0,0-17.82,2.72-31.19-4.95c0,0,33.42-0.74,44.8-25.74c0,0-14.85,12.38-47.03,8.42c0,0,29.46-10.64,38.37-40.6
					c0,0-13.86,15.6-34.41,18.81c-20.55,3.22-35.65-2.97-35.65-2.97s21.29-0.5,34.66-16.83c0,0-14.11,6.93-37.63,7.67
					c-23.52,0.74-39.61,6.68-39.61,6.68s15.1-15.84,28.22-19.06c0,0-23.52,5.69-33.42,9.41c-9.9,3.71-25.25,10.4-29.21,21.29
					c0,0-3.47-9.16,6.44-22.28c0,0-19.8,14.85-18.81,33.42c0,0-6.93-6.44-6.93-13.86c0,0-2.72,8.66,0.99,15.35
					c0,0-19.31,5.2-26.73,20.55c0,0,4.21-7.18,17.33-8.91c0,0-19.31,16.58-19.31,40.35c0,0,0.5-10.89,13.37-18.57
					c0,0-9.16,17.08-6.19,35.15c0,0,6.44,11.63,17.58,22.28c11.14,10.64,18.07,20.05,14.11,26.24c0,0,3.96-1.24,5.69-5.69
					c0,0,2.72,6.44,2.23,12.62c0,0,5.45-5.2,4.46-13.12c0,0,6.44,7.43,7.67,12.13c0,0,0-10.4-3.71-19.06c0,0,2.72,1.98,7.92,2.23
					c0,0-6.93-4.21-7.18-9.16C197.64,290.1,206.3,268.81,206.3,268.81z"/>
				<path class="st33" d="M203.33,184.65c0,0,19.56-11.14,34.66-13.62c15.1-2.47,26.73-1.48,37.63-2.23c0,0-14.11,6.44-30.2,6.19
					c0,0,16.83,5.2,33.42,6.44c15.49,1.16,38.11-0.93,51.72-15.94c-5.87,4.85-16.1,11.7-28.95,13.72
					c-20.55,3.22-35.65-2.97-35.65-2.97s21.29-0.5,34.66-16.83c0,0-14.11,6.93-37.63,7.67c-23.52,0.74-39.61,6.68-39.61,6.68
					s15.1-15.84,28.22-19.06c0,0-23.52,5.69-33.42,9.41c-8.42,3.16-20.77,8.47-26.72,16.68c3.75-3.25,15.74-12.51,33.4-14.95
					C224.87,165.83,210.01,173.26,203.33,184.65z"/>
				
					<linearGradient id="SVGID_00000000903801007652858270000002602870717407129481_" gradientUnits="userSpaceOnUse" x1="244.0896" y1="227.7072" x2="178.742" y2="179.439">
					<stop  offset="0" style="stop-color:#7D3E1C"/>
					<stop  offset="1" style="stop-color:#995A36"/>
				</linearGradient>
				<path style="fill:url(#SVGID_00000000903801007652858270000002602870717407129481_);" d="M176.59,196.53
					c0,0-6.93-6.44-6.93-13.86c0,0-2.72,8.66,0.99,15.35c0,0-19.31,5.2-26.73,20.55c0,0,4.21-7.18,17.33-8.91
					c0,0-19.31,16.58-19.31,40.35c0,0,0.5-10.89,13.37-18.57c0,0-9.16,17.08-6.19,35.15c0,0,6.44,11.63,17.58,22.28
					c11.14,10.64,18.07,20.05,14.11,26.24c0,0,3.96-1.24,5.69-5.69c0,0,2.72,6.44,2.23,12.62c0,0,5.45-5.2,4.46-13.12
					c0,0,6.44,7.43,7.67,12.13c0,0,0-10.4-3.71-19.06c0,0,2.72,1.98,7.92,2.23c0,0-6.93-4.21-7.18-9.16
					c-0.25-4.95,8.42-26.24,8.42-26.24s7.43,6.68,8.42,11.14c0,0,0.25-12.13-1.98-16.59c0,0,4.21,3.47,6.19,7.18
					c0,0,0.49-12.87-5.45-19.31c0,0,3.47,2.72,8.42,4.21c0,0-6.19-4.21-6.93-12.38c0,0,13.61-7.67,16.83-15.1
					c0,0-2.72,9.16-8.66,13.86c0,0,23.76-6.44,27.72-39.61c0,0,14.85,2.48,28.47,11.88c13.61,9.41,31.93,16.34,51.74,9.16
					c0,0-17.82,2.72-31.19-4.95c0,0,33.42-0.74,44.8-25.74c0,0-14.85,12.38-47.03,8.42c0,0,29.46-10.64,38.37-40.6
					c0,0-0.17,0.18-0.47,0.5c-0.01,0.03-0.02,0.05-0.03,0.07c-9.57,29.38-52.81,42.58-67.66,34.66
					c-14.85-7.92-41.59-8.58-41.59-8.58c17.16-6.27,37.3-1.98,37.3-1.98s-16.83-5.94-37.96-1.65
					c-21.12,4.29-30.03,16.17-36.31,15.51c-6.27-0.66-3.3-12.54-3.3-12.54c-2.64,3.63-5.61,13.86-5.61,13.86
					s-4.29-20.79,14.85-36.97l-0.07,0.01C192.97,165.01,175.67,179.14,176.59,196.53z"/>
				
					<linearGradient id="SVGID_00000022548585403924376560000014393859962477490317_" gradientUnits="userSpaceOnUse" x1="278.746" y1="217.2381" x2="205.1442" y2="217.2381">
					<stop  offset="0" style="stop-color:#7D3E1C"/>
					<stop  offset="1" style="stop-color:#995A36"/>
				</linearGradient>
				<path style="fill:url(#SVGID_00000022548585403924376560000014393859962477490317_);" d="M168.51,238.2
					c0,0,32.35,3.3,52.81-22.77c0,0-6.93,16.83-12.54,23.1c0,0,19.14-5.94,27.72-30.36c0,0,0.66,12.87-1.32,19.8
					c0,0,9.24-7.26,11.55-32.01c0,0-3.63,18.81-7.59,21.78c0,0-0.33-9.9-1.32-18.15c0,0-7.26,21.12-16.5,25.08
					c0,0,2.31-6.93,3.63-16.83C224.95,207.83,204.81,238.2,168.51,238.2z"/>
				<path class="st31" d="M155.31,231.43c0,0-9.16,17.08-6.19,35.15c0,0,6.44,11.63,17.58,22.28
					c11.14,10.64,18.07,20.05,14.11,26.24c0,0,3.96-1.24,5.69-5.69c0,0,2.72,6.44,2.23,12.62c0,0,5.45-5.2,4.46-13.12
					c0,0,6.44,7.43,7.67,12.13c0,0,0-10.4-3.71-19.06c0,0,2.72,1.98,7.92,2.23c0,0-6.93-4.21-7.18-9.16
					c-0.25-4.95,8.42-26.24,8.42-26.24s7.43,6.68,8.42,11.14c0,0,0.25-12.13-1.98-16.59c0,0,4.21,3.47,6.19,7.18
					c0,0,0.49-12.87-5.45-19.31c0,0,3.47,2.72,8.42,4.21c0,0-6.19-4.21-6.93-12.38c0,0,13.61-7.67,16.83-15.1
					c0,0-2.72,9.16-8.66,13.86c0,0,23.76-6.44,27.72-39.61c0,0,14.85,2.48,28.47,11.88c13.61,9.41,31.93,16.34,51.74,9.16
					c0,0-17.82,2.72-31.19-4.95c0,0,33.42-0.74,44.8-25.74c0,0-0.03,0.03-0.08,0.06c-11.42,22.15-49.4,24.74-60.57,18.17
					c-11.22-6.6-34.33-13.53-34.33-13.53c-1.32,24.75-18.15,37.63-18.15,37.63c1.98-5.28,1.65-13.2,1.65-13.2
					c-9.9,20.46-40.27,23.76-40.27,23.76c10.56-3.3,18.15-14.85,18.15-14.85c-28.05,16.17-53.8,9.57-53.8,9.57
					c2.64-9.24,12.21-20.13,12.21-20.13c-21.6,8.03-26.47,22.8-27.48,27.35c-0.05,0.86-0.08,1.73-0.08,2.61
					C141.94,250,142.43,239.1,155.31,231.43z"/>
				<path class="st30" d="M214.96,243.06c0,0,13.61-7.67,16.83-15.1c0,0-2.72,9.16-8.66,13.86c0,0,23.76-6.44,27.72-39.61
					c0,0,14.85,2.48,28.47,11.88c13.61,9.41,31.93,16.34,51.74,9.16c0,0-17.82,2.72-31.19-4.95c0,0,33.42-0.74,44.8-25.74
					c0,0-0.03,0.03-0.08,0.06c-11.42,22.15-49.4,24.74-60.57,18.17c-11.22-6.6-34.33-13.53-34.33-13.53
					c-1.32,24.75-18.15,37.63-18.15,37.63c1.98-5.28,1.65-13.2,1.65-13.2c-9.9,20.46-40.27,23.76-40.27,23.76
					c10.56-3.3,18.15-14.85,18.15-14.85c-28.05,16.17-53.8,9.57-53.8,9.57c2.64-9.24,12.21-20.13,12.21-20.13
					c-21.6,8.03-26.47,22.8-27.48,27.35c-0.05,0.86-0.08,1.73-0.08,2.61c0,0,0.5-10.89,13.37-18.57c0,0-9.16,17.08-6.19,35.15
					c0,0,6.44,11.63,17.58,22.28c11.14,10.64,18.07,20.05,14.11,26.24c0,0,3.96-1.24,5.69-5.69c0,0,2.72,6.44,2.23,12.62
					c0,0,5.45-5.2,4.46-13.12c0,0,6.44,7.43,7.67,12.13c0,0,0-10.4-3.71-19.06c0,0,2.72,1.98,7.92,2.23c0,0-6.93-4.21-7.18-9.16
					c-0.25-4.95,8.42-26.24,8.42-26.24s7.43,6.68,8.42,11.14c0,0,0.01-0.42,0.01-1.13c0-0.01,0-0.02-0.01-0.03
					c-4.29-14.85-18.15-20.46-18.15-20.46l1.47,9.86c-4.68-5.57-9.05-10.15-11.04-10.52c-5.28-0.99-15.51,10.23-10.23,26.73
					c3.79,11.84,10.8,17.73,14.47,20.12c-3.97-2.27-12.04-7.01-17.11-10.88c-6.93-5.28-12.87-29.04-12.87-29.04
					c-2.31,6.93,0,14.19,0,14.19c-4.99-5.94-5.87-16.66-5.98-22.21c3.8-4.38,9.44-8.92,17.2-10.47c16.5-3.3,26.07-6.27,26.07-6.27
					s-11.55,7.92-17.82,8.25c0,0,17.16,1.98,30.7-3.63c0,0,4.38,7.98,10.18,10.75C220.36,254.26,215.61,250.16,214.96,243.06z"/>
			</g>
			<g>
				<path class="st1" d="M247.64,263.42c0,0,10.37,7.5,25.82,11.04c0,0,7.5-16.33,0.66-38.62
					C274.13,235.83,256.03,240.91,247.64,263.42z"/>
				<g>
					<path class="st4" d="M274.13,235.83c0,0-1.38,0.39-3.55,1.42c-4.38,24.44,2.88,37.21,2.88,37.21S280.97,258.12,274.13,235.83z"
						/>
					<path class="st36" d="M270.58,237.25c-4.38,24.44,2.88,37.21,2.88,37.21s0.23-0.5,0.56-1.41c-1.53-4.26-5.56-17.73-2.1-33.9
						c0,0,1.45-0.81,2.78-1.34c-0.18-0.65-0.37-1.31-0.57-1.97C274.13,235.83,272.75,236.22,270.58,237.25z"/>
					<path class="st0" d="M272.4,270.21c1.47-0.07,2.34-6.9,1.94-15.26c-0.4-8.36-1.91-15.08-3.38-15.01
						c-0.38,0.02-0.72,0.49-1.01,1.31c-1.81,13.4-0.08,22.86,1.53,28.17C271.79,269.94,272.1,270.23,272.4,270.21z"/>
					<path class="st1" d="M275.56,246.51c0.23,3.28-0.42,6-1.45,6.08c-1.03,0.07-2.06-2.53-2.29-5.81c-0.23-3.28,0.42-6,1.45-6.08
						C274.3,240.63,275.33,243.23,275.56,246.51z"/>
				</g>
				<path class="st0" d="M275.97,235.68c0,0-17.36,3.53-28.54,27.96c0,0,4.12-20.6,27.07-30.6L275.97,235.68z"/>
				<path class="st0" d="M272.48,236.71c0,0,3.46,1.49,7.26,0c0,0-3.3-1.32-5.28-3.47L272.48,236.71z"/>
			</g>
			<g>
				
					<linearGradient id="SVGID_00000067229482989476881880000006878003508592794504_" gradientUnits="userSpaceOnUse" x1="186.2857" y1="260.2119" x2="189.2562" y2="266.8954">
					<stop  offset="0" style="stop-color:#FAD8C1"/>
					<stop  offset="1" style="stop-color:#FBC09C"/>
				</linearGradient>
				<path style="fill:url(#SVGID_00000067229482989476881880000006878003508592794504_);" d="M208.28,274.01
					c-4.46-14.36-24.03-25.62-29.21-5.94c-4.95,18.81,15.35,33.67,30.7,27.72c0,0,1.98-3.47,2.48-7.92
					C212.74,283.41,208.28,274.01,208.28,274.01z"/>
				<g>
					<path class="st7" d="M200.11,282.42c-3.96-0.99-1.98,4.95-1.98,4.95c-4.46-2.23-2.72-7.18-2.72-7.18s-5.69-5.45-9.9-4.21
						c-3.08,0.91-0.85,6.73,0.56,9.78c0.81,0.92,1.77,1.8,2.9,2.6c7.67,5.45,8.91-0.49,13.62-0.25c4.7,0.25,6.68,1.73,6.68,1.73
						l-0.5-1.98C208.78,287.87,204.07,283.41,200.11,282.42z"/>
					<path class="st38" d="M185.51,275.99c4.21-1.24,9.9,4.21,9.9,4.21s-1.73,4.95,2.72,7.18c0,0-1.98-5.94,1.98-4.95
						c3.96,0.99,8.66,5.45,8.66,5.45c-2.48-6.44-20.79-23.27-27.23-13.86c0,0-0.18,6.47,4.52,11.76
						C184.65,282.72,182.42,276.9,185.51,275.99z"/>
				</g>
				<path class="st7" d="M208.42,273.97c-2.01-7.35-7.08-14.09-14.43-16.7c-7.82-2.78-13.5,2.73-15.67,9.86
					c-5.43,17.84,14.1,36.37,31.63,28.96c0.36-0.15,0.1-0.75-0.27-0.63c-16.06,5.11-33.49-9.67-29.83-26.46
					c0.79-3.62,2.48-7.41,5.75-9.42c2.53-1.56,5.63-1.23,8.31-0.3c6.38,2.24,11.91,8.56,14.23,14.77
					C208.2,274.22,208.47,274.15,208.42,273.97L208.42,273.97z"/>
				<path class="st39" d="M209.15,287.77c-1.85-5.71-7.71-10.62-12.52-13.8c-4.6-3.04-11.49-5.64-15.17-0.01
					c-0.06,0.1,0.09,0.22,0.16,0.13c3.94-4.88,11.11-0.75,15.04,1.96c0.7,0.48,1.41,0.99,2.13,1.53c-1.81,0.11-3.51,1.25-4.15,3.05
					c-0.95,2.69,1.1,5.42,3.22,6.8c0.05,0.03,0.1-0.04,0.06-0.08c-1.73-1.44-2.92-3.53-2.38-5.83c0.6-2.59,3-2.43,5.08-2.51
					c3.14,2.57,6.12,5.65,7.82,9.07C208.64,288.46,209.28,288.18,209.15,287.77z"/>
			</g>
		</g>
	</g>
</g>
</svg>
