<?xml version="1.0" encoding="utf-8"?>
<!-- Generator: Adobe Illustrator 27.0.0, SVG Export Plug-In . SVG Version: 6.00 Build 0)  -->
<svg version="1.1" id="Layer_1" xmlns="http://www.w3.org/2000/svg" xmlns:xlink="http://www.w3.org/1999/xlink" x="0px" y="0px"
	 viewBox="0 0 750 400" style="enable-background:new 0 0 750 400;" xml:space="preserve">
<style type="text/css">
	.st0{fill:#757480;}
	.st1{fill:#494968;}
	.st2{opacity:0.8;fill:#84849C;}
	.st3{fill:#07073D;}
	.st4{fill:#9F9FB5;}
	.st5{fill:#3D3D59;}
	.st6{opacity:0.4;fill:#2D2D51;}
	.st7{fill:#62627C;}
	.st8{fill:#84849C;}
	.st9{fill:#759D33;}
	.st10{fill:#587C19;}
	.st11{fill:#587226;}
	.st12{fill:#3A5225;}
	.st13{fill:#83AC15;}
	.st14{fill:#959819;}
	.st15{fill:#6D830B;}
	.st16{fill:#A4CD32;}
	.st17{fill:#CCE174;}
	.st18{fill:#849A27;}
	.st19{fill:#B4BB31;}
	.st20{opacity:0.5;fill:#6D830B;}
	.st21{fill:#CFD76A;}
	.st22{fill:#AFBE58;}
	.st23{fill:#7A9F02;}
	.st24{fill:#437224;}
	.st25{fill:#433D3A;}
	.st26{fill:#726551;}
	.st27{fill:#938169;}
	.st28{fill:#C1A88A;}
</style>
<g>
	<g>
		<g>
			<g>
				<g>
					<path class="st0" d="M547.32,78.42c13.51-0.9,26.98-2.26,40.47-3.34c10.57-0.85,22.3-4.06,32.36,0.49
						c2.92,1.32,5.6,3.12,8.25,4.91c4.83,3.25,9.67,6.5,14.5,9.75c7.36,4.95,14.73,9.91,21.42,15.73
						c-24.83,10.65-50.76,20.89-74.4,34.09c-7.62,4.26-15.77,9.19-22.28,15.1c-4.46,4.05-16.65,15.79-16.09,22.5
						c-2.84,6.7-4.7,14.12-9.77,19.34c-4.79,4.94-11.67,7.1-17.61,10.56c-15.67,9.13-11.5,26.7-14.3,41.53
						c-2.55,13.51-15.71,22.06-28.03,28.17c-29.34,14.55-60.94,24.53-93.32,29.47c-22.31,3.4-47.61,5.79-61.65,23.46
						c-5.05,6.36-8.37,14.47-15.28,18.74c-9.49,5.86-21.83,2.27-32.8,4.26c-9.81,1.78-15.54,9.98-24.24,12.69
						c-7.22,2.25-15,3.18-22.33,5.12c-4.38,1.16-9.03,1.49-13.17,3.2c-4.66,1.93-8.17,4.78-13.39,2.32
						c-5.82-2.75-11.38-5.99-17.34-8.5c-12.08-5.08-24.86-8.49-37.86-10.17c-13-1.68-26.23-1.65-39.22,0.15
						c-3.17,0.44-37.65,8.12-36.85,10.38c-8.97-25.16-15.21-52.24-3.56-77.65c16.46-35.87,48.69-70.54,81.68-91.72
						c3.69-2.37,7.61-4.68,11.98-5.08c3.35-0.31,6.7,0.52,10.06,0.46c8.58-0.16,15.84-6.01,22.5-11.41
						c51.61-41.85,120.53-59.07,181.93-83.03c28.71-11.2,60.2-13.65,90.33-18.66c5.76-0.96,11.83-0.84,17.67-1.13
						C507.14,79.18,527.29,79.75,547.32,78.42z"/>
					<path class="st1" d="M637.42,108.47c-5.29,1.47-10.6,2.85-15.95,4.08c-10.91,2.52-21.98,4.44-33.15,5.21
						c-11.28,0.78-22.69,0.38-33.83-1.69c-4.76-0.89-9.31-2.3-13.84-3.72c-5.68-1.78-11.34-3.57-17.35-4.31
						c-12.63-1.56-25.66-1.87-37.85,2.32c2.59,4.14,6.62,6.29,9.71,9.78c3.52,3.98,6.14,8.82,9.55,12.94
						c5.71,6.9,9.98,14.77,15.49,21.85c1.71,2.2,3.53,4.36,4.74,6.88c1.37,2.85,2,6.7,0.05,9.42c-3.45,4.81-8.23,8.82-12.32,13.19
						c-4.74,5.06-9.72,9.89-14.32,15.08c-5.1,5.75-11.32,10.85-18.74,12.84c-6.22,1.67-12.14,1.14-18.4,0.46
						c-19.11-2.09-35.97,3.47-53.14,11.16c-18.51,8.29-36.46,17.78-54.24,27.52c-23.08,12.65-43.12,27.64-58.17,49.37
						c-8.81,12.72-22.53,21.08-36.29,28.16c-18.21,9.37-37.45,17.13-57.53,21.41c-9.13,1.94-17.94,1.33-27.1,2.99
						c-6.57,1.19-13.05,2.92-19.34,5.15c11.3,1.85,22.4,5.01,32.96,9.45c5.96,2.51,11.52,5.75,17.34,8.5
						c5.22,2.46,8.73-0.39,13.39-2.32c4.13-1.71,8.78-2.04,13.17-3.2c7.33-1.94,15.11-2.88,22.33-5.12
						c8.7-2.71,14.42-10.91,24.24-12.69c10.97-1.99,23.31,1.6,32.8-4.26c6.91-4.27,10.23-12.38,15.28-18.74
						c5.8-7.3,13.53-11.98,22.16-15.22c-1.59-5.24-1.37-10.77,2.09-16.98c3.84-6.9,10.64-11.57,17.25-15.91
						c14.92-9.78,30.7-19.36,48.37-21.77c12.31-1.68,24.87,0.38,36.39,4.85c5.31,2.06,12.29,4.61,16.58,8.47
						c2.05,1.84,3.56,4.44,5,7.03c2.38-1.11,4.76-2.24,7.11-3.41c12.32-6.11,25.48-14.66,28.03-28.17
						c2.8-14.83-1.37-32.4,14.3-41.53c5.94-3.46,12.82-5.62,17.61-10.56c5.06-5.22,6.93-12.64,9.77-19.34
						c-0.56-6.71,11.62-18.45,16.09-22.5c6.51-5.91,14.66-10.85,22.28-15.1c23.63-13.2,49.57-23.44,74.4-34.09
						c-1.41-1.23-2.86-2.41-4.33-3.57c-3.04,1.04-6.05,2.13-9.04,3.27C646.54,107.34,641.91,107.22,637.42,108.47z"/>
					<path class="st2" d="M577.78,86.23c15.81-2.38,31.92-4.41,47.69-7.69c-1.72-1.1-3.47-2.13-5.32-2.97
						c-10.06-4.55-21.79-1.34-32.36-0.49c-13.49,1.08-26.96,2.44-40.47,3.34c-20.03,1.34-40.18,0.76-60.3,1.73
						c-5.84,0.28-11.91,0.17-17.67,1.13c-30.13,5.01-61.62,7.46-90.33,18.66c-61.4,23.96-130.32,41.18-181.93,83.03
						c-6.66,5.4-13.93,11.25-22.5,11.41c-3.36,0.06-6.71-0.77-10.06-0.46c-4.36,0.41-8.29,2.72-11.98,5.08
						c-32.99,21.18-65.22,55.84-81.68,91.72c-11.66,25.41-5.41,52.48,3.56,77.65c-0.7-1.98,25.62-8.11,34.33-9.9
						c0.74-13.72,1.15-28.43,7.29-40.31c12.13-23.46,31.44-43.39,53.35-57.94c10.98-7.29,21.04-13.62,34.61-11.98
						c13.99,1.69,26.86,8.54,38.92,15.43c18.05,10.32,35.19,21.53,53.22,31.89c-1.92-4.9-4.86-8.84-7.57-13.26
						c-5.74-9.36-3.64-21.08,2.06-29.8c7.31-11.2,19.52-17.38,30.52-24.32c8.94-5.65,18.18-11.59,23.8-20.55
						c-2.71-2.03-6.54-0.58-9.62,0.84c-19.81,9.17-39.97,15.92-61.85,17.83c-9.72,0.85-13.14-8.63-13.07-16.75
						c0.01-0.73,0.03-1.43,0.08-2.11c0.76-11.34,6.9-17.25,15.92-24.32c9.7-7.61,19.93-14.53,30.53-20.82
						c21.1-12.53,43.57-22.55,66.37-31.54c18.04-7.11,36.36-13.8,55.36-17.86c23.25-4.97,46.25-11.08,69.54-15.86
						c23.58-4.84,47.24-5.97,70.95-9.51C572.04,87.1,574.91,86.66,577.78,86.23z"/>
					<path class="st3" d="M546.25,190.56c-1.58-0.85-3.13-1.74-4.71-2.67c-5.28-3.08-9.88-6.63-14.68-10.44
						c-8.44-6.69-16.27-13.43-23.01-21.88c-6.66-8.35-12.45-17.34-18.23-26.31c-3.49-5.42-6.98-10.84-10.47-16.26
						c-4.04,20.29,5.16,42.2,17.96,57.54c9.71,11.64,23.26,19.37,37.05,25.55c2.06,0.92,4.12,1.81,6.18,2.67
						c0.77,0.32,1.56,0.64,2.36,0.89c1.1-0.8,2.15-1.67,3.1-2.66C543.64,195.09,545.06,192.9,546.25,190.56z"/>
					<path class="st3" d="M498.34,132.39c5.07,7.28,10.63,14.18,16.45,20.87c5.63,6.47,11.64,12.1,17.81,18.14
						c5.02,4.91,10.15,9.87,16.06,13.69c0.93-2.37,1.8-4.79,2.78-7.12c-1.42-2.35-8.94-17.99-12.75-23.66
						c-6.18-9.19-12.01-17.14-19.6-25.3c-7.87-8.45-22.77-16.76-34.16-18.68C489.26,117.81,493.33,125.2,498.34,132.39z"/>
					<path class="st4" d="M383.33,186.06c0.38-0.2,0.75-0.4,1.13-0.6c12.34-6.44,25.25-14.83,39.45-16.41
						c3.46-0.38,13.84-1.12,15.4-5.05c0.89-2.25,0.11-4.8-0.96-6.97c-7.18-14.52-23.73-30.43-40.11-18.36
						c-10.25,7.55-20.33,15.53-30.44,23.55c-17.03,13.5-34.09,27.05-52.39,38.82c-22.79,14.65-47.83,26.48-73.5,35.1
						c-0.96,0.32-2.11,0.92-2.03,1.92c0.04,0.53,0.43,0.95,0.8,1.33c3.9,3.98,10.46,11.46,16.46,12.03
						c2.78,0.27,6.54-1.87,9.02-2.85c9.66-3.81,19-8.54,28.3-13.14c16.4-8.1,32.79-16.36,48.78-25.24
						C356.82,202.66,369.65,193.34,383.33,186.06z"/>
					<path class="st5" d="M152.54,319.23c-6.36-5.64-13.31-10.4-21.05-13.77c-8.51-3.7-17.89-9.57-26.98-10.96
						c-9.18-1.4-19.46,0.24-28.52,1.75c-2.72,0.45-5.47,0.93-8.02,1.93c-7.51,23.2-1.64,47.48,6.46,70.19
						c-0.8-2.26,33.68-9.94,36.85-10.38c12.99-1.8,26.21-1.84,39.22-0.15c13,1.68,25.78,5.08,37.86,10.17
						c1.01,0.43,2.01,0.88,3,1.34C180.24,352.41,168.21,333.14,152.54,319.23z"/>
					<path class="st4" d="M433.95,93.66c17.91-3.59,36-6.31,54.19-8.01c9.33-0.88,18.69-1.49,28.05-1.81
						c5.79-0.2,16.95-2.52,22.25-0.12c1.22,0.55,1.89,2.37,0.89,3.25c-2.91,2.55-12.94,2.59-16.71,3.28
						c-6.75,1.25-13.5,2.46-20.26,3.67c-13.51,2.43-27.03,4.86-40.5,7.53c-26.87,5.33-53.62,11.64-79.48,20.77
						c-16.45,5.81-32.77,11.96-49.04,18.23c-16.4,6.32-31.71,13.89-47.18,22.26c-6.76,3.65-13.93,9.97-21,12.43
						c-5.23,1.82-32.92-4.73-22.61-11.21c21.11-13.29,43.79-23.65,67.19-32.14c23.72-8.61,47.58-17.93,71.79-25.09
						C398.79,101.59,416.29,97.2,433.95,93.66z"/>
					<path class="st2" d="M480.59,171.15c0.53,0.18,1.08,0.31,1.65,0.36c0.91,0.08,1.89-0.06,2.59-0.65
						c3.08-2.6-1.25-6.47-2.57-8.61c-2.66-4.32-4.63-9.16-6.15-13.99c-2.98-9.51-4.04-19.52-4.32-29.44
						c-0.07-2.4-0.79-8.35-4.77-7.05c-2.01,0.65-3.89,6-4.58,7.8c-2.71,7.09-2.31,15.03-0.74,22.34c1.81,8.42,5.24,16.6,10.76,23.21
						c1.22,1.47,2.22,2.45,3.81,3.58C477.63,169.65,479.05,170.63,480.59,171.15z"/>
					<path class="st4" d="M470.92,137.63c-0.1-2.37-0.08-4.76,0.13-7.17c0.18-1.97,0.82-15.89-2.36-16.12
						c-5.42-0.38-5.19,14.7-5.1,17.56c0.21,6.86,2.9,13.57,6.36,19.43c0.56,0.95,1.69,2.01,2.58,1.36
						C471.9,147.59,471.13,142.63,470.92,137.63z"/>
					<path class="st4" d="M481.79,109.34c-2.11,0.44-0.09,6.44,0.41,7.94c3.3,9.89,9.04,18.84,15.86,26.66
						c0.89,1.02,2.22,2.11,3.45,1.54c0.83-0.38,1.19-1.41,1.07-2.32c-0.12-0.9-0.6-1.71-1.08-2.49
						c-3.46-5.65-6.91-11.31-10.37-16.96c-1.52-2.49-3.28-4.85-4.47-7.53c-0.76-1.72-1.02-5.14-2.73-6.18
						C482.96,109.43,482.27,109.24,481.79,109.34z"/>
					<path class="st6" d="M311,271.62c-3.46,1.75-7.31,4.11-8.53,4.72c-4.79,2.41-7.74,5.58-12,8.36
						c-8.84-10.42-16.03-21.87-25.94-31.57c-7.57-7.41-16.98-14.61-23.19-23.25c8.28-2.96,16.41-6.31,24.42-9.94
						c-4.52,23.55,34.59,42.52,51.06,49.79C315.96,269.34,313.59,270.31,311,271.62z"/>
					<path class="st3" d="M386.62,245.5c-13.05,5.36-25.03,12.94-36.15,21.75c-6.11,4.84-14.21,9.46-16.25,17.25
						c-0.52,1.96-0.85,4.03-1.93,5.75c-1.77,2.82-5.14,4.14-8.34,5.06c-4.22,1.21-8.56,2.03-12.93,2.45
						c-13.03,1.25-17.06-6.51-23.4-16.29c-3.9-6.02,3.25-6.74,7.37-9.27c2.9-1.78,5.81-3.55,8.72-5.31
						c5.83-3.52,11.68-7,17.55-10.44c11.9-6.97,23.91-13.77,36-20.41c16.69-9.16,35.33-14.23,51.65-24.18
						c9.01-5.49,19.7-11.58,25.32-20.88c2.42-4.01,4.59-8.46,5.74-13.04c0.63-2.52,1-5.09,1.19-7.68c0.09-1.25,0.91-6.36,0.05-7.27
						c6.37,6.75,10.77,14.38,15.7,22.14c5.1,8.03,8.54,16.62,12.39,25.36c0.57,1.29,1.14,2.62,1.13,4.03
						c-0.05,4.99-5.2,9.56-8.33,12.86c-4.21,4.42-8.98,8.86-14.81,11.01c-7.08,2.61-14.78,1.48-22.08,1.96
						c-7.73,0.51-14.37-4.39-22.06-2.25C397.43,239.7,392.14,243.24,386.62,245.5z"/>
					<path class="st5" d="M357.26,300.41c-5.96-4.92-12.23-9.46-18.77-13.59c-2.03-1.28-4.13-2.54-6.46-3.13
						c-2.77-0.7-5.68-0.4-8.52-0.05c-10.23,1.29-20.36,3.32-30.3,6.07c1.8,6.12,6.69,12.01,9.31,17.96
						c3.29,7.46,6.18,15.1,8.64,22.88c1.6,5.05,3.02,10.17,4.26,15.32c4.52-4.46,7.45-10.64,11.47-15.7
						c9.52-11.98,24.23-16.93,39.66-19.94C364.2,306.4,360.75,303.29,357.26,300.41z"/>
					<path class="st3" d="M333.55,285.9l0.87-1.35c-0.78-0.35-1.58-0.65-2.4-0.85c-2.77-0.7-5.68-0.4-8.52-0.05
						c-10.23,1.29-20.36,3.32-30.3,6.07c1.8,6.12,6.69,12.01,9.31,17.96c3.29,7.46,6.18,15.1,8.64,22.88
						c1.6,5.05,3.02,10.17,4.26,15.32c4.52-4.46,7.45-10.64,11.47-15.7c0.01-0.01,0.01-0.01,0.02-0.02
						c-1.85-10.55-1.11-16.98,0.17-26.1C328.02,297.31,333.51,286,333.55,285.9z"/>
					<g>
						<path class="st5" d="M241.9,236.15c13.48-4.53,26.78-9.95,39.68-16.19c-2.07-6.44-8.92-19.97-9.75-21.48
							c-3.92-7.17-9.65-12.62-17.41-16.51c-4.62-2.32-11.44-4.9-16.54-5.74c-10.04-1.67-15.99-2.6-26.04-4.28
							c-5.06,3.48-9.99,7.14-14.77,11.02c-6.36,5.16-13.28,10.71-21.35,11.34c19.34,10.64,39.3,20.9,55.29,35.92
							c1.95,1.49,3.87,3.03,5.74,4.64c1.01,0.86,2.15,1.7,3.36,2.39C240.5,236.73,241.24,236.37,241.9,236.15z"/>
					</g>
					<g>
						<path class="st3" d="M265.9,210.68c-9.46,2.46-19.18,2.54-28.66,0.02c-15.89-4.23-29.49-13.14-44.72-18.9
							c-1.52-0.58-2.85-1.39-4-2.38c-3.96,2.57-8.18,4.53-12.78,4.89c19.34,10.64,39.3,20.9,55.29,35.92
							c1.95,1.49,3.87,3.03,5.74,4.64c1.01,0.86,2.15,1.7,3.36,2.39c0.38-0.53,1.12-0.88,1.78-1.11
							c13.48-4.53,26.78-9.95,39.68-16.19c-1.1-3.42-3.55-8.85-5.73-13.41C272.72,208.35,269.39,209.78,265.9,210.68z"/>
					</g>
					<path class="st4" d="M274.12,264.89c-6.69-8.34-14.05-16.23-22.03-23.35c-22.31-19.87-47.67-35.68-75.2-46.77
						c-0.76-0.31-1.54-0.62-2.36-0.6c-1.02,0.02-1.96,0.56-2.83,1.09c-20.09,12.21-42.44,28.73-56.18,48.02
						c-9.36,13.14-23.99,28.81-23.06,46.02c0.31,5.79,21.13-9.58,22.24-10.76c5.33-5.65,10.73-11.68,15.74-17.64
						c11.26-13.39,29.95-39.52,49.91-38.12c4.41,0.31,8.5,2.28,12.48,4.21c15.97,7.78,31.02,14.73,45.12,25.53
						c15.31,11.74,30.63,23.47,45.94,35.2c1.94,1.49,5.6,2.42,6.07,0.02C290.85,283.19,277.03,268.52,274.12,264.89z"/>
				</g>
				<g>
					<g>
						<path class="st1" d="M559.19,90.66c-0.06,0.21-1.76,0.8-2.03,0.96c-0.71,0.41-1.39,0.89-2.02,1.43
							c-1.14,0.98-2.34,1.86-3.49,2.85c-2.63,2.27-5.14,4.69-7.47,7.27c-4.75,5.24-8.74,11.11-11.99,17.39
							c-0.15,0.51,0.78,0.4,1.14,0.01c4.92-5.38,9.96-10.66,14.94-15.99c3.29-3.52,6.35-7.24,9.28-11.1
							C558.21,92.6,558.88,91.7,559.19,90.66z"/>
						<path class="st4" d="M548.61,108.26c4.24-5.24,7.56-11.16,10.44-17.25c-4.3,5-8.6,9.99-12.9,14.99
							c-2.11,2.45-4.22,4.9-6.32,7.35c-2.05,2.38-4.69,4.79-6.31,7.45C539.44,118.04,544.54,113.29,548.61,108.26z"/>
					</g>
					<g>
						<path class="st1" d="M390.13,212.18c-0.21,0.01-1.32-1.41-1.56-1.62c-0.62-0.54-1.29-1.03-2-1.46
							c-1.29-0.77-2.51-1.62-3.82-2.39c-2.99-1.77-6.09-3.37-9.28-4.76c-6.48-2.83-13.32-4.74-20.3-5.81
							c-0.53,0.02-0.13,0.86,0.35,1.08c6.67,2.95,13.28,6.03,19.92,9.05c4.39,2,8.89,3.71,13.48,5.26
							C387.97,211.86,389.04,212.21,390.13,212.18z"/>
						<path class="st4" d="M370.07,207.76c6.32,2.34,12.99,3.6,19.68,4.39c-6.11-2.48-12.22-4.96-18.32-7.44
							c-2.99-1.22-5.99-2.43-8.98-3.65c-2.91-1.18-6.04-2.92-9.07-3.61C357.87,202.19,364.01,205.51,370.07,207.76z"/>
					</g>
					<g>
						<path class="st1" d="M271.33,290.62c-4.06,2.7-6.06,5.5-10.92,5.57c-3.87,0.05-8.34-0.54-11.66-2.2
							c2.33,1.17,4.66,4.04,6.77,5.68c2.26,1.76-4.69,6.94-6.09,8.4c-2.72,2.84-6.57,6.38-8.37,9.85c-0.27,0.53,0.72,0.49,1.19,0.1
							c6.37-5.31,12.84-10.5,19.26-15.74c4.25-3.47,8.29-7.16,12.24-11.02c0.89-0.87,1.79-1.77,2.36-2.86
							c-0.11,0.21-2.03,0.71-2.35,0.85C272.92,289.64,272.11,290.1,271.33,290.62z"/>
						<path class="st4" d="M261.04,306.22c5.62-5.21,10.45-11.22,14.84-17.44c-5.63,4.95-11.27,9.9-16.9,14.85
							c-2.76,2.43-5.52,4.85-8.29,7.28c-2.68,2.36-6,4.7-8.3,7.38C249.22,315.85,255.64,311.22,261.04,306.22z"/>
					</g>
					<path class="st7" d="M311.67,176.29c2.83-3.62,8.5-5.7,10.03,0.06c1.54,5.81-4.92,10.95-9.87,7.36
						C309.17,181.78,309.79,178.69,311.67,176.29z"/>
					<path class="st7" d="M446.7,133.03c-2.88-2.74-4-7.55,1.37-8.02c5.42-0.48,9.2,5.37,5.32,8.86
						C451.31,135.75,448.62,134.84,446.7,133.03z"/>
					<path class="st7" d="M584.4,100.89c-2.89-2.74-4.01-7.55,1.37-8.02c5.42-0.48,9.2,5.37,5.32,8.86
						C589.01,103.61,586.32,102.7,584.4,100.89z"/>
					<path class="st8" d="M164.56,300.61c-4.93,1.74-9.39,0.37-4-5.91c5.44-6.34,13.44-7.39,11.69-1.13
						C171.31,296.93,167.83,299.46,164.56,300.61z"/>
					<path class="st8" d="M482.84,199.11c-4.48,2.2-11.37-1.74-5.83-7.87c5.59-6.19,14.63-6.5,12.22-0.92
						C487.93,193.32,485.81,197.65,482.84,199.11z"/>
					<path class="st8" d="M394.52,288.57c-3.57,1.31-6.77,0.38-2.82-4.21c3.99-4.63,9.77-5.47,8.44-0.95
						C399.43,285.85,396.89,287.7,394.52,288.57z"/>
					<g>
						<path class="st4" d="M467.45,252.89c0.81,0.47,1.82,0.98,3.15,1.06c0.94,0.06,1.8-0.11,2.57-0.29
							c9.71-2.27,15.12-6.58,20.1-10.71c-6.77,2.85-13.23,6.29-23.13,6.99c-3.47-1.46-6.94-3.23-10.87-4.45
							C457.32,247.06,464.87,251.39,467.45,252.89z"/>
						<path class="st3" d="M468.08,250.34c2.51,1.03,5.9,0.72,8.48,0.23c3.01-0.57,4.36-1.45,6.69-2.32c2.69-1,4.69-2.24,7.22-3.3
							c3.61-1.5,6.8-3.18,10.11-4.79c-4.94,0.9-9.58,2.02-13.85,3.34c-4.09,1.26-7.37,3.46-11.61,4.51
							c-3.42,0.85-6.83-0.05-9.84-1.05c-1.27-0.42-2.6-0.83-3.82-1.29c-0.51-0.19-3.61-1.11-3.71-1.29c0.69,1.21,2.34,2.43,4.66,3.3
							C464.57,248.5,465.98,249.48,468.08,250.34z"/>
					</g>
					<g>
						<path class="st4" d="M618.13,109.2c0.74,0.19,1.63,0.36,2.62,0.06c0.69-0.22,1.25-0.62,1.75-1
							c6.23-4.82,8.68-10.25,10.89-15.39c-3.92,4.51-7.42,9.45-14.31,12.91c-2.98-0.32-6.07-0.93-9.3-0.91
							C608.9,106.83,615.77,108.57,618.13,109.2z"/>
						<path class="st1" d="M617.73,106.71c2.15,0.21,4.48-1.04,6.18-2.21c1.98-1.37,2.66-2.55,4.04-4c1.6-1.67,2.62-3.36,4.1-5.03
							c2.1-2.38,3.83-4.81,5.68-7.21c-3.25,2.22-6.22,4.56-8.85,6.97c-2.52,2.3-4.15,5.22-6.85,7.38c-2.18,1.74-4.93,1.91-7.43,1.86
							c-1.05-0.02-2.15-0.01-3.18-0.07c-0.43-0.03-2.97,0.03-3.1-0.1c0.9,0.89,2.5,1.52,4.45,1.65
							C614.6,106.06,615.94,106.54,617.73,106.71z"/>
					</g>
					<g>
						<path class="st1" d="M184.23,247.42c-0.17,0.13-1.89-0.43-2.2-0.46c-0.82-0.1-1.65-0.13-2.47-0.08
							c-1.5,0.09-2.99,0.07-4.5,0.16c-3.47,0.22-6.93,0.63-10.35,1.27c-6.95,1.3-13.68,3.56-20.07,6.59
							c-0.43,0.31,0.38,0.79,0.9,0.7c7.17-1.31,14.38-2.47,21.57-3.7c4.76-0.81,9.44-1.92,14.11-3.22
							C182.27,248.38,183.34,248.06,184.23,247.42z"/>
						<path class="st4" d="M165.15,255.03c6.54-1.61,12.77-4.31,18.75-7.42c-6.45,1.38-12.89,2.75-19.34,4.13
							c-3.16,0.67-6.32,1.35-9.48,2.02c-3.07,0.66-6.64,0.98-9.53,2.11C151.93,257.27,158.87,256.58,165.15,255.03z"/>
					</g>
				</g>
			</g>
			<g>
				<path class="st9" d="M481.86,277.25c10.15-5.03,20.86-11.73,25.75-21.49c-7.83-0.2-15.71,1.73-22.55,5.56
					c-3.57,2-7.1,4.58-11.19,4.75c-3.89,0.16-7.48-1.89-11.23-2.96c-3.75-1.07-8.59-0.72-10.45,2.71c-0.51,0.94-0.73,2.02-1.32,2.91
					c-2.14,3.25-7.7,2.38-10,5.52c-2.34,3.19,0.3,8.28-2.09,11.42c-1.77,2.32-5.2,2.23-8.12,2.37c-3.82,0.19-17.73,8.09-21.66,14.85
					C434.2,297.34,458.73,288.72,481.86,277.25z"/>
				<path class="st9" d="M211.97,375.77c-2.18-4.07-1.8-9.09-3.79-13.26c-2.18-4.56-6.82-7.37-11.29-9.73
					c-0.8-0.42-1.66-0.9-2.04-1.72c-0.55-1.18,0.09-2.54,0.09-3.84c0.01-2.53-2.79-4.54-5.26-4.02c-2.47,0.52-4.19,3.17-3.99,5.69
					c0.31,3.72,4.05,6.38,4.06,10.11c0,3.16-2.18,5.46-3.75,8.04c0.79,0.31,1.57,0.64,2.35,0.96c5.96,2.51,11.52,5.75,17.34,8.5
					c2.65,1.25,4.86,1.13,7.01,0.45C212.44,376.58,212.19,376.18,211.97,375.77z"/>
				<path class="st9" d="M429.98,280.38c1.09-0.51,1.68-1.69,2.13-2.81c1.83-4.5,2.76-9.37,2.71-14.23
					c-0.04-4.2-11.64,9.87-11.79,10.12c-1.66-1.45-4.61-0.54-5.46,1.49c-0.85,2.03,0.27,4.55,2.2,5.61
					C421.77,281.66,427.9,281.35,429.98,280.38z"/>
				<path class="st10" d="M533.91,202.57c-4.57,0.18-9.1,1.66-13.07,3.98c-2.82,1.65-6.39,3.74-9.03,1.81
					c-0.61-0.44-1.08-1.06-1.72-1.44c-7.28-4.34-24.47,21.79-20.69,28.4c2.94,5.14,9.67,0.49,13.98,1.36c0.97,2.58-1,5.89,0.69,8.07
					c0.73,0.94,1.94,1.35,3.07,1.71c1,0.31,2.01,0.63,3.03,0.92c2.23-14.45-1.06-31.05,14.01-39.83
					C527.32,205.73,530.7,204.27,533.91,202.57z"/>
				<path class="st10" d="M572.69,144.11c1.51-2.55,2.69-8.67,0.04-10.99c-4.56-4.01-8.34,2.54-12.71,2.56
					c-5.73,0.02-8.7-1.82-12.16,4.94c-1.54,3.01-1.64,6.87,0.27,9.66c0.93,1.35,2.26,2.39,3.1,3.79c1.37,2.28,1.24,5.14,0.9,7.78
					c-0.01,0.11-0.03,0.23-0.04,0.34c-0.34,2.53-0.76,5.14-0.03,7.58c0.23,0.77,0.63,1.52,1.14,2.17c1.92-3.59,5.23-7.51,8.34-10.79
					c-0.11-3.9,0.16-9.53,2.26-11.97C566.24,146.32,570.55,147.74,572.69,144.11z"/>
				<path class="st9" d="M188.71,314.82c-9.1-0.54-18.43,6.71-24.22,12.82c-2.05,2.16-4.14,4.47-4.9,7.34
					c-1.49,5.67,2.62,11.15,6.46,15.59c0.62,0.72,1.37,1.49,2.31,1.48c0.86-0.01,1.56-0.68,2.1-1.34
					c3.82-4.69,4.75-11.68,9.74-15.09c2.66-1.82,6.02-2.26,8.9-3.71c3.53-1.78,6.12-4.97,8.59-8.06c0.72-0.9,1.48-1.91,1.41-3.06
					c-0.07-1.19-1-2.14-1.95-2.84C194.44,315.94,191.58,314.99,188.71,314.82z"/>
				<path class="st10" d="M140.54,356.89c3.33,0.21,6.64,0.52,9.95,0.95c6.93,0.9,13.79,2.29,20.52,4.16
					c-0.11-1.31-0.78-2.56-1.49-3.69C161.94,346.09,148.31,344.67,140.54,356.89z"/>
			</g>
		</g>
		<g>
			<g>
				<path class="st11" d="M112.96,329.93c0.75-0.05,1.41-0.19,1.76-0.49c0.62-0.51,0.36-1.52-0.06-2.2
					c-1.62-2.64-5.04-4.76-4.46-7.81c0.1-0.55,0.42-1.13,0.97-1.25c1.78-0.38,2.17,4.08,3.72,3.11c0.42-1.41-0.29-2.89-0.38-4.36
					c-0.09-1.47,1.13-3.29,2.48-2.71c0.2,1.35,0.54,2.67,1.01,3.95c0.71,1.9,2.3,3.99,4.29,3.56c1.78-0.38,2.53-2.58,2.38-4.4
					c-0.16-1.82-0.88-3.6-0.67-5.41c1.14-0.16,2.34,0.37,2.99,1.31c0.92-1.82,1.41-3.85,1.42-5.89c0.76-0.33,1.7-0.21,2.35,0.31
					c0.01,1.21,0.01,2.42,0.02,3.63c0.5,0.92,1.99,0.66,2.62-0.18c0.63-0.83,0.69-1.94,0.92-2.96c0.83-3.65,4.33-6.52,8.08-6.61
					c-1.42,2.79-2.46,5.76-3.1,8.83c2.41-0.08,5.6,0.46,5.92,2.85c-1.54,0.7-3.09,1.4-4.63,2.11c-0.39,0.18-0.81,0.39-0.99,0.78
					c-0.14,0.3-0.1,0.64-0.13,0.97c-0.14,1.86-2.08,2.94-3.68,3.91c-1.6,0.96-3.26,2.74-2.51,4.45c1.07,0.45,2.29,0.24,3.45,0.32
					c1.16,0.08,2.48,0.67,2.65,1.82c0.23,1.59-1.87,2.49-3.47,2.33c-1.6-0.15-3.36-0.74-4.72,0.13c-0.55,0.35-0.95,0.9-1.47,1.3
					c-1.1,0.84-2.59,0.92-3.89,1.39c-1.3,0.47-2.58,1.79-2.09,3.08c3.74-0.38,7.61,0.83,10.47,3.27c0.41,0.35,0.82,0.76,0.91,1.3
					c0.22,1.37-1.65,2-3.04,2.08c-2.72,0.16-5.44,0.31-8.16,0.47c0.12,0.86,0.23,1.72,0.35,2.58c-2.09,1.78-5.21,1.11-7.9,0.57
					c-2.69-0.54-6.09-0.55-7.46,1.83c2.09,0.79,4.19,1.59,6.28,2.38c0.8,0.3,1.73,0.76,1.85,1.61c0.12,0.92-0.85,1.65-1.76,1.75
					c-0.92,0.1-1.83-0.19-2.76-0.21c-1.52-0.04-2.94,0.65-4.41,1.01c-1.47,0.36-3.25,0.31-4.22-0.86c-0.04,2.27-1.49,4.46-3.56,5.38
					c-1.97,0.88-4.5,0.79-5.88,2.44c-0.75,0.9-0.96,2.13-1.51,3.17c-1.29,2.46-3.69,2.75-5.81,4.09c-1.69,1.06-2.9,2.56-4.54,3.74
					c-1.09,0.78-2.42,1.37-3.75,1.15c-1.32-0.22-2.51-1.5-2.25-2.82c0.15-0.72,0.68-1.32,0.82-2.05c0.19-0.96-0.36-1.91-0.48-2.88
					c-0.34-2.6,2.3-3.37,2.64-5.37c0.33-1.97-1.91-3.64-0.97-5.76c0.82-1.85,3.35-1.95,5.36-1.77c0-4.67,3.81-9.04,8.43-9.68
					c0.11-2.83,0.23-5.66,0.34-8.49c0.03-0.85,0.07-1.73,0.44-2.51c1.02-2.17,4.72-2.21,5.79-0.06c0.68,1.38,1.08,3.7,2.57,3.29
					c0.2-1.03,0.39-2.06,0.59-3.08c1.02,0.27,1.91-0.79,2.23-1.8c0.31-1.01,0.41-2.17,1.19-2.9c1.32-1.24,3.92,0.38,3.39,2.11
					C109.71,329.82,111.52,330.04,112.96,329.93z"/>
				<path class="st12" d="M134.74,311.61c-1.48,2.3-3.24,4.41-5.24,6.29c-0.27-1.24-1-2.37-2.02-3.12
					c-0.43,1.42-0.86,2.84-1.29,4.26c-0.11,0.37-0.24,0.77-0.55,1c-0.46,0.35-0.93,0.18-1.34-0.21c-0.38,0.94-1.03,1.71-2.02,1.92
					c-1.99,0.42-3.58-1.66-4.29-3.56c-0.48-1.28-0.82-2.6-1.01-3.95c-1.35-0.58-2.58,1.24-2.48,2.71c0.09,1.47,0.8,2.95,0.38,4.36
					c-1.55,0.96-1.93-3.49-3.72-3.11c-0.55,0.12-0.86,0.7-0.97,1.25c-0.58,3.05,2.84,5.16,4.46,7.81c0.42,0.69,0.67,1.69,0.06,2.2
					c-0.36,0.3-1.01,0.44-1.76,0.49c-1.44,0.1-3.25-0.11-4.05-0.16c0.17-0.56,0.01-1.1-0.32-1.54c-0.47,0.2-1,0.26-1.49,0.08
					c-0.19,1.23-1.48,2.15-2.71,2.01c-0.02,0.08-0.04,0.16-0.06,0.24c-0.14,0.44-0.38,0.87-0.7,1.22c-0.4,0.7-1.05,1.29-1.77,1.85
					c-0.12,0.61-0.23,1.21-0.35,1.82c-0.59,0.16-1-0.11-1.34-0.58c-1.13,0.85-2.15,1.78-2.44,3.08c-0.76-2.18-0.01-4.55,0.2-6.86
					c-0.89-0.55-2.05-0.65-3.06-0.31c0.01,3.61,0.03,7.21,0.04,10.82c0,0.54-0.01,1.13-0.37,1.54c-0.35,0.41-1.17,0.39-1.31-0.13
					c-0.61,1.97-1.22,3.93-1.83,5.9c-0.27-0.83-0.82-1.57-1.53-2.07c-0.83,1.15-1.66,2.3-2.49,3.46c0.29-1.64,0.53-3.42,0.51-5.13
					c-2.36,1.84-3.95,4.72-3.95,7.73c-2.01-0.18-4.55-0.08-5.36,1.77c-0.94,2.12,1.3,3.78,0.97,5.76c-0.34,2-2.98,2.77-2.64,5.37
					c0.13,0.97,0.67,1.92,0.48,2.88c-0.14,0.72-0.67,1.33-0.82,2.05c-0.26,1.27,0.84,2.5,2.11,2.78
					c6.32-14.56,14.57-29.43,28.84-37.49c5.6-3.16,12.01-5.01,16.92-9.17C129.18,322.86,132.02,317.15,134.74,311.61z"/>
				<g>
					<path class="st13" d="M140.58,315.33c1.54-0.7,3.09-1.4,4.63-2.11c-0.32-2.39-3.51-2.92-5.92-2.85
						c0.64-3.06,1.69-6.04,3.1-8.82c-3.75,0.09-7.25,2.96-8.08,6.61c-0.11,0.47-0.18,0.95-0.29,1.42c0.84-0.35,1.72-0.57,2.62-0.63
						c-0.18,1.51-0.69,2.99-1.48,4.29c0.95,0.02,1.9,0.04,2.85,0.07c-0.16,0.88-0.89,1.53-1.58,2.11c-3.96,3.33-7.93,6.67-11.89,10
						c2.19,0.61,4.55,0.63,6.75,0.06c-1.48,1.05-2.96,2.09-4.44,3.14c-0.18,0.13,2.37,1.14,3.92,1.74c0.13-0.11,0.25-0.24,0.39-0.33
						c1.36-0.86,3.12-0.28,4.72-0.13c1.6,0.15,3.7-0.74,3.47-2.33c-0.17-1.15-1.49-1.74-2.65-1.82c-1.16-0.08-2.38,0.13-3.45-0.32
						c-0.75-1.71,0.91-3.48,2.51-4.45c1.6-0.96,3.54-2.05,3.68-3.91c0.03-0.33-0.01-0.67,0.13-0.97
						C139.77,315.72,140.19,315.51,140.58,315.33z"/>
					<path class="st14" d="M108.1,354.42c1.47-0.36,2.9-1.05,4.41-1.01c0.92,0.02,1.84,0.32,2.76,0.21c0.92-0.1,1.88-0.83,1.76-1.75
						c-0.11-0.85-1.04-1.31-1.85-1.61c-2.09-0.79-4.19-1.59-6.28-2.38c1.37-2.37,4.77-2.37,7.46-1.83c2.69,0.54,5.81,1.21,7.9-0.57
						c-0.12-0.86-0.23-1.72-0.35-2.58c2.72-0.16,5.44-0.31,8.16-0.47c1.39-0.08,3.26-0.71,3.04-2.08c-0.09-0.53-0.5-0.95-0.91-1.3
						c-0.99-0.84-2.11-1.53-3.29-2.06c-1.43,0.56-3.08,0.73-4.5,1.03c0.71,0.72-0.02,2.03-0.99,2.31c-0.97,0.28-2-0.04-3.01-0.14
						c-1.01-0.1-2.22,0.19-2.58,1.13c-0.19,0.52-0.08,1.15-0.39,1.61c-0.32,0.48-0.96,0.6-1.54,0.63c-2.96,0.19-5.88-0.65-8.83-1.02
						c-2.95-0.37-6.2-0.19-8.49,1.7c2.22,0.35,4.43,0.7,6.65,1.05c0.48,0.08,1.04,0.21,1.22,0.66c0.45,1.08-1.46,1.25-2.63,1.27
						c-1.43,0.03-2.77,1.1-3.11,2.49c2.97,0.2,5.92,0.7,8.79,1.48c-0.43,1.5-2.43,1.87-3.96,1.54c-1.53-0.33-3.06-1.08-4.58-0.74
						c-1.01,0.22-1.89,0.9-2.92,0.99c-1.09,0.1-2.12-0.48-3.19-0.7c-1.07-0.22-2.49,0.19-2.63,1.28c-0.17,1.27,1.4,1.92,2.42,2.69
						c1.03,0.78,1.53,2.08,1.51,3.37c0.75-0.18,1.5-0.37,2.19-0.68c2.07-0.93,3.52-3.11,3.56-5.38
						C104.84,354.73,106.63,354.79,108.1,354.42z"/>
				</g>
			</g>
			<g>
				<path class="st13" d="M34.2,267.71c0.81-0.04,0.59,3.33,1.03,3.89c0.47,0.58,1.09,1.04,1.49,1.67c0.54,0.86,0.58,1.93,0.64,2.95
					c0.21,3.63,0.8,7.24,1.75,10.75c1.21-1.19,2.42-2.38,3.63-3.58c0.57-0.56,1.29-1.16,2.06-0.95c0.4,4.58-0.07,9.49-0.25,14.09
					c-0.03,0.9,0.38,2.18,1.24,1.92c0.34-0.1,0.55-0.43,0.72-0.74c1.58-2.82,2.68-5.9,3.23-9.08c0.16-0.92,0.29-1.89,0.87-2.63
					c0.57-0.74,1.77-1.08,2.44-0.44c0.42,0.4,0.51,1.03,0.58,1.6c0.69,6.16,1.27,12.87-2.04,18.12c-0.89,1.42,0.51,2.48,1.23,3.63
					c0.64-0.34,2.36-1.5,3.11-1.24c0.19,0.07,0.36,0.2,0.56,0.23c0.46,0.07,0.8-0.41,0.95-0.85c0.63-1.78,0.11-3.78,0.46-5.64
					c0.45-2.34,2.4-4.31,4.74-4.78c0.29,1.45,0.26,2.96-0.09,4.39c-0.18,0.72-0.43,1.46-0.29,2.19c0.1,0.52,0.39,0.98,0.5,1.5
					c0.76,3.47-6.72,8.56-1.26,11.06c6.88,3.15,4.31-7.93,8.2-8.93c0.72,2.2,1.16,4.49,1.32,6.79c0.04,0.52,0.05,1.06-0.17,1.53
					c-0.35,0.75-1.21,1.15-1.61,1.87c-0.43,0.77-0.24,1.74-0.49,2.59c-0.32,1.08-1.32,1.83-1.84,2.83c-0.52,1-0.12,2.67,1.01,2.6
					c0.58-0.04,1.01-0.54,1.32-1.03c0.81-1.27,1.28-2.74,2.09-4c0.81-1.27,2.14-2.38,3.65-2.3c0.77,3.21,0.39,6.68-1.05,9.65
					c-0.65,1.33-1.5,2.56-2.08,3.92c-0.93,2.18-1.11,4.68-0.5,6.97c2.56-1.26,5.42-2.91,5.89-5.72c0.15-0.91,0.02-1.85,0.15-2.77
					c0.18-1.24,0.84-2.36,1.49-3.43c1.47-2.44,2.93-4.88,4.4-7.33c0.46-0.77,1.47-1.63,2.1-0.99c0.31,0.31,0.28,0.81,0.21,1.24
					c-0.73,4.48-3.75,8.69-2.91,13.15c0.11,0.59,0.29,1.17,0.27,1.77c-0.03,0.82-0.42,1.58-0.81,2.3c-1.05,1.97-6.92,9.68-3.17,11.5
					c2.51,1.22,6.92-7.54,8.36-9.64c1.58,2.39,0.67,5.64-0.8,8.11c-1.47,2.47-3.46,4.72-4.09,7.51c-0.39,1.74-0.21,3.55-0.31,5.33
					c-0.32,5.91-4.89,14.06-11.54,14.45c-7.07,0.41-6.16-10.03-12.02-10.58c-0.91-0.09-1.87,0.22-2.74-0.06
					c-1.85-0.61-1.94-3.19-3.09-4.76c-0.95-1.3-2.6-1.83-3.97-2.68c-1.37-0.84-2.61-2.48-1.97-3.96c2.52-0.92,5.33-1.02,7.92-0.29
					c0.53,0.15,1.07,0.33,1.61,0.26c1.64-0.23,2.02-2.55,1.33-4.06c-0.66-1.44-1.9-2.6-3.38-3.16c-1.86-0.7-4.01-0.47-5.79-1.34
					c-1.07-0.53-1.92-1.41-2.95-2.02c-1.58-0.94-4.92-0.46-3.98-2.96c4.42,0.48,8.83,0.91,13.27,1.13c0.52-1.65-0.68-3.43-2.23-4.21
					c-1.54-0.78-3.34-0.81-5.06-0.92c-1.72-0.11-3.54-0.34-4.91-1.4c-0.47-0.37-0.95-0.85-1.55-0.8c-0.41,0.04-0.74,0.32-1.11,0.51
					c-1.23,0.62-2.69,0.05-3.93-0.54c-1.48-0.71-2.95-1.46-4.39-2.25c1.45-1.6,3.93-1.68,6.07-1.37c2.14,0.31,4.37,0.88,6.41,0.18
					c-0.39-0.35-0.79-0.73-0.93-1.23c-0.14-0.5,0.11-1.15,0.62-1.24c0.38-0.06,0.73,0.18,1.06,0.36c1.11,0.61,2.51,0.63,3.64,0.07
					c0.47-0.89-0.25-2.01-1.16-2.43c-0.91-0.42-1.96-0.4-2.95-0.6s-2.04-0.75-2.27-1.73c-0.1-0.45-0.04-0.99-0.39-1.3
					c-0.24-0.21-0.58-0.23-0.9-0.23c-2.94-0.05-6.5,0.74-8.9-1.29c-0.81-0.68-1.42-1.61-2.34-2.14c-0.93-0.53-2.04-0.58-3.06-0.9
					c-1.02-0.32-2.06-1.09-2.06-2.16c0-0.2,0.04-0.4,0.18-0.55c0.16-0.18,0.42-0.22,0.66-0.26c1.98-0.3,4.07-0.59,5.92,0.17
					c0.78,0.32,1.64,0.83,2.42,0.48c0.47-0.21,0.79-0.71,1.3-0.83c0.38-0.09,0.76,0.05,1.13,0.16c1.56,0.47,6.9,0.58,5.59-2.61
					c-1.16-2.82-7.43-0.68-8.59-2.66c-0.15-0.25-0.13-0.56-0.12-0.86c0.02-0.88-0.09-1.81-0.61-2.52c-0.72-0.97-4.6-2.23-5.77-2.66
					c2.79-1.07,5.92-0.4,8.83,0.29c0.12-0.5-0.31-0.96-0.7-1.3c-1.83-1.59-3.74-3.23-6.06-3.94c-0.7-0.22-1.58-0.52-1.64-1.25
					c-0.02-0.3,0.11-0.58,0.2-0.87c0.91-3.15-4.76-3.22-6.19-5.43c-0.13-0.2-0.25-0.42-0.27-0.66c-0.06-0.82,1.07-1.17,1.88-0.99
					c0.6,0.14,7.66,1.29,7.29,1.78c0.84-1.12,0.52-2.78-0.32-3.9c-0.84-1.12-2.09-1.84-3.26-2.62c-4.45-2.95-8.13-7.03-10.61-11.76
					c-0.72-1.38-0.84-3.74,0.71-3.84c0.63-0.04,1.19,0.41,1.61,0.89c1.02,1.15,1.68,2.58,2.75,3.67c1.06,1.09,3.4,2.43,4.23,0.24
					c0.55-1.44-2.18-3.85-2.85-4.92c-1.95-3.14-1.8-6.01-4.49-8.9c-1.51-1.62-2.94-3.97-1.89-5.92c0.1-0.18,0.24-0.37,0.45-0.4
					c0.23-0.03,0.43,0.15,0.59,0.31c5.68,5.8,11.09,9.88,11.79,18.62c0.06,0.72,0.09,1.47,0.46,2.09c0.37,0.62,1.2,1.03,1.83,0.67
					c0.32-0.18-0.45-4.2,0.13-4.91C31.86,267.48,32.89,267.77,34.2,267.71z"/>
				<path class="st15" d="M87.95,339.81c-0.13-0.51-0.32-1.01-0.62-1.47c-1.44,2.1-5.85,10.86-8.36,9.64
					c-0.08-0.04-0.12-0.09-0.19-0.13c-0.07,0.13-0.15,0.25-0.22,0.38c-0.37,0.72-0.81,1.52-1.58,1.74
					c-0.78,0.22-1.72-0.79-1.15-1.36c-0.7,0.33-1.4,0.66-2.1,0.99c-0.33-2.14-0.2-4.43,0.82-6.34c0.71-1.33,1.8-2.4,2.64-3.65
					c0.84-1.25,1.42-2.83,0.93-4.25c-0.08-0.23-0.21-0.47-0.43-0.56c-0.28-0.11-0.6,0.05-0.86,0.2c-0.68,0.41-1.37,0.81-2.05,1.22
					c-1.03,0.8-2.25,1.46-3.41,2.03c-0.61-2.29-0.43-4.79,0.5-6.97c0.25-0.58,0.55-1.14,0.86-1.7c-0.5-0.59-1.21-0.96-1.95-0.79
					c-1.14,0.27-1.79,1.67-2.96,1.8c-1.11,0.13-2-1.07-2.02-2.19c-0.01-1.12,0.57-2.14,1.1-3.13c0.09-0.17,0.18-0.36,0.27-0.54
					c-0.51-0.51-0.62-1.57-0.25-2.3c0.06-0.11,0.14-0.21,0.21-0.32c-0.8,0.04-1.6,0.08-2.4,0.12c-0.26,0.01-0.54,0.02-0.75-0.14
					c-0.22-0.17-0.27-0.47-0.3-0.75c-0.13-1.7,0.4-3.46,0.8-5.17c-0.6,0.2-1.35,0.17-2.31-0.17c-0.81,1.92-1.76,3.71-3.1,4.33
					c-0.52-1.42-1.15-2.84-2.24-3.89c-1.59-1.53-3.89-1.93-5.44-3.46c-1.74-1.73-2.17-3.92-4.52-5.26c-0.5,1.64,0.79,3.22,1.88,4.53
					c3.09,3.71,5.34,8.04,7.56,12.34c-0.64-0.22-1.32-0.44-1.98-0.3c-0.66,0.14-1.27,0.77-1.12,1.43c0.16,0.7,0.98,0.98,1.62,1.31
					c0.64,0.33,1.22,1.21,0.7,1.71c-1.72,0.6-3.53,0.95-5.35,1.03c-0.99,0.04-2.03,0.02-2.94,0.42c-0.11,0.05-0.21,0.1-0.31,0.17
					c-0.76,0.48-1.3,1.37-1.04,2.21c0.29,0.94,0.92,1.35,1.67,1.52c0.53,0.03,1.06,0.07,1.58,0.11c0.98-0.02,1.96-0.12,2.64,0.18
					c0.72,0.32,1.21,0.7,1.5,1.08c1.17,0.9,1.95,2.37,1.52,3.75c-1.31-0.07-2.62-0.15-3.93-0.25c0.68,1.23,2.28,2.01,3.72,2.45
					c3.49,1.08,5.53,3.76,6.97,7.08c0.68,1.56,0.43,3.75-1.1,4.48c1.17,0.55,2.56,1.73,1.91,2.85c-0.58,1.01-2.16,0.66-3.17,1.24
					c-1.18,0.68-1.73,2.65-3.07,2.42c-1.67-0.29-2.39-1.01-3.4-1.19c1.15,1.57,1.24,4.15,3.09,4.76c0.87,0.29,1.83-0.02,2.74,0.06
					c5.87,0.56,4.95,11,12.02,10.58c6.65-0.39,11.22-8.53,11.54-14.45c0.04-0.79,0.03-1.59,0.04-2.38c-0.63-0.73-1.26-1.47-1.89-2.2
					c-0.22-0.25-0.44-0.52-0.5-0.84c-0.06-0.32,0.05-0.65,0.17-0.96c1.07-2.84,2.63-5.49,4.58-7.81c0.94-1.12,1.99-2.18,2.71-3.45
					C87.57,341.08,87.81,340.45,87.95,339.81z"/>
				<g>
					<path class="st16" d="M48.05,300.19c0.68,0.17,1.28,0.1,1.98,0.1c0.8,0.99,0.47,2.42,0.5,3.69c0.01,0.7,0.33,1.48,0.8,1.98
						c0.03-0.22,0.1-0.45,0.25-0.69c3.31-5.25,2.73-11.96,2.04-18.12c-0.06-0.58-0.15-1.2-0.58-1.6c-0.68-0.64-1.87-0.29-2.44,0.44
						c-0.57,0.74-0.71,1.71-0.87,2.63c-0.26,1.52-0.66,3.01-1.16,4.47C50.03,294.55,47.9,298.22,48.05,300.19z"/>
					<path class="st16" d="M32.78,319.36c2.35,1.3,5.46,0.69,8.08,0.74c0.09,0,0.18,0.01,0.28,0.01c-0.08-0.14-0.16-0.27-0.24-0.41
						c3.13,0.29,6.24,0.84,9.27,1.64c0.38-0.66-0.01-1.54-0.64-1.99c-0.62-0.44-1.4-0.58-2.14-0.78c-1.85-0.51-3.57-1.51-4.93-2.87
						c1.04-0.79,2.4-1.12,3.69-0.91c0.31-0.68-0.12-1.52-0.76-1.9c-0.64-0.39-1.42-0.43-2.17-0.43c-0.69,0-1.4,0.01-2.09-0.06
						c-1.33,0.85-4,0.7-5.02,0.39c-0.37-0.11-0.76-0.26-1.14-0.16c-0.5,0.12-0.82,0.62-1.29,0.83c-0.23,0.1-0.46,0.12-0.69,0.11
						c0.8,0.91,1.69,1.76,1.5,2.89C34.28,317.55,33.09,318.4,32.78,319.36z"/>
					<path class="st16" d="M20.79,273.05c1.2,0.52,0.81,1.48,1.47,2.27c0.95,1.14,1.61,1.85,2.78,2.9c2.31,2.09,3.95,4.58,6.73,6.17
						c-1.45-4.19-3-8.35-4.63-12.47c-0.88-2.2-3.71-5.86-3.11-8.34c0.21-0.88,0.83-1.54,1.6-1.95c-2.25-3.47-5.45-6.26-8.76-9.64
						c-0.16-0.17-0.36-0.34-0.59-0.31c-0.21,0.03-0.35,0.22-0.45,0.4c-1.05,1.95,0.38,4.29,1.89,5.92c2.68,2.89,2.53,5.75,4.49,8.9
						c0.66,1.07,3.39,3.48,2.84,4.92c-0.83,2.2-3.17,0.85-4.23-0.24c-1.07-1.1-1.74-2.53-2.75-3.67c-0.42-0.48-0.98-0.93-1.61-0.89
						c-1.55,0.09-1.43,2.46-0.71,3.84c0.87,1.67,1.9,3.25,3.06,4.73C18.27,273.54,18.63,272.11,20.79,273.05z"/>
					<path class="st16" d="M32.15,294.5c0.12,0.2,0.23,0.44,0.16,0.66c-0.14,0.44-0.76,0.39-1.22,0.47
						c-0.66,0.12-1.11,0.76-1.16,1.42c1.77,0.83,3.31,2.15,4.79,3.44c0.1,0.09,0.2,0.18,0.29,0.28c1.25,0.75,2.16,1.58,1.8,2.54
						c-0.32,0.84-1.62,1.22-1.53,2.11c0.05,0.45,0.46,0.76,0.75,1.12c0.45,0.55,0.59,1.27,0.5,1.97c1.14,0.04,2.34,0.05,3.32,0.31
						c0.18-0.21,0.32-0.46,0.36-0.73c0.14-0.92-0.39-1.8-0.99-2.51c-0.3-0.36-0.64-0.89-0.34-1.25c0.22-0.26,0.62-0.23,0.95-0.16
						c1.2,0.23,2.4,0.6,3.56,0.93c0.11-2.26-2.29-3.92-3.56-5.62c-1.6-2.16-2.38-5.36-4.52-7.05c-0.87-0.69-1.95-1.08-2.8-1.79
						c-0.83-0.69-1.42-1.64-2.19-2.39c-0.08,0.31-0.21,0.61-0.41,0.88c0.24-0.33-2.73-0.94-4.97-1.35
						C27.78,289.59,30.72,292.1,32.15,294.5z"/>
					<path class="st16" d="M39.29,286.78c-0.07,0.3-0.12,0.61-0.15,0.93c0.73-0.15,1.49-0.31,2.21-0.13
						c0.72,0.18,1.39,0.81,1.36,1.56c-0.02,0.42-0.25,0.8-0.44,1.18c-0.42,0.81-0.67,1.78-0.35,2.63c0.51,1.36,1.61,1.14,2.77,0.65
						c0.2-3.72,0.43-7.55,0.11-11.17c-0.77-0.21-1.5,0.4-2.06,0.95C41.59,284.51,40.44,285.65,39.29,286.78z"/>
					<path class="st16" d="M42.14,321.63c0.16,0.69,0.72,1.16,1.39,1.45C43.02,322.64,42.56,322.15,42.14,321.63L42.14,321.63z"/>
					<path class="st16" d="M50.91,327.47c-0.41-0.89-1.3-1.35-2.25-1.7c0,0.21-0.03,0.43-0.14,0.63c-1.13,0.57-2.53,0.54-3.64-0.07
						c-0.32-0.18-0.66-0.4-1.01-0.36c1,0.29,1.94,0.84,2.9,1.28C48.07,327.86,49.69,328.24,50.91,327.47z"/>
				</g>
				<path class="st17" d="M70.31,354.11c-3.39-12.21-7.96-25.04-15.71-35.24c-10.41-13.71-19.42-28.49-26.83-44.03
					c7.14,24.32,28.12,42.49,36.32,66.47c1.34,3.93,2.33,7.97,3.31,12c1.66,6.85,3.55,13.4,3.93,20.32
					c0.86-0.13,1.69-0.38,2.47-0.74C72.9,366.65,71.99,360.12,70.31,354.11z"/>
				<path class="st18" d="M70.31,354.11c-2.7-9.72-6.16-19.84-11.36-28.71c-0.11,1.13-0.25,2.26-0.42,3.39
					c2.16,4.03,4.07,8.18,5.56,12.52c1.34,3.93,2.33,7.97,3.31,12c1.66,6.85,3.55,13.4,3.93,20.32c0.86-0.13,1.69-0.38,2.47-0.74
					C72.9,366.65,71.99,360.12,70.31,354.11z"/>
			</g>
			<g>
				<path class="st19" d="M89.6,296.55c-0.57,0.07-0.03,2.4-0.28,2.83c-0.26,0.46-0.65,0.85-0.85,1.34
					c-0.28,0.66-0.19,1.42-0.11,2.13c0.27,2.56,0.27,5.15,0.01,7.71c-0.98-0.69-1.96-1.39-2.94-2.08c-0.46-0.33-1.04-0.66-1.55-0.43
					c0.24,3.25,1.14,6.62,1.79,9.82c0.13,0.62-0.02,1.57-0.65,1.49c-0.25-0.03-0.43-0.24-0.59-0.44c-1.43-1.79-2.55-3.82-3.29-5.98
					c-0.22-0.62-0.42-1.29-0.91-1.74c-0.48-0.45-1.36-0.55-1.76-0.03c-0.25,0.33-0.24,0.78-0.22,1.19c0.22,4.39,0.59,9.14,3.5,12.43
					c0.79,0.89-0.07,1.79-0.44,2.68c-0.49-0.17-1.82-0.78-2.32-0.51c-0.13,0.07-0.23,0.18-0.37,0.22c-0.31,0.1-0.61-0.2-0.76-0.48
					c-0.65-1.17-0.51-2.63-0.97-3.88c-0.58-1.58-2.17-2.74-3.86-2.8c-0.04,1.04,0.16,2.1,0.57,3.06c0.2,0.48,0.47,0.97,0.46,1.49
					c-0.01,0.37-0.16,0.73-0.18,1.1c-0.13,2.51,5.67,5.21,2.15,7.58c-4.45,2.99-3.92-5.05-6.75-5.3c-0.25,1.62-0.3,3.27-0.14,4.9
					c0.03,0.36,0.09,0.74,0.29,1.05c0.33,0.49,0.98,0.66,1.34,1.12c0.39,0.49,0.36,1.19,0.64,1.75c0.35,0.72,1.13,1.12,1.61,1.77
					c0.48,0.64,0.39,1.85-0.41,1.93c-0.41,0.04-0.77-0.26-1.04-0.57c-0.71-0.8-1.21-1.76-1.92-2.56c-0.71-0.79-1.77-1.42-2.81-1.19
					c-0.17,2.33,0.49,4.71,1.84,6.62c0.6,0.86,1.34,1.62,1.9,2.5c0.9,1.42,1.31,3.14,1.15,4.81c-1.93-0.59-4.12-1.41-4.77-3.32
					c-0.21-0.62-0.23-1.29-0.42-1.92c-0.27-0.85-0.86-1.55-1.43-2.23c-1.3-1.54-2.61-3.08-3.91-4.62c-0.41-0.49-1.21-0.97-1.58-0.45
					c-0.18,0.25-0.1,0.6,0,0.89c1.02,3.04,3.61,5.64,3.54,8.85c-0.01,0.42-0.07,0.85,0.01,1.27c0.11,0.57,0.48,1.05,0.83,1.52
					c0.96,1.26,5.94,5.97,3.53,7.67c-1.61,1.14-5.7-4.47-6.94-5.78c-0.83,1.85,0.18,4.02,1.49,5.57c1.31,1.55,2.96,2.9,3.72,4.78
					c0.47,1.17,0.56,2.45,0.83,3.69c0.9,4.09,5.03,9.26,9.72,8.77c4.98-0.52,3.15-7.71,7.19-8.77c0.63-0.17,1.33-0.06,1.91-0.36
					c1.22-0.64,0.99-2.45,1.62-3.68c0.52-1.02,1.61-1.58,2.47-2.33c0.86-0.75,1.54-2.03,0.93-2.99c-1.87-0.35-3.84-0.1-5.56,0.7
					c-0.35,0.16-0.71,0.36-1.1,0.36c-1.17,0.03-1.7-1.55-1.4-2.68c0.29-1.08,1.03-2.04,2-2.59c1.22-0.7,2.75-0.78,3.89-1.6
					c0.69-0.49,1.18-1.21,1.83-1.75c1-0.84,3.38-0.88,2.44-2.53c-3.03,0.84-6.06,1.65-9.14,2.31c-0.55-1.09,0.08-2.48,1.07-3.2
					c0.99-0.72,2.24-0.95,3.43-1.22c1.19-0.27,2.44-0.64,3.27-1.54c0.29-0.31,0.57-0.71,0.99-0.74c0.29-0.02,0.56,0.14,0.83,0.23
					c0.93,0.29,1.89-0.27,2.68-0.83c0.96-0.67,1.89-1.36,2.81-2.07c-1.2-0.95-2.94-0.72-4.4-0.26c-1.46,0.46-2.95,1.12-4.46,0.86
					c0.23-0.29,0.47-0.6,0.51-0.97c0.04-0.37-0.21-0.79-0.58-0.79c-0.27,0-0.49,0.21-0.7,0.37c-0.7,0.55-1.68,0.73-2.54,0.46
					c-0.43-0.57-0.05-1.43,0.53-1.83c0.59-0.4,1.32-0.51,1.99-0.76c0.67-0.25,1.34-0.76,1.38-1.47c0.02-0.33-0.08-0.7,0.12-0.95
					c0.14-0.18,0.38-0.23,0.6-0.27c2.04-0.37,4.63-0.23,6.07-1.92c0.49-0.57,0.81-1.29,1.39-1.76c0.59-0.48,1.36-0.64,2.03-0.98
					c0.68-0.34,1.32-1,1.19-1.74c-0.02-0.14-0.08-0.28-0.19-0.36c-0.13-0.11-0.32-0.11-0.49-0.11c-1.42,0.02-2.91,0.06-4.12,0.8
					c-0.51,0.31-1.05,0.77-1.63,0.61c-0.35-0.09-0.64-0.41-1-0.43c-0.27-0.02-0.53,0.12-0.77,0.24c-1.03,0.51-4.76,1.2-4.21-1.18
					c0.49-2.1,5.11-1.32,5.7-2.84c0.07-0.19,0.03-0.41-0.01-0.61c-0.12-0.61-0.15-1.27,0.14-1.83c0.39-0.76,2.96-2.09,3.72-2.52
					c-2.07-0.43-4.18,0.4-6.13,1.22c-0.14-0.34,0.11-0.7,0.34-0.99c1.1-1.32,2.24-2.68,3.78-3.45c0.46-0.23,1.05-0.54,1-1.06
					c-0.02-0.21-0.15-0.39-0.24-0.59c-1-2.1,2.96-2.79,3.71-4.5c0.07-0.16,0.13-0.32,0.11-0.49c-0.06-0.58-0.89-0.7-1.43-0.48
					c-0.4,0.16-5.21,1.78-4.89,2.08c-0.72-0.69-0.68-1.88-0.22-2.76c0.46-0.88,1.25-1.53,1.98-2.2c2.77-2.57,4.88-5.84,6.06-9.43
					c0.35-1.05,0.16-2.71-0.94-2.6c-0.45,0.05-0.78,0.43-1.02,0.81c-0.58,0.92-0.88,1.99-1.5,2.88c-0.62,0.88-2.09,2.09-2.93,0.65
					c-0.55-0.94,1.08-2.94,1.42-3.76c1-2.42,0.57-4.4,2.12-6.73c0.87-1.31,1.6-3.11,0.64-4.35c-0.09-0.12-0.21-0.23-0.36-0.23
					c-0.16,0-0.28,0.15-0.38,0.29c-3.3,4.7-6.62,8.17-6.1,14.36c0.04,0.51,0.11,1.04-0.08,1.51c-0.19,0.47-0.72,0.86-1.2,0.68
					c-0.24-0.09-0.16-2.98-0.65-3.42C91.21,296.13,90.52,296.44,89.6,296.55z"/>
				<path class="st20" d="M60.31,353.08c0.03-0.37,0.11-0.74,0.27-1.1c1.25,1.3,5.33,6.91,6.94,5.78c0.05-0.03,0.08-0.08,0.12-0.11
					c0.06,0.08,0.13,0.16,0.19,0.24c0.34,0.46,0.74,0.97,1.31,1.03c0.57,0.06,1.11-0.75,0.65-1.08c0.53,0.15,1.05,0.3,1.58,0.45
					c-0.02-1.53-0.36-3.12-1.3-4.33c-0.65-0.85-1.54-1.47-2.26-2.25c-0.73-0.78-1.32-1.81-1.13-2.86c0.03-0.17,0.09-0.35,0.24-0.44
					c0.19-0.11,0.42-0.04,0.63,0.04c0.52,0.21,1.05,0.41,1.57,0.62c0.81,0.44,1.74,0.77,2.61,1.03c0.16-1.67-0.25-3.39-1.15-4.81
					c-0.24-0.38-0.52-0.74-0.8-1.09c0.28-0.47,0.74-0.81,1.27-0.77c0.83,0.06,1.44,0.96,2.27,0.92c0.79-0.04,1.28-0.98,1.16-1.76
					c-0.12-0.78-0.64-1.43-1.12-2.06c-0.08-0.11-0.17-0.23-0.25-0.34c0.3-0.42,0.25-1.17-0.09-1.63c-0.05-0.07-0.12-0.13-0.18-0.2
					c0.56-0.06,1.13-0.13,1.69-0.19c0.18-0.02,0.38-0.05,0.5-0.18c0.13-0.14,0.14-0.36,0.12-0.56c-0.1-1.21-0.68-2.37-1.15-3.52
					c0.44,0.07,0.96-0.03,1.6-0.38c0.79,1.25,1.66,2.39,2.66,2.67c0.2-1.05,0.48-2.12,1.12-2.97c0.93-1.25,2.5-1.8,3.4-3.04
					c1.02-1.41,1.06-2.99,2.55-4.19c0.53,1.09-0.18,2.34-0.8,3.38c-1.74,2.95-2.81,6.23-3.87,9.49c0.42-0.22,0.87-0.46,1.35-0.44
					c0.48,0.02,0.98,0.39,0.95,0.87c-0.03,0.51-0.57,0.8-0.98,1.1c-0.41,0.31-0.71,0.98-0.29,1.27c1.27,0.22,2.57,0.26,3.86,0.11
					c0.7-0.08,1.42-0.22,2.1-0.04c0.08,0.02,0.16,0.05,0.24,0.08c0.58,0.25,1.06,0.81,0.98,1.42c-0.1,0.69-0.49,1.05-1,1.25
					c-0.36,0.08-0.73,0.17-1.09,0.26c-0.69,0.1-1.38,0.14-1.82,0.43c-0.47,0.3-0.76,0.62-0.92,0.93c-0.72,0.76-1.09,1.88-0.63,2.8
					c0.91-0.2,1.81-0.41,2.72-0.63c-0.33,0.94-1.36,1.66-2.32,2.14c-2.31,1.15-3.43,3.26-4.06,5.74c-0.29,1.17,0.13,2.67,1.28,3
					c-0.75,0.52-1.59,1.5-1.01,2.21c0.52,0.64,1.58,0.21,2.36,0.5c0.9,0.34,1.51,1.66,2.42,1.34c1.13-0.39,1.55-0.98,2.24-1.22
					c-0.62,1.23-0.39,3.04-1.61,3.68c-0.58,0.3-1.28,0.19-1.91,0.36c-4.03,1.06-2.2,8.25-7.19,8.77c-4.69,0.49-8.82-4.68-9.72-8.77
					c-0.12-0.55-0.21-1.1-0.3-1.66c0.36-0.59,0.71-1.17,1.07-1.76c0.12-0.2,0.25-0.41,0.25-0.65c0-0.23-0.11-0.45-0.23-0.65
					c-1.07-1.86-2.47-3.53-4.1-4.93c-0.79-0.68-1.64-1.29-2.29-2.1C60.72,353.92,60.47,353.51,60.31,353.08z"/>
				<path class="st21" d="M74.26,361.05c0.97-8.92,2.69-18.41,6.94-26.42c5.7-10.77,10.3-22.13,13.7-33.83
					c-2.2,17.81-14.78,32.9-17.76,50.6c-0.49,2.9-0.71,5.83-0.94,8.76c-0.38,4.97-0.94,9.77-0.42,14.65
					c-0.62,0.01-1.22-0.07-1.81-0.24C73.9,370.1,73.78,365.44,74.26,361.05z"/>
				<path class="st22" d="M74.26,361.05c0.78-7.1,2.03-14.56,4.65-21.36c0.21,0.78,0.44,1.55,0.68,2.32
					c-1.05,3.06-1.91,6.18-2.45,9.39c-0.49,2.9-0.71,5.83-0.94,8.76c-0.38,4.97-0.94,9.77-0.42,14.65
					c-0.62,0.01-1.22-0.07-1.81-0.24C73.9,370.1,73.78,365.44,74.26,361.05z"/>
			</g>
		</g>
		<g>
			<path class="st11" d="M679.44,78.61c0.73-0.05,1.37-0.19,1.71-0.47c0.6-0.5,0.35-1.47-0.05-2.14c-1.57-2.56-4.89-4.62-4.33-7.57
				c0.1-0.53,0.41-1.1,0.94-1.21c1.73-0.37,2.1,3.95,3.6,3.02c0.41-1.37-0.28-2.8-0.37-4.23c-0.09-1.42,1.1-3.19,2.41-2.63
				c0.19,1.31,0.52,2.59,0.98,3.83c0.69,1.85,2.23,3.87,4.16,3.46c1.73-0.37,2.46-2.5,2.3-4.26c-0.15-1.76-0.85-3.49-0.65-5.25
				c1.1-0.16,2.27,0.36,2.9,1.27c0.89-1.76,1.37-3.73,1.38-5.71c0.74-0.32,1.65-0.2,2.28,0.3c0.01,1.17,0.01,2.35,0.02,3.52
				c0.48,0.89,1.93,0.64,2.54-0.17c0.61-0.81,0.67-1.88,0.89-2.87c0.8-3.54,4.2-6.32,7.83-6.41c-1.37,2.7-2.39,5.59-3.01,8.56
				c2.34-0.07,5.43,0.44,5.74,2.76c-1.5,0.68-2.99,1.36-4.49,2.04c-0.38,0.17-0.79,0.37-0.96,0.75c-0.13,0.29-0.1,0.62-0.12,0.94
				c-0.14,1.8-2.02,2.85-3.57,3.79c-1.55,0.93-3.16,2.65-2.43,4.31c1.04,0.44,2.22,0.23,3.34,0.31c1.12,0.08,2.41,0.65,2.57,1.76
				c0.23,1.54-1.81,2.41-3.36,2.26c-1.55-0.15-3.26-0.71-4.58,0.12c-0.54,0.34-0.92,0.87-1.42,1.26c-1.06,0.82-2.51,0.89-3.77,1.35
				c-1.26,0.46-2.5,1.73-2.03,2.99c3.62-0.37,7.38,0.8,10.15,3.17c0.4,0.34,0.8,0.74,0.88,1.26c0.21,1.33-1.6,1.94-2.94,2.02
				c-2.64,0.15-5.27,0.3-7.91,0.46c0.11,0.83,0.23,1.67,0.34,2.5c-2.02,1.72-5.06,1.08-7.66,0.55c-2.61-0.53-5.9-0.53-7.23,1.77
				c2.03,0.77,4.06,1.54,6.09,2.31c0.78,0.3,1.68,0.73,1.79,1.56c0.12,0.89-0.82,1.6-1.71,1.7c-0.89,0.1-1.78-0.18-2.67-0.21
				c-1.47-0.04-2.85,0.63-4.28,0.98s-3.16,0.3-4.09-0.83c-0.04,2.2-1.44,4.32-3.45,5.22c-1.91,0.86-4.37,0.76-5.7,2.37
				c-0.73,0.88-0.93,2.07-1.46,3.08c-1.25,2.38-3.57,2.67-5.63,3.97c-1.63,1.03-2.81,2.48-4.4,3.63c-1.06,0.76-2.35,1.33-3.63,1.11
				c-1.28-0.22-2.44-1.46-2.18-2.73c0.14-0.7,0.66-1.28,0.79-1.99c0.18-0.93-0.34-1.85-0.47-2.79c-0.33-2.52,2.23-3.27,2.56-5.21
				c0.32-1.91-1.85-3.53-0.94-5.58c0.79-1.79,3.25-1.89,5.2-1.71c0-4.53,3.69-8.77,8.17-9.39c0.11-2.75,0.22-5.49,0.33-8.24
				c0.03-0.83,0.07-1.68,0.42-2.43c0.99-2.11,4.58-2.14,5.61-0.06c0.66,1.34,1.05,3.59,2.49,3.19c0.19-1,0.38-1.99,0.57-2.99
				c0.99,0.26,1.85-0.77,2.16-1.75c0.31-0.98,0.4-2.11,1.15-2.81c1.28-1.2,3.8,0.37,3.29,2.05
				C676.29,78.5,678.04,78.71,679.44,78.61z"/>
			<path class="st12" d="M700.56,60.84c-1.44,2.23-3.15,4.28-5.08,6.1c-0.26-1.2-0.97-2.3-1.96-3.03c-0.42,1.38-0.83,2.75-1.25,4.13
				c-0.11,0.36-0.23,0.74-0.53,0.97c-0.45,0.34-0.91,0.18-1.3-0.2c-0.37,0.92-1,1.66-1.95,1.86c-1.93,0.41-3.47-1.61-4.16-3.46
				c-0.46-1.24-0.79-2.52-0.98-3.83c-1.31-0.56-2.5,1.2-2.41,2.63c0.09,1.42,0.78,2.86,0.37,4.23c-1.5,0.93-1.88-3.39-3.6-3.02
				c-0.53,0.11-0.84,0.68-0.94,1.21c-0.56,2.95,2.76,5.01,4.33,7.57c0.41,0.66,0.65,1.64,0.05,2.14c-0.34,0.29-0.98,0.42-1.71,0.47
				c-1.4,0.1-3.15-0.11-3.93-0.15c0.16-0.54,0.01-1.06-0.31-1.49c-0.46,0.19-0.97,0.25-1.45,0.07c-0.18,1.2-1.43,2.09-2.62,1.95
				c-0.02,0.08-0.04,0.16-0.06,0.23c-0.13,0.42-0.37,0.85-0.68,1.18c-0.39,0.68-1.01,1.25-1.72,1.79c-0.11,0.59-0.23,1.18-0.34,1.77
				c-0.57,0.16-0.97-0.11-1.3-0.56c-1.1,0.83-2.08,1.73-2.37,2.99c-0.73-2.12-0.01-4.41,0.19-6.65c-0.86-0.53-1.99-0.63-2.97-0.3
				c0.01,3.5,0.03,7,0.04,10.49c0,0.52-0.01,1.1-0.36,1.49c-0.34,0.39-1.14,0.38-1.27-0.12c-0.59,1.91-1.18,3.81-1.77,5.72
				c-0.26-0.81-0.79-1.52-1.49-2.01c-0.8,1.12-1.61,2.23-2.41,3.35c0.28-1.59,0.51-3.31,0.5-4.97c-2.29,1.79-3.83,4.58-3.83,7.5
				c-1.95-0.18-4.41-0.08-5.2,1.71c-0.91,2.06,1.26,3.67,0.94,5.58c-0.33,1.94-2.89,2.69-2.56,5.21c0.12,0.94,0.65,1.86,0.47,2.79
				c-0.13,0.7-0.65,1.29-0.79,1.99c-0.25,1.23,0.82,2.42,2.05,2.7c6.13-14.11,14.13-28.54,27.97-36.35
				c5.43-3.07,11.65-4.86,16.41-8.89C695.16,71.75,697.92,66.21,700.56,60.84z"/>
			<g>
				<path class="st13" d="M706.22,64.45c1.5-0.68,2.99-1.36,4.49-2.04c-0.31-2.32-3.4-2.83-5.74-2.76c0.62-2.97,1.64-5.85,3.01-8.56
					c-3.63,0.09-7.03,2.87-7.83,6.41c-0.1,0.45-0.17,0.92-0.28,1.38c0.81-0.34,1.67-0.56,2.54-0.61c-0.17,1.47-0.67,2.9-1.44,4.16
					c0.92,0.02,1.84,0.04,2.76,0.06c-0.16,0.85-0.87,1.48-1.53,2.04c-3.84,3.23-7.69,6.46-11.53,9.69c2.13,0.59,4.41,0.61,6.55,0.06
					c-1.44,1.01-2.87,2.03-4.31,3.04c-0.17,0.12,2.3,1.11,3.8,1.69c0.12-0.11,0.24-0.23,0.38-0.32c1.32-0.84,3.02-0.27,4.58-0.12
					c1.55,0.15,3.59-0.72,3.36-2.26c-0.16-1.11-1.45-1.69-2.57-1.76c-1.12-0.08-2.3,0.13-3.34-0.31c-0.73-1.66,0.88-3.38,2.43-4.31
					c1.55-0.93,3.43-1.98,3.57-3.79c0.02-0.32-0.01-0.65,0.12-0.94C705.43,64.83,705.84,64.62,706.22,64.45z"/>
				<path class="st14" d="M674.72,102.36c1.43-0.35,2.81-1.02,4.28-0.98c0.9,0.02,1.78,0.31,2.67,0.21c0.89-0.1,1.83-0.81,1.71-1.7
					c-0.11-0.83-1.01-1.27-1.79-1.56c-2.03-0.77-4.06-1.54-6.09-2.31c1.33-2.3,4.63-2.3,7.23-1.77c2.61,0.53,5.64,1.17,7.66-0.55
					c-0.11-0.83-0.23-1.67-0.34-2.5c2.64-0.15,5.27-0.3,7.91-0.46c1.35-0.08,3.16-0.68,2.94-2.02c-0.08-0.52-0.48-0.92-0.88-1.26
					c-0.96-0.82-2.04-1.48-3.19-2c-1.39,0.55-2.99,0.71-4.37,1c0.69,0.7-0.02,1.97-0.96,2.24c-0.94,0.27-1.94-0.04-2.92-0.14
					c-0.98-0.09-2.16,0.18-2.5,1.1c-0.19,0.51-0.08,1.12-0.38,1.57c-0.31,0.46-0.94,0.58-1.49,0.61c-2.87,0.18-5.71-0.63-8.56-0.99
					s-6.01-0.19-8.23,1.65c2.15,0.34,4.3,0.68,6.45,1.01c0.46,0.07,1.01,0.2,1.18,0.64c0.43,1.05-1.42,1.21-2.55,1.23
					c-1.38,0.02-2.69,1.07-3.02,2.41c2.88,0.2,5.74,0.68,8.52,1.43c-0.42,1.46-2.36,1.81-3.84,1.49c-1.48-0.32-2.96-1.05-4.44-0.72
					c-0.98,0.21-1.83,0.87-2.83,0.96c-1.06,0.09-2.05-0.47-3.1-0.68c-1.04-0.21-2.41,0.19-2.55,1.24c-0.16,1.23,1.36,1.86,2.34,2.61
					c1,0.76,1.48,2.02,1.46,3.27c0.73-0.18,1.46-0.36,2.12-0.66c2.01-0.9,3.41-3.02,3.45-5.22
					C671.56,102.66,673.29,102.71,674.72,102.36z"/>
			</g>
		</g>
		<g>
			<path class="st19" d="M657.18,35.56c-0.67,0.08-0.03,2.78-0.32,3.29c-0.3,0.54-0.75,0.99-0.99,1.55
				c-0.32,0.77-0.22,1.64-0.13,2.48c0.31,2.97,0.31,5.98,0.01,8.95c-1.14-0.81-2.28-1.61-3.42-2.42c-0.53-0.38-1.21-0.77-1.8-0.5
				c0.28,3.77,1.32,7.69,2.08,11.4c0.15,0.73-0.02,1.82-0.75,1.73c-0.29-0.04-0.5-0.28-0.68-0.51c-1.66-2.08-2.96-4.43-3.83-6.94
				c-0.25-0.72-0.49-1.5-1.05-2.02c-0.56-0.52-1.58-0.64-2.04-0.03c-0.29,0.38-0.28,0.9-0.25,1.38c0.26,5.09,0.68,10.62,4.07,14.43
				c0.91,1.03-0.08,2.08-0.52,3.11c-0.57-0.19-2.11-0.9-2.69-0.59c-0.15,0.08-0.27,0.21-0.42,0.26c-0.36,0.11-0.7-0.23-0.89-0.56
				c-0.75-1.36-0.59-3.05-1.13-4.51c-0.67-1.84-2.52-3.18-4.48-3.25c-0.04,1.21,0.18,2.44,0.66,3.55c0.24,0.56,0.54,1.13,0.53,1.74
				c-0.01,0.43-0.18,0.85-0.21,1.28c-0.15,2.92,6.59,6.06,2.5,8.81c-5.16,3.48-4.55-5.86-7.84-6.16c-0.29,1.88-0.35,3.8-0.17,5.69
				c0.04,0.42,0.1,0.86,0.34,1.22c0.38,0.56,1.14,0.77,1.56,1.3c0.45,0.57,0.42,1.38,0.74,2.04c0.41,0.84,1.32,1.31,1.87,2.05
				c0.56,0.75,0.45,2.15-0.47,2.24c-0.48,0.05-0.89-0.3-1.21-0.66c-0.83-0.92-1.4-2.05-2.23-2.97c-0.83-0.92-2.05-1.65-3.27-1.38
				c-0.2,2.71,0.57,5.47,2.14,7.69c0.7,0.99,1.56,1.88,2.21,2.9c1.04,1.65,1.52,3.65,1.33,5.59c-2.24-0.68-4.79-1.64-5.54-3.86
				c-0.24-0.72-0.26-1.5-0.49-2.23c-0.31-0.98-1-1.8-1.67-2.59c-1.51-1.79-3.03-3.57-4.54-5.36c-0.48-0.57-1.41-1.13-1.84-0.52
				c-0.21,0.29-0.12,0.7,0,1.04c1.19,3.53,4.2,6.55,4.11,10.28c-0.01,0.49-0.08,0.99,0.02,1.47c0.13,0.66,0.55,1.23,0.96,1.76
				c1.11,1.46,6.9,6.93,4.1,8.91c-1.87,1.32-6.62-5.2-8.06-6.71c-0.97,2.15,0.21,4.67,1.73,6.47c1.52,1.81,3.44,3.37,4.32,5.55
				c0.55,1.36,0.65,2.85,0.96,4.28c1.05,4.76,5.84,10.76,11.29,10.19c5.79-0.6,3.66-8.96,8.35-10.19c0.73-0.19,1.54-0.07,2.21-0.41
				c1.42-0.74,1.15-2.85,1.88-4.28c0.6-1.18,1.87-1.83,2.87-2.7c1-0.87,1.79-2.36,1.08-3.48c-2.17-0.41-4.46-0.12-6.46,0.82
				c-0.41,0.19-0.82,0.41-1.27,0.42c-1.36,0.03-1.98-1.8-1.62-3.12c0.34-1.26,1.2-2.36,2.32-3.01c1.42-0.82,3.19-0.91,4.52-1.86
				c0.8-0.57,1.37-1.4,2.13-2.03c1.16-0.97,3.93-1.03,2.84-2.93c-3.52,0.98-7.05,1.91-10.62,2.69c-0.64-1.27,0.1-2.88,1.25-3.71
				c1.15-0.84,2.6-1.1,3.99-1.42c1.39-0.32,2.83-0.75,3.8-1.79c0.33-0.36,0.66-0.82,1.15-0.86c0.34-0.03,0.65,0.16,0.97,0.26
				c1.08,0.34,2.19-0.32,3.12-0.96c1.11-0.77,2.2-1.58,3.26-2.41c-1.39-1.11-3.41-0.84-5.11-0.3s-3.43,1.3-5.18,1
				c0.27-0.34,0.54-0.7,0.59-1.12c0.05-0.43-0.24-0.92-0.67-0.92c-0.31,0-0.57,0.24-0.81,0.43c-0.82,0.64-1.95,0.85-2.95,0.54
				c-0.5-0.66-0.06-1.66,0.62-2.13c0.68-0.47,1.54-0.59,2.31-0.88s1.56-0.88,1.61-1.71c0.02-0.38-0.1-0.81,0.14-1.1
				c0.16-0.2,0.44-0.26,0.7-0.31c2.38-0.43,5.38-0.27,7.05-2.23c0.57-0.66,0.94-1.5,1.61-2.05c0.68-0.55,1.58-0.74,2.36-1.13
				c0.78-0.39,1.53-1.16,1.38-2.03c-0.03-0.16-0.09-0.32-0.22-0.42c-0.16-0.12-0.37-0.13-0.57-0.12c-1.64,0.02-3.38,0.07-4.78,0.93
				c-0.59,0.36-1.22,0.89-1.9,0.71c-0.41-0.11-0.74-0.47-1.16-0.5c-0.32-0.02-0.61,0.14-0.9,0.28c-1.2,0.59-5.53,1.39-4.89-1.37
				c0.56-2.44,5.94-1.54,6.62-3.3c0.09-0.22,0.03-0.48-0.01-0.71c-0.14-0.71-0.17-1.48,0.16-2.12c0.46-0.88,3.44-2.42,4.33-2.92
				c-2.41-0.5-4.85,0.47-7.12,1.41c-0.17-0.39,0.12-0.82,0.39-1.15c1.28-1.54,2.6-3.12,4.39-4.01c0.54-0.27,1.22-0.63,1.16-1.23
				c-0.02-0.25-0.17-0.46-0.28-0.68c-1.16-2.44,3.44-3.24,4.31-5.23c0.08-0.18,0.15-0.37,0.13-0.57c-0.06-0.68-1.03-0.81-1.66-0.55
				c-0.47,0.19-6.05,2.06-5.68,2.42c-0.83-0.8-0.79-2.19-0.26-3.21c0.53-1.02,1.45-1.77,2.3-2.56c3.22-2.98,5.67-6.79,7.05-10.95
				c0.4-1.22,0.19-3.15-1.09-3.02c-0.52,0.05-0.91,0.49-1.19,0.94c-0.67,1.07-1.02,2.32-1.75,3.35c-0.72,1.03-2.43,2.42-3.4,0.75
				c-0.64-1.1,1.26-3.41,1.66-4.37c1.17-2.81,0.66-5.11,2.46-7.82c1.01-1.52,1.86-3.61,0.74-5.05c-0.1-0.14-0.25-0.27-0.42-0.27
				c-0.19,0-0.33,0.18-0.44,0.33c-3.84,5.46-7.69,9.49-7.09,16.68c0.05,0.59,0.12,1.2-0.09,1.76c-0.22,0.55-0.84,1-1.39,0.79
				c-0.28-0.11-0.19-3.47-0.76-3.97C659.05,35.07,658.24,35.44,657.18,35.56z"/>
			<path class="st20" d="M623.15,101.23c0.04-0.43,0.13-0.86,0.31-1.28c1.45,1.51,6.19,8.03,8.06,6.71
				c0.06-0.04,0.09-0.09,0.14-0.13c0.07,0.1,0.15,0.19,0.23,0.28c0.4,0.53,0.86,1.13,1.52,1.2c0.66,0.07,1.29-0.87,0.76-1.26
				c0.61,0.17,1.22,0.35,1.84,0.52c-0.02-1.78-0.42-3.62-1.51-5.04c-0.75-0.98-1.78-1.71-2.63-2.61c-0.85-0.9-1.53-2.11-1.32-3.32
				c0.03-0.2,0.11-0.41,0.28-0.52c0.22-0.13,0.49-0.04,0.73,0.05c0.61,0.24,1.22,0.48,1.83,0.72c0.95,0.51,2.02,0.89,3.03,1.2
				c0.19-1.94-0.29-3.94-1.33-5.59c-0.28-0.44-0.6-0.85-0.92-1.26c0.32-0.55,0.86-0.94,1.48-0.9c0.96,0.07,1.68,1.12,2.64,1.07
				c0.92-0.05,1.48-1.13,1.35-2.04c-0.14-0.91-0.75-1.66-1.31-2.39c-0.1-0.13-0.19-0.26-0.29-0.4c0.35-0.48,0.3-1.36-0.11-1.9
				c-0.06-0.08-0.14-0.15-0.21-0.23c0.65-0.07,1.31-0.15,1.96-0.22c0.21-0.02,0.44-0.06,0.59-0.21c0.15-0.17,0.16-0.42,0.14-0.65
				c-0.12-1.4-0.78-2.75-1.33-4.09c0.51,0.08,1.12-0.04,1.85-0.44c0.91,1.45,1.93,2.78,3.09,3.1c0.24-1.22,0.56-2.46,1.3-3.46
				c1.08-1.45,2.9-2.09,3.95-3.53c1.19-1.64,1.24-3.47,2.97-4.87c0.62,1.26-0.21,2.71-0.92,3.92c-2.02,3.43-3.26,7.24-4.49,11.02
				c0.49-0.26,1.01-0.53,1.57-0.51c0.55,0.02,1.13,0.46,1.1,1.01c-0.03,0.59-0.67,0.93-1.14,1.28c-0.48,0.35-0.83,1.14-0.34,1.48
				c1.48,0.26,2.99,0.3,4.48,0.13c0.81-0.1,1.65-0.26,2.44-0.05c0.09,0.02,0.18,0.06,0.27,0.09c0.68,0.29,1.23,0.94,1.13,1.65
				c-0.11,0.81-0.57,1.22-1.16,1.46c-0.42,0.1-0.85,0.19-1.27,0.3c-0.8,0.11-1.61,0.17-2.12,0.5c-0.54,0.35-0.89,0.72-1.07,1.08
				c-0.83,0.89-1.27,2.18-0.73,3.25c1.06-0.23,2.11-0.47,3.15-0.73c-0.39,1.09-1.58,1.93-2.69,2.48c-2.69,1.34-3.99,3.78-4.71,6.67
				c-0.34,1.36,0.15,3.1,1.49,3.49c-0.88,0.61-1.85,1.74-1.17,2.57c0.61,0.74,1.84,0.25,2.74,0.59c1.05,0.39,1.75,1.92,2.81,1.56
				c1.32-0.46,1.8-1.14,2.6-1.42c-0.72,1.43-0.45,3.53-1.88,4.27c-0.67,0.35-1.48,0.22-2.21,0.41c-4.69,1.23-2.56,9.58-8.35,10.19
				c-5.45,0.57-10.24-5.43-11.29-10.19c-0.14-0.64-0.24-1.28-0.35-1.92c0.41-0.68,0.83-1.36,1.24-2.04
				c0.14-0.23,0.29-0.48,0.29-0.75c0-0.27-0.13-0.52-0.26-0.75c-1.25-2.16-2.87-4.1-4.76-5.73c-0.92-0.78-1.9-1.5-2.66-2.44
				C623.63,102.21,623.34,101.73,623.15,101.23z"/>
			<path class="st21" d="M639.36,110.49c1.13-10.36,3.13-21.38,8.06-30.69c6.63-12.51,11.97-25.7,15.92-39.3
				c-2.56,20.69-17.16,38.22-20.63,58.78c-0.57,3.37-0.83,6.78-1.09,10.18c-0.44,5.78-1.09,11.35-0.48,17.01
				c-0.72,0.01-1.42-0.08-2.1-0.28C638.94,121.01,638.81,115.59,639.36,110.49z"/>
			<path class="st22" d="M639.36,110.49c0.9-8.25,2.36-16.92,5.4-24.81c0.24,0.9,0.51,1.8,0.79,2.69c-1.22,3.56-2.22,7.18-2.84,10.9
				c-0.57,3.37-0.83,6.78-1.09,10.18c-0.44,5.78-1.09,11.35-0.48,17.01c-0.72,0.01-1.42-0.08-2.1-0.28
				C638.94,121.01,638.81,115.59,639.36,110.49z"/>
		</g>
		<g>
			<path class="st23" d="M366.94,286.51c-0.88-0.62-1.78-1.21-2.72-1.76c6.38,8.74,11.38,18.12,16.88,27.36
				c3.55-0.63,7.17-0.96,10.8-1.24c0.01-0.66,0-1.28-0.05-1.82c-0.49-5.68-3.72-10.01-6.08-14.91c-2.75-5.72-4.57-9.55-7.9-14.99
				c-1.8-2.93-11.71-14.79-11.78-15.1c0.46,2.13,1.47,4.1,2.47,6.04c5.5,10.67,11.09,20.66,13.98,32.34
				C377.71,296.75,373.08,290.87,366.94,286.51z"/>
			<path class="st24" d="M382.48,302.39c-0.01-0.03-0.03-0.05-0.04-0.08c-2.59-3.05-5.14-6.15-7.89-9.05
				c1.92,3.84,3.84,7.68,5.76,11.51c0.91,1.82,1.61,4.49-0.15,5.52c-0.03,0.02-0.07,0.03-0.1,0.04c0.35,0.59,0.7,1.18,1.06,1.77
				c3.55-0.63,7.17-0.96,10.79-1.24c0.01-0.66,0-1.28-0.05-1.82c-0.49-5.68-3.72-10.01-6.07-14.91c-2.18-4.54-3.79-7.9-6.02-11.81
				c0.74,2.24,1.46,4.48,2.14,6.73c1.22,4.02,2.37,8.29,1.31,12.36c-0.1,0.4-0.3,0.84-0.68,0.94c0.01,0.02,0.01,0.05,0.02,0.07
				c-0.02-0.02-0.03-0.04-0.05-0.06C382.49,302.38,382.48,302.38,382.48,302.39z"/>
		</g>
		<g>
			<path class="st23" d="M229.58,321.1c1.04,14.76,1.55,29.56,1.54,44.36c-5.19-8.35-10.43-16.67-15.7-24.97
				c-0.05,4.01,1.12,7.93,2.28,11.77c2,6.62,4,13.23,6,19.85c-2.72-2.53-5.83-4.65-9.18-6.25c1.14,3.22,2.47,6.38,3.98,9.45
				c0.37,0.76,0.77,1.53,1.43,2.05c0.88,0.7,2.07,0.82,3.2,0.9c5.06,0.37,12.98,0.61,16.54-3.93c2.96-3.78,0.81-7.91,0.04-12.3
				C237.25,348.04,234.57,334.48,229.58,321.1z"/>
			<path class="st24" d="M239.67,374.35c2.96-3.78,0.81-7.91,0.04-12.3c-0.39-2.24-0.8-4.46-1.21-6.67
				c-0.08,3.45-0.17,6.9-0.25,10.34c-0.06,2.61-0.33,5.61-2.46,7.11c-0.56,0.4-1.27,0.66-1.95,0.51c-1.47-0.33-1.86-2.2-2.02-3.7
				c-0.16-1.53-0.41-3.06-0.7-4.57c0,0.13,0,0.27,0,0.4c-1.65-2.65-3.33-5.29-4.99-7.94c1.64,5.87,3.02,11.81,4.09,17.81
				c-2.72-0.19-4.9-1.77-6.71-3.87c0.07,0.22,0.13,0.44,0.2,0.65c-0.87-0.81-1.8-1.57-2.75-2.29c0.45,1.59,0.89,3.19,1.34,4.78
				c0.18,0.65,0.37,1.34,0.2,2c-0.19,0.76-0.54,1.2-0.98,1.46c0.53,0.12,1.08,0.17,1.62,0.21
				C228.2,378.65,236.11,378.89,239.67,374.35z"/>
		</g>
		<g>
			<path class="st23" d="M281.42,317.07c-9.88,11.94-17.07,26.1-20.88,41.13c6.87-13.04,16.25-24.75,27.48-34.3
				c-5.81,4.94-9.89,16.19-13.34,22.89c-3.24,6.28-6.52,12.56-10.27,18.56c-1.78,2.86-2.85,5.11-5.84,6.37
				c-3.29,1.38-7.95,1.28-11.46,1.33c-1.02-8.13,5.75-17.64,9.71-24.24C263.78,337.23,272.86,327.43,281.42,317.07z"/>
			<path class="st24" d="M280.75,334.16c-1.4,1.72-2.65,3.61-3.84,5.46c-0.07,0.1-0.13,0.2-0.19,0.3c-5,7.78-10,15.56-15.01,23.34
				c-1.47,2.29-2.95,4.59-4.78,6.61c-1.31-1.17,1.71-7.94,2.33-9.41c0.48-1.14,1.02-2.26,1.59-3.36c1.53-5.75,3.55-11.37,6.03-16.78
				c-2.37,3.3-4.33,6.96-6.08,10.38c-3.64,7.12-6.28,14.7-8.9,22.23c2.36-0.12,4.76-0.42,6.69-1.23c2.99-1.26,4.06-3.51,5.84-6.37
				c3.74-6,7.03-12.28,10.27-18.56C276.48,343.3,278.45,338.58,280.75,334.16z"/>
		</g>
		<g>
			<path class="st13" d="M609.99,80.04c-0.51,0-0.27,2.11-0.54,2.47c-0.28,0.38-0.66,0.68-0.89,1.09c-0.31,0.56-0.31,1.23-0.32,1.87
				c-0.03,2.29-0.3,4.57-0.8,6.8c-0.79-0.71-1.59-1.43-2.38-2.14c-0.37-0.33-0.85-0.69-1.32-0.54c-0.12,2.89,0.31,5.96,0.55,8.85
				c0.05,0.56-0.18,1.38-0.73,1.24c-0.22-0.05-0.36-0.26-0.47-0.45c-1.07-1.72-1.85-3.63-2.28-5.62c-0.13-0.57-0.24-1.18-0.62-1.63
				s-1.14-0.63-1.55-0.21c-0.25,0.26-0.29,0.66-0.32,1.02c-0.26,3.89-0.43,8.12,1.79,11.33c0.6,0.86-0.25,1.57-0.67,2.32
				c-0.41-0.2-1.52-0.88-1.99-0.69c-0.12,0.05-0.22,0.13-0.35,0.16c-0.29,0.05-0.51-0.24-0.62-0.51c-0.45-1.1-0.18-2.37-0.45-3.53
				c-0.35-1.46-1.63-2.64-3.11-2.87c-0.14,0.92-0.08,1.87,0.18,2.76c0.13,0.45,0.31,0.9,0.25,1.37c-0.05,0.33-0.22,0.63-0.27,0.95
				c-0.38,2.2,4.46,5.19,1.11,6.91c-4.23,2.18-2.93-4.86-5.4-5.38c-0.39,1.4-0.61,2.85-0.64,4.31c-0.01,0.33,0,0.67,0.15,0.95
				c0.24,0.46,0.79,0.69,1.07,1.13c0.29,0.47,0.2,1.09,0.38,1.61c0.23,0.67,0.88,1.11,1.24,1.73c0.36,0.62,0.15,1.68-0.56,1.66
				c-0.37-0.01-0.65-0.31-0.86-0.61c-0.54-0.78-0.88-1.68-1.43-2.46c-0.55-0.77-1.41-1.43-2.36-1.34c-0.39,2.04-0.06,4.21,0.93,6.03
				c0.44,0.82,1.01,1.56,1.41,2.4c0.64,1.35,0.83,2.91,0.51,4.36c-1.64-0.72-3.49-1.68-3.86-3.43c-0.12-0.57-0.06-1.16-0.17-1.73
				c-0.15-0.78-0.6-1.46-1.03-2.12c-0.99-1.49-1.98-2.99-2.97-4.48c-0.31-0.47-0.97-0.98-1.35-0.56c-0.18,0.2-0.15,0.52-0.09,0.79
				c0.59,2.79,2.6,5.35,2.2,8.18c-0.05,0.37-0.15,0.74-0.12,1.12c0.04,0.51,0.31,0.98,0.57,1.42c0.72,1.21,4.62,5.89,2.32,7.13
				c-1.54,0.83-4.56-4.54-5.52-5.82c-0.93,1.55-0.26,3.56,0.73,5.07c0.99,1.51,2.31,2.87,2.78,4.61c0.29,1.08,0.23,2.22,0.35,3.34
				c0.37,3.71,3.47,8.69,7.66,8.75c4.45,0.06,3.58-6.47,7.25-6.99c0.57-0.08,1.18,0.09,1.72-0.12c1.15-0.43,1.13-2.06,1.81-3.08
				c0.56-0.84,1.58-1.23,2.42-1.79s1.57-1.63,1.13-2.54c-1.61-0.51-3.38-0.49-4.98,0.04c-0.33,0.11-0.66,0.24-1.01,0.21
				c-1.04-0.1-1.34-1.55-0.95-2.51c0.37-0.92,1.12-1.69,2.04-2.08c1.15-0.49,2.5-0.41,3.6-1.01c0.66-0.36,1.17-0.94,1.8-1.35
				c0.97-0.63,3.08-0.43,2.42-1.97c-2.76,0.43-5.52,0.82-8.3,1.09c-0.37-1.02,0.33-2.18,1.28-2.71c0.95-0.53,2.07-0.61,3.15-0.72
				s2.22-0.31,3.04-1.02c0.29-0.24,0.57-0.56,0.95-0.55c0.26,0.01,0.48,0.18,0.71,0.29c0.79,0.35,1.69-0.04,2.45-0.45
				c0.91-0.49,1.81-1,2.69-1.54c-0.96-0.97-2.52-0.95-3.85-0.69c-1.34,0.25-2.72,0.68-4.02,0.3c0.23-0.23,0.48-0.48,0.55-0.8
				c0.07-0.32-0.1-0.72-0.43-0.76c-0.24-0.03-0.45,0.13-0.66,0.26c-0.68,0.41-1.56,0.47-2.28,0.14c-0.32-0.55,0.1-1.27,0.66-1.56
				c0.56-0.29,1.22-0.31,1.84-0.46s1.26-0.53,1.37-1.15c0.05-0.29,0-0.62,0.21-0.83c0.14-0.14,0.36-0.16,0.56-0.17
				c1.84-0.12,4.11,0.28,5.56-1.06c0.49-0.45,0.85-1.05,1.41-1.41c0.57-0.36,1.27-0.42,1.9-0.65s1.26-0.75,1.23-1.41
				c-0.01-0.12-0.04-0.25-0.13-0.34c-0.11-0.11-0.27-0.13-0.42-0.14c-1.25-0.13-2.57-0.25-3.71,0.27c-0.48,0.22-1.01,0.57-1.5,0.37
				c-0.3-0.12-0.52-0.42-0.84-0.49c-0.24-0.05-0.48,0.05-0.71,0.14c-0.97,0.34-4.32,0.56-3.59-1.48c0.65-1.8,4.65-0.63,5.32-1.91
				c0.09-0.16,0.07-0.36,0.05-0.54c-0.04-0.55,0-1.14,0.31-1.6c0.43-0.63,2.83-1.53,3.55-1.83c-1.78-0.6-3.73-0.08-5.54,0.43
				c-0.09-0.31,0.17-0.61,0.4-0.83c1.11-1.05,2.26-2.13,3.69-2.65c0.43-0.16,0.98-0.37,0.99-0.83c0.01-0.19-0.09-0.36-0.15-0.54
				c-0.66-1.95,2.9-2.15,3.74-3.58c0.08-0.13,0.15-0.27,0.15-0.42c0.01-0.52-0.71-0.71-1.21-0.57c-0.37,0.1-4.78,1.02-4.53,1.32
				c-0.56-0.68-0.41-1.73,0.09-2.46c0.5-0.73,1.26-1.22,1.97-1.74c2.71-1.98,4.91-4.65,6.33-7.68c0.42-0.89,0.42-2.38-0.56-2.39
				c-0.4-0.01-0.74,0.29-0.99,0.6c-0.61,0.75-0.99,1.67-1.63,2.39c-0.64,0.71-2.07,1.62-2.65,0.27c-0.38-0.89,1.26-2.48,1.65-3.17
				c1.14-2.03,0.96-3.82,2.57-5.72c0.9-1.06,1.73-2.57,1.02-3.77c-0.07-0.11-0.16-0.23-0.29-0.24c-0.14-0.01-0.26,0.1-0.36,0.21
				c-3.41,3.8-6.69,6.52-6.88,12.03c-0.02,0.45-0.02,0.93-0.23,1.32c-0.21,0.4-0.73,0.68-1.13,0.47c-0.2-0.11,0.17-2.65-0.22-3.08
				C611.45,79.83,610.8,80.04,609.99,80.04z"/>
			<path class="st15" d="M578.25,126.84c0.07-0.33,0.17-0.64,0.35-0.94c0.96,1.28,3.98,6.65,5.52,5.82
				c0.05-0.03,0.08-0.06,0.12-0.09c0.05,0.08,0.1,0.16,0.15,0.24c0.25,0.44,0.55,0.93,1.04,1.05c0.5,0.11,1.06-0.54,0.69-0.89
				c0.45,0.19,0.9,0.37,1.35,0.56c0.15-1.36,0-2.79-0.69-3.96c-0.48-0.81-1.2-1.46-1.76-2.22c-0.56-0.76-0.97-1.74-0.7-2.64
				c0.04-0.15,0.12-0.3,0.26-0.37c0.18-0.08,0.38,0.01,0.55,0.1c0.44,0.24,0.88,0.47,1.32,0.71c0.67,0.48,1.45,0.86,2.2,1.18
				c0.32-1.46,0.13-3.02-0.51-4.36c-0.17-0.36-0.38-0.7-0.59-1.04c0.3-0.39,0.73-0.64,1.2-0.55c0.72,0.14,1.17,1,1.91,1.05
				c0.7,0.05,1.23-0.73,1.21-1.43c-0.02-0.7-0.42-1.33-0.78-1.94c-0.06-0.11-0.12-0.22-0.18-0.33c0.31-0.34,0.35-1.01,0.09-1.45
				c-0.04-0.07-0.09-0.13-0.14-0.2c0.5,0,1.01,0.01,1.51,0.01c0.16,0,0.34,0,0.46-0.11c0.13-0.11,0.16-0.31,0.16-0.48
				c0.04-1.07-0.35-2.16-0.65-3.22c0.38,0.11,0.85,0.07,1.45-0.17c0.56,1.18,1.21,2.28,2.07,2.63c0.29-0.9,0.65-1.82,1.3-2.51
				c0.95-1.01,2.39-1.32,3.32-2.33c1.05-1.14,1.25-2.53,2.69-3.43c0.36,1.01-0.4,2.04-1.05,2.9c-1.84,2.42-3.13,5.2-4.4,7.96
				c0.4-0.15,0.81-0.31,1.23-0.24c0.42,0.07,0.82,0.45,0.75,0.87c-0.08,0.45-0.59,0.64-0.98,0.87c-0.39,0.23-0.73,0.79-0.39,1.09
				c1.1,0.33,2.24,0.5,3.39,0.5c0.63,0,1.27-0.05,1.86,0.18c0.07,0.03,0.14,0.06,0.2,0.1c0.49,0.28,0.85,0.82,0.71,1.36
				c-0.16,0.6-0.54,0.88-1.01,1c-0.33,0.04-0.66,0.07-0.99,0.11c-0.62,0.01-1.23-0.02-1.65,0.19c-0.44,0.22-0.74,0.47-0.91,0.72
				c-0.71,0.6-1.16,1.54-0.85,2.4c0.82-0.08,1.64-0.17,2.46-0.27c-0.39,0.79-1.38,1.32-2.27,1.65c-2.16,0.78-3.37,2.52-4.18,4.64
				c-0.38,1-0.17,2.37,0.82,2.78c-0.72,0.38-1.56,1.16-1.12,1.84c0.4,0.62,1.37,0.35,2.03,0.69c0.76,0.39,1.16,1.62,1.99,1.43
				c1.04-0.23,1.47-0.7,2.1-0.84c-0.68,1.02-0.66,2.64-1.81,3.08c-0.54,0.2-1.15,0.04-1.72,0.12c-3.67,0.51-2.8,7.05-7.25,6.99
				c-4.19-0.06-7.29-5.05-7.66-8.75c-0.05-0.5-0.07-1-0.09-1.49c0.38-0.48,0.75-0.96,1.13-1.44c0.13-0.16,0.26-0.34,0.29-0.54
				c0.03-0.2-0.05-0.41-0.13-0.6c-0.75-1.75-1.81-3.37-3.1-4.78c-0.62-0.68-1.31-1.31-1.8-2.09
				C578.52,127.63,578.35,127.24,578.25,126.84z"/>
			<g>
				<path class="st16" d="M602.19,100.83c-0.42,0.13-0.8,0.1-1.24,0.12c-0.47,0.64-0.23,1.54-0.21,2.33
					c0.01,0.44-0.17,0.94-0.45,1.26c-0.03-0.14-0.08-0.28-0.18-0.43c-2.22-3.2-2.05-7.43-1.79-11.33c0.02-0.36,0.06-0.76,0.32-1.02
					c0.41-0.42,1.17-0.24,1.55,0.21c0.38,0.45,0.49,1.05,0.62,1.63c0.21,0.95,0.5,1.87,0.86,2.77
					C600.79,97.35,602.23,99.59,602.19,100.83z"/>
				<path class="st16" d="M612.33,112.45c-1.44,0.88-3.41,0.59-5.05,0.69c-0.06,0-0.11,0.01-0.17,0.02c0.05-0.09,0.1-0.18,0.14-0.27
					c-1.96,0.27-3.89,0.7-5.78,1.29c-0.26-0.4-0.03-0.97,0.34-1.27c0.38-0.3,0.86-0.4,1.32-0.55c1.15-0.37,2.2-1.05,3.01-1.94
					c-0.67-0.47-1.54-0.64-2.34-0.47c-0.21-0.42,0.04-0.96,0.43-1.22c0.39-0.26,0.88-0.31,1.35-0.33c0.44-0.02,0.88-0.03,1.31-0.1
					c0.86,0.5,2.53,0.33,3.17,0.1c0.23-0.08,0.47-0.18,0.71-0.14c0.32,0.06,0.53,0.37,0.84,0.49c0.14,0.06,0.29,0.07,0.44,0.05
					c-0.48,0.6-1.01,1.15-0.86,1.86C611.33,111.35,612.11,111.85,612.33,112.45z"/>
				<path class="st16" d="M618.56,83.01c-0.74,0.36-0.47,0.95-0.86,1.47c-0.56,0.74-0.96,1.2-1.66,1.9
					c-1.39,1.38-2.35,2.99-4.05,4.06c0.79-2.67,1.65-5.33,2.56-7.96c0.49-1.41,2.16-3.79,1.72-5.32c-0.16-0.54-0.56-0.95-1.06-1.18
					c1.31-2.24,3.25-4.09,5.23-6.3c0.1-0.11,0.22-0.23,0.36-0.21c0.13,0.01,0.23,0.13,0.29,0.24c0.71,1.2-0.12,2.71-1.02,3.77
					c-1.61,1.89-1.43,3.69-2.57,5.72c-0.39,0.69-2.03,2.28-1.65,3.17c0.58,1.36,2.01,0.45,2.65-0.27c0.64-0.72,1.02-1.64,1.63-2.39
					c0.25-0.31,0.59-0.61,0.99-0.6c0.98,0.02,0.97,1.5,0.56,2.39c-0.5,1.07-1.1,2.09-1.79,3.06
					C620.15,83.25,619.89,82.36,618.56,83.01z"/>
				<path class="st16" d="M612.03,96.81c-0.07,0.13-0.13,0.28-0.08,0.42c0.1,0.27,0.49,0.23,0.78,0.26
					c0.42,0.05,0.72,0.45,0.77,0.86c-1.09,0.57-2.02,1.44-2.91,2.3c-0.06,0.06-0.12,0.12-0.18,0.18c-0.77,0.51-1.31,1.05-1.06,1.65
					c0.22,0.52,1.05,0.72,1.02,1.28c-0.02,0.29-0.27,0.49-0.44,0.72c-0.27,0.36-0.34,0.81-0.26,1.25c-0.71,0.06-1.47,0.1-2.08,0.29
					c-0.12-0.13-0.21-0.28-0.25-0.45c-0.11-0.57,0.2-1.14,0.55-1.6c0.18-0.24,0.38-0.57,0.18-0.79c-0.14-0.16-0.39-0.13-0.6-0.08
					c-0.75,0.18-1.49,0.44-2.21,0.69c-0.13-1.42,1.33-2.52,2.08-3.63c0.95-1.4,1.34-3.43,2.64-4.55c0.53-0.46,1.19-0.73,1.71-1.2
					c0.5-0.46,0.85-1.07,1.31-1.56c0.06,0.19,0.15,0.38,0.28,0.54c-0.16-0.2,1.69-0.66,3.08-0.99
					C614.63,93.6,612.86,95.26,612.03,96.81z"/>
				<path class="st16" d="M607.32,92.16c0.05,0.19,0.1,0.38,0.12,0.58c-0.46-0.08-0.95-0.15-1.39-0.02
					c-0.45,0.14-0.85,0.55-0.81,1.02c0.02,0.26,0.18,0.5,0.31,0.73c0.28,0.5,0.47,1.1,0.3,1.64c-0.28,0.87-0.98,0.76-1.72,0.49
					c-0.23-2.33-0.48-4.73-0.38-7.01c0.48-0.15,0.95,0.21,1.32,0.54C605.81,90.8,606.57,91.48,607.32,92.16z"/>
				<path class="st16" d="M606.51,114.13c-0.08,0.44-0.42,0.75-0.83,0.95C605.99,114.79,606.26,114.47,606.51,114.13L606.51,114.13z
					"/>
				<path class="st16" d="M601.17,118.05c0.23-0.57,0.78-0.88,1.37-1.13c0,0.13,0.03,0.27,0.11,0.39c0.72,0.32,1.61,0.27,2.29-0.15
					c0.2-0.12,0.4-0.27,0.63-0.26c-0.62,0.21-1.19,0.58-1.78,0.89C602.96,118.21,601.96,118.5,601.17,118.05z"/>
			</g>
			<path class="st17" d="M589.73,135.33c1.79-7.76,4.3-15.96,8.88-22.58c6.15-8.91,11.4-18.44,15.61-28.41
				c-3.8,15.48-16.47,27.48-20.94,42.78c-0.73,2.51-1.24,5.07-1.74,7.63c-0.85,4.35-1.85,8.52-1.89,12.88
				c-0.54-0.06-1.07-0.19-1.57-0.4C588.46,143.28,588.85,139.15,589.73,135.33z"/>
			<path class="st18" d="M589.73,135.33c1.42-6.18,3.31-12.64,6.33-18.35c0.1,0.71,0.22,1.41,0.36,2.12
				c-1.25,2.59-2.33,5.25-3.14,8.02c-0.73,2.51-1.24,5.07-1.74,7.63c-0.85,4.35-1.85,8.52-1.89,12.88c-0.54-0.06-1.07-0.19-1.57-0.4
				C588.46,143.28,588.85,139.15,589.73,135.33z"/>
		</g>
	</g>
	<g>
		<path class="st25" d="M333.41,347.03c-1.85,2.55-3.64,4.96-5.4,7.08c-0.4,0.48-0.81,0.99-0.92,1.61c-0.27,1.53,1.38,2.65,2.79,3.3
			c20.05,9.21,42.07,10.31,63.71,7.76c9.95-1.17,41.54-3.68,32.46-20.45c-6.64-12.27-10.47-21.66-24.04-27.06
			c-11.47-4.56-31.41-4.47-42.69,0.61C349.1,324.49,340.82,336.83,333.41,347.03z"/>
		<path class="st26" d="M408.77,322.77c-1.96-1.3-4.18-2.47-6.75-3.5c-11.47-4.56-31.41-4.47-42.69,0.61
			c-10.22,4.6-18.5,16.94-25.91,27.14c-1.85,2.55-3.64,4.96-5.4,7.08c-0.4,0.48-0.81,0.99-0.92,1.61c-0.27,1.53,1.38,2.65,2.79,3.3
			c4.58,2.1,9.27,3.77,14.03,5.08c5.46-1.25,11.01-3.39,17.82-5.66c1.06-0.35,2.18-0.75,2.88-1.62c0.78-0.97,0.87-2.31,0.91-3.56
			c0.19-5.83,0.48-12.5,5-16.19c1.73-1.41,3.89-2.18,5.99-2.93C387.27,330.36,398.02,326.57,408.77,322.77z"/>
		<g>
			<path class="st27" d="M355.13,325.91c1.57-0.12,2.58-1.78,2.81-3.33c0.1-0.68,0.11-1.37,0.11-2.05
				c-2.99,1.55-5.81,3.75-8.49,6.34c0.58,0.6,1.12,1.17,1.56,1.71c5.29,6.47,9.68,13.78,13.81,21.03c6.09-5.3,13.05-9.61,20.51-12.7
				C374.36,339.01,362.29,334.63,355.13,325.91z"/>
			<path class="st27" d="M402.01,319.28c-6.49-2.58-15.7-3.67-24.52-3.21c0.04,0.02,0.08,0.05,0.12,0.07
				c-2.48,3.42-4.96,6.84-7.44,10.26c6.75,1.8,13.51,3.6,20.26,5.4c4.76-3.86,9.64-7.56,14.6-11.15
				C404.08,320.17,403.09,319.7,402.01,319.28z"/>
		</g>
		<path class="st28" d="M359.6,333.34c2.59,1.66,1.37,8.01,4.32,9.87c2.88,1.82,7.49-0.55,10.1-1.8
			C370.21,337.96,364.02,336.17,359.6,333.34z"/>
		<path class="st28" d="M346.83,333.27c-1.06,1.48-2.85,6.74-4.25,7.55c2.82,1.99,4.78,4.98,6.34,8.07
			c1.56,3.08,2.78,6.34,4.53,9.32c-0.81-1.38-0.1-5.56-0.3-7.27c-0.23-2.01-0.8-3.45-1.43-5.3
			C350.32,341.5,349.8,336.69,346.83,333.27z"/>
		<path class="st28" d="M390.14,326.01c-3.21-0.15-4.89-4.92-8.24-5.4c-1.01,2.05-2.42,3.91-4.12,5.43
			C379.46,324.78,387.89,325.91,390.14,326.01z"/>
	</g>
	<g>
		<path class="st25" d="M306.85,352.57c2.19,0.35,4.34,0.82,6.31,1.83c5.57,2.85,10.86,9.42,15.59,13.55
			c1.74,1.52,3.66,3.69,2.8,5.83c-0.38,0.96-1.26,1.64-2.14,2.18c-6.89,4.27-18.63,3-26.49,2.98c-6.53-0.02-13.06-0.19-19.58-0.53
			c-5.99-0.31-17.61-0.15-17.67-7.59c-0.03-3.67,4.98-11.87,7.45-14.8c7.49-8.86,18.05-6.33,27.97-4.34
			C303,352.07,304.94,352.27,306.85,352.57z"/>
		<path class="st26" d="M312.11,353.94c-1.68-0.69-3.45-1.08-5.26-1.37c-1.9-0.3-3.85-0.51-5.75-0.89
			c-9.92-1.99-20.48-4.52-27.97,4.34c-2.08,2.46-5.9,8.6-7.07,12.69c0.75,1.31,2.09,2.49,4.2,3.45c4.68,2.14,16.95-2.92,20.41-7.77
			c1.99-2.83,5.86-3.36,9.21-4.21c4.25-1.08,8.27-3.07,11.72-5.79C311.77,354.26,311.94,354.1,312.11,353.94z"/>
		<path class="st28" d="M294.15,359.01c-1.06-0.4-2.11-0.85-3.15-1.34c-4.61-1.21-8.99-3.09-13.01-5.68
			c-0.84,0.47-1.67,1.03-2.46,1.69c1.23,1.41,2.46,2.78,3.78,4.14c2.22,2.28,4.66,4.52,6.61,7.03c0.65,0.83,1.17,1.71,1.66,2.62
			c3.36-2.51,17.05-4.76,20.44-7.18C306.77,360,295.2,359.41,294.15,359.01z"/>
		<path class="st28" d="M298.42,358.18c0.82-0.71,2.82-2.44,3.83-2.2c-3.72-0.88-7.91-2.15-11.51-3.57
			c2.05,2.93,4.85,3.88,7.54,5.88C298.33,358.26,298.37,358.22,298.42,358.18z"/>
	</g>
	<g>
		<path class="st25" d="M441.3,305.39c6.58-0.22,22.14,2.56,21.59,12.27c-0.37,6.49-7.29,7.01-12.27,6.92
			c-8.42-0.17-16.84-0.34-25.26-0.5c-0.84-0.02-1.89-0.18-2.13-0.99c-0.15-0.52,0.14-1.06,0.42-1.53
			C427.88,314.56,432.14,305.7,441.3,305.39z"/>
		<path class="st26" d="M460.17,311.15c-4.65-4.49-14.11-5.92-18.87-5.76c-9.15,0.31-13.41,9.18-17.65,16.16
			c-0.28,0.47-0.57,1.01-0.42,1.53c0.24,0.81,1.29,0.98,2.13,0.99c0.62,0.01,1.23,0.02,1.85,0.04c6.09-4.96,18.01-11.62,20.77-11.17
			c1.25,0.2,2.47,0.63,3.73,0.75C454.68,313.96,457.52,312.54,460.17,311.15z"/>
		<path class="st27" d="M455.93,312.81c-4.05,0.63-8.28,0.08-12.04-1.57c-0.63-0.28-1.34-0.73-1.31-1.42
			c0.01-0.33,0.2-0.63,0.4-0.89c0.8-1.02,1.91-1.75,2.79-2.7c0.16-0.18,0.31-0.38,0.46-0.57c-1.87-0.24-3.6-0.33-4.94-0.28
			c-3.62,0.12-6.46,1.59-8.85,3.74c2.17,2.45,3.84,5.57,5.08,8.47c3.71-1.43,5.4-3.97,9.82-3.98
			C450.25,313.62,453.29,314,455.93,312.81z"/>
	</g>
	<g>
		<path class="st25" d="M450.89,361.07c15.27,4.13,45.36,1.99,52.38,1.73c2.99-0.11,6.05-0.28,8.82-1.44
			c2.76-1.16,5.21-3.51,5.66-6.47c0.52-3.41-1.63-6.61-3.82-9.28c-3.19-3.89-7.22-7.75-12.25-8.05
			c-10.45-0.61-16.78-11.64-26.79-11.03c-7.23,0.44-35.01,19.72-32.83,28.51C442.74,357.85,446.08,359.77,450.89,361.07z"/>
		<path class="st26" d="M513.34,346.12c0.06-0.35,0.09-0.71,0.1-1.06c-3.12-3.69-6.99-7.21-11.77-7.49
			c-10.45-0.61-16.78-11.64-26.79-11.03c-7.23,0.44-35.01,19.72-32.83,28.51c0.17,0.68,0.5,1.31,0.96,1.89
			c1.02,0.2,2.22,0.3,3.63,0.3c3.96-0.01,7.49-2.42,10.43-5.06c2.94-2.65,5.64-5.68,9.19-7.44c3.54-1.76,8.32-1.86,11.02,1.03
			c1.15,1.23,1.79,2.83,2.77,4.19c4.1,5.63,12.43,5.38,19.35,4.55C505.2,353.8,512.38,351.88,513.34,346.12z"/>
		<g>
			<path class="st27" d="M490.4,333.1c-4.96-3.22-9.59-6.93-15.52-6.57c-3.44,0.21-11.54,4.69-18.85,10.28
				c0.33,0.58,0.66,1.16,1,1.73c0.9,1.5,1.77,2.9,2.33,4.01c0.24,0.49,0.49,1,0.53,1.55c0.02,0.34-0.04,0.67-0.11,1
				c-0.51,2.38-1.45,4.66-2.76,6.7c0.17,0,0.34-0.03,0.51-0.05c2.77-2.55,5.38-5.36,8.74-7.03c1.79-0.89,3.88-1.35,5.87-1.22
				c5.5-3.11,11.06-6.12,16.52-9.32C489.27,333.83,489.85,333.46,490.4,333.1z"/>
			<path class="st27" d="M511.48,342.9c-2.74-2.8-5.98-5.11-9.81-5.33c-0.85-0.05-1.67-0.19-2.47-0.36
				c-2.87,4.48-6.93,8.5-10.85,11.42C496.27,350.48,504.24,346.83,511.48,342.9z"/>
		</g>
		<path class="st28" d="M474.88,326.54c-1.3,0.08-3.29,0.78-5.63,1.92c0.22,0.69,0.4,1.32,0.42,1.81c0.05,1.43-0.31,2.84-0.66,4.23
			c-0.68,2.7-1.37,5.39-2.05,8.09c5.13-4.31,10.26-8.62,15.4-12.92c0.36-0.3,0.69-0.64,0.91-1.03
			C480.66,327.26,477.95,326.35,474.88,326.54z"/>
	</g>
	<g>
		<path class="st25" d="M514.67,272.38c2.11-0.27,4.38-0.21,6.17,0.92c1.25,0.79,2.17,2.03,3.41,2.84
			c4.17,2.72,9.51-0.36,14.42-1.18c6.53-1.09,12.98,2.07,18.63,5.52c6.63,4.05,12.93,8.64,18.81,13.71
			c6.15,5.3,12.28,12.21,11.7,20.31c-18.29,3.74-36.7,7.49-55.36,8.07c-12.98,0.4-25.96-0.73-38.84-2.36
			c-2.86-0.36-5.92-0.85-7.98-2.86c-1.59-1.56-2.32-3.81-2.71-6C479.63,292.72,496.8,274.63,514.67,272.38z"/>
		<g>
			<path class="st26" d="M510.93,273.82c0.1-0.27,0.21-0.55,0.33-0.82c-16.47,3.92-31.21,20.68-28.36,38
				c0.64,0.04,1.28,0.06,1.92,0.02C506.39,309.59,505.41,288.88,510.93,273.82z"/>
			<path class="st26" d="M551.98,299.09c3.27-1.2,5.65-3.99,8.49-6c2.84-2.01,5.52-3.44,8.05-4.98c-3.62-2.71-7.35-5.27-11.21-7.63
				c-5.65-3.45-12.1-6.61-18.63-5.52c-3.2,0.53-6.57,2-9.7,2.23c0,0.26,0,0.53-0.02,0.78c-0.97,9.53-7.13,12.34-15.02,15.25
				c-2.99,1.1-6.21,2.4-7.81,5.15c-2.48,4.26-0.13,10.42-3.33,14.17c7.42,0.49,16.37,1.39,23.15-2.01
				c6.07-3.05,9.5-10.07,16.93-10.53C545.93,299.81,549.1,300.14,551.98,299.09z"/>
		</g>
		<path class="st27" d="M490.03,286.76c1.5,3.41,3.7,6.83,4.68,9c0.56,1.23,1.47,2.68,2.81,2.53c1.32-0.14,1.91-1.69,2.23-2.98
			c1.56-6.35,2.03-9.28,6.1-14.65c1.56-2.05,2.6-4.48,3.11-7C501.67,275.95,494.89,280.67,490.03,286.76z"/>
		<path class="st27" d="M560.48,287.69c1.53-0.8,3.01-1.44,4.39-2.2c-2.47-1.75-4.98-3.44-7.57-5.02
			c-5.65-3.45-12.1-6.61-18.63-5.52c-1.3,0.22-2.63,0.59-3.96,0.97c-4.23,8.91-11.93,16.48-20.62,20.7c-2.92,1.42-6.5,3.2-6.59,6.45
			c11.48-3.23,22.84-6.78,33.99-10.52c3.07-1.03,6.15-2.06,9.22-3.09c-0.05,2.41-0.83,4.81-2.2,6.79
			C552.38,293.41,556.23,289.91,560.48,287.69z"/>
		<path class="st28" d="M540.21,274.82c-1.1,2.12-2,4.35-3.25,6.45c-2.76,4.65-6.56,8.6-10.33,12.43c6.18-2.79,12.32-5.65,18.43-8.6
			c2.02-0.98,4.19-2.1,5.16-4.13c0.52-1.09,0.88-2.38,1.08-3.73C547.75,275.6,544.01,274.56,540.21,274.82z"/>
		<path class="st28" d="M528.84,301.02c-0.1,0.18-7.05,0.59-8.15,1.23c-3.11,1.8-5.41,5.61-8.36,7.79
			C518.94,310.48,525.64,306.81,528.84,301.02z"/>
	</g>
	<g>
		<path class="st25" d="M533.53,235.94c1.11-0.22,2.27-0.14,3.47,0.33c2.78,1.09,5.25,3.65,8.26,4.82c3.27,1.27,6.7,1.98,9.67,3.94
			c0.84,0.55,1.67,1.26,1.89,2.24c2.09,9.33-26.48,3.43-29.75,2.51c-1.05-0.3-2.21-0.75-2.63-1.76c-0.32-0.78-0.09-1.67,0.2-2.46
			C526.16,241.43,529.5,236.73,533.53,235.94z"/>
		<path class="st26" d="M555.48,245.42c-0.18-0.14-0.36-0.27-0.55-0.4c-2.97-1.96-6.41-2.68-9.67-3.94
			c-3.01-1.17-5.48-3.73-8.26-4.82c-1.19-0.47-2.36-0.55-3.47-0.33c-4.03,0.79-7.37,5.49-8.89,9.62c-0.29,0.79-0.52,1.68-0.2,2.46
			c0.41,1.01,1.58,1.46,2.63,1.76c0.01,0,0.03,0.01,0.04,0.01c0.06-0.04,0.13-0.09,0.19-0.14c3.35-2.25,6.24-3.27,10.32-2.92
			c5.95,0.5,11.97,0.06,17.79-1.29C555.44,245.44,555.46,245.43,555.48,245.42z"/>
		<path class="st27" d="M537,236.27c-1.19-0.47-2.36-0.55-3.47-0.33c-1.11,0.22-2.17,0.76-3.15,1.48c-0.21,2.78,0.01,5.73,0.1,7.14
			c0.02,0.35,0.11,0.77,0.44,0.87c0.2,0.06,0.41-0.03,0.6-0.12c3.73-1.79,7.41-3.69,11.06-5.63
			C540.68,238.46,538.91,237.02,537,236.27z"/>
	</g>
	<g>
		<path class="st25" d="M563.33,233.83c-5.01,0.38-10.09-2.43-15.18-3.2c-5.08-0.78-10.26-1.19-14.84-3.77
			c-0.64-0.36-1.29-0.79-1.62-1.45c-0.67-1.36,0.32-2.92,1.26-4.1c3.9-4.92,7.82-9.83,11.74-14.74c6.29-7.86,16.4-16.99,27.16-17.17
			c2.9-0.05,5.76,0.7,8.51,1.63c17.29,5.83,31.82,19.36,38.88,36.18c-6.74,2.85-14.18,3.44-21.47,3.99
			C586.3,232.08,574.82,232.95,563.33,233.83z"/>
		<path class="st26" d="M580.37,191.03c-2.75-0.93-5.61-1.68-8.51-1.63c-10.75,0.18-20.87,9.31-27.16,17.17
			c-3.92,4.9-7.84,9.82-11.74,14.74c-0.94,1.19-1.93,2.74-1.26,4.1c0.33,0.66,0.98,1.09,1.62,1.45c3.43,1.94,7.21,2.65,11.03,3.21
			c4.91-6.86,10.76-13.04,17.39-18.24c1.56-1.22,3.16-2.4,4.8-3.51c-3.08,6.17-6.13,12.36-9.15,18.55
			c6.37-5.09,13.12-9.7,20.17-13.79c5.77-3.34,11.41-1.14,17.8-1.48c4.32-0.23,8.63-0.89,12.85-1.9
			C600.73,201.22,591.08,194.65,580.37,191.03z"/>
		<path class="st27" d="M580.37,191.03c-2.75-0.93-5.61-1.68-8.51-1.63c-10.75,0.18-20.87,9.31-27.16,17.17
			c-0.89,1.11-1.77,2.23-2.66,3.34c7.71-3.32,16.11-7.81,24.5-8.64c1.83-0.18,3.65-0.19,5.47,0.02c1.8,2.34,0.18,6.79,2.88,7.99
			c0.64,0.28,1.37,0.26,2.07,0.23c9.31-0.42,18.58-1.62,27.7-3.51C597.78,199.31,589.46,194.1,580.37,191.03z"/>
		<path class="st28" d="M546.12,212.77c9.27-5.52,18.44-11.28,27.47-17.17c-0.48,0.32-6.36-0.98-7.73-0.73
			c-2.97,0.55-5.69,2.12-8.1,3.86C552.5,202.51,548.71,206.83,546.12,212.77z"/>
		<path class="st28" d="M586.63,197.76c0.05-0.01-0.96,3.81-1.36,4.26c-0.86,0.98-3.2,1.57-4.35,2.16c-3.83,1.98-7.6,4.1-11.4,6.14
			C571.03,200.7,578.74,199.63,586.63,197.76z"/>
	</g>
	<g>
		<path class="st25" d="M662.3,193.37c1.85,0.95,3.68,1.86,5.5,2.65c3.32,1.45,7.3,4.84,5.3,7.86c-7.51,2.97-15.03,5.94-22.54,8.91
			c-2.94,1.16-5.96,2.34-9.12,2.34c-4.85,0-8.25-2.89-12.64-4.26c-4.13-1.28-8.96-1.51-13.27-2.32c-1.24-0.23-2.58-0.52-3.42-1.47
			c-4.25-4.85,17.26-21.09,21.81-21.96C643.93,183.24,653.35,188.78,662.3,193.37z"/>
		<path class="st26" d="M661.17,201.85c1.25-0.59,2.25-1.58,3.23-2.55c1.18-1.17,2.48-2.18,3.63-3.17
			c-0.08-0.04-0.16-0.08-0.23-0.11c-1.81-0.79-3.64-1.7-5.5-2.65c-8.95-4.59-18.37-10.13-28.37-8.23
			c-4.55,0.87-26.06,17.1-21.81,21.96c0.83,0.95,2.17,1.24,3.42,1.47c0.26,0.05,0.53,0.08,0.79,0.12c4.47-2.4,9.96-3.65,13.74-7.11
			c0.51-0.47,0.88-1.49,0.21-1.68c2.54-1.31,6.53-4.79,9.43-2.98c-1.66,1.44-3.09,3.14-4.21,5.03c-0.35,0.59-0.64,1.43-0.13,1.9
			c0.31,0.28,0.79,0.27,1.21,0.24c6.72-0.46,13.44-0.92,20.16-1.38C658.25,202.61,659.8,202.49,661.17,201.85z"/>
		<path class="st27" d="M662.65,193.54c-0.12-0.06-0.23-0.12-0.35-0.18c-8.95-4.59-18.37-10.13-28.37-8.23
			c-2.51,0.48-10.19,5.64-15.85,10.99c-0.88,2.05-1.67,4.28-2.38,6.75c7.47-5.28,14.61-10.92,22.46-15.69
			c0.08,1.61,0.16,3.23,0.23,4.84c3.61,0.06,7.22,0.13,10.83,0.19c-1.96,2.73-4.19,5.26-6.65,7.55
			C649.56,198.85,656.37,196.72,662.65,193.54z"/>
		<path class="st28" d="M636.99,189.26c-4.21,0.41-8.82,0.78-12.09,3.8c-2.13,1.97-2.72,7-4.51,8.3
			C625.93,197.33,631.46,193.3,636.99,189.26z"/>
		<path class="st28" d="M649.35,189.39c-1.04,0.87-1.11,4.21-2.31,5.42c-1.49,1.51-4.03,2.01-5.98,2.77
			C643.87,194.77,646.13,191.77,649.35,189.39z"/>
		<path class="st28" d="M657.05,198.4c-0.64-1.48-0.96-3.11-0.92-4.72c-0.03,1.07-6.7,4.67-7.74,5.93
			C651.09,198.61,654.27,199.24,657.05,198.4z"/>
	</g>
	<g>
		<path class="st25" d="M619.83,159.84c5.18-0.07,10.28,1.53,15.32,3.11c3.21,1.01,7.14,3.14,7.08,7.35
			c-0.05,4.06-3.82,6.11-6.95,6.91c-16.57,4.22-33.68,1.78-50.46-0.67c-1.44-0.21-3.35-1.17-3.06-2.98
			c0.12-0.73,0.59-1.26,1.04-1.73c4.77-4.98,10.41-9.96,16.65-11.98C606.14,157.66,613.08,159.92,619.83,159.84z"/>
		<path class="st26" d="M641.63,167.62c-1.21-2.48-4.05-3.9-6.49-4.67c-5.03-1.58-10.13-3.18-15.32-3.11
			c-6.75,0.09-13.69-2.18-20.38,0c-6.24,2.03-11.88,7-16.65,11.98c-0.45,0.47-0.92,1.01-1.04,1.73c-0.29,1.82,1.61,2.77,3.06,2.98
			c2.46,0.36,4.93,0.72,7.4,1.05c5.74-2.39,12.92-3.32,14.96-8.94c0.28-0.77,0.49-1.66,1.19-2.08c0.79-0.47,1.79-0.09,2.64,0.26
			C620.66,170.84,631.77,171.01,641.63,167.62z"/>
		<path class="st27" d="M599.45,159.84c-0.66,0.21-1.31,0.48-1.96,0.76c4.03,3.04,2.11,8.29,2.31,12.67
			c0.03,0.6,0.05,1.11,0.08,1.55c3.28-1.29,6.13-2.96,7.3-6.17c0.28-0.77,0.49-1.66,1.19-2.08c0.79-0.47,1.79-0.09,2.64,0.26
			c4.6,1.91,9.54,2.92,14.51,3.12c0.05-0.12,0.1-0.24,0.13-0.38c-7.23-3.24-14.32-7.42-21.7-10.58
			C602.45,159.11,600.94,159.35,599.45,159.84z"/>
		<path class="st28" d="M605.38,166.79c-0.84,1.65-2.26,2.9-3.65,4.12c0.69-3.49,0.66-6.93,0.74-10.46
			C605.7,160.98,606.83,163.93,605.38,166.79z"/>
	</g>
	<g>
		<path class="st25" d="M700.73,173.33c11.8-0.34,18.77,4.28,26.38,12.64c1.17,1.28,2.42,2.84,2.12,4.55
			c-0.42,2.42-3.46,3.21-5.91,3.43c-11.59,1.04-23.27,1.05-34.86,0.02c-1.26-0.11-2.71-0.34-3.37-1.42
			c-0.62-1.01-0.28-2.32,0.09-3.45C687.84,180.84,690.52,173.62,700.73,173.33z"/>
		<path class="st26" d="M700.73,173.33c-10.21,0.29-12.89,7.52-15.55,15.77c-0.24,0.76-0.45,1.58-0.4,2.35
			c1.29-0.18,2.51-0.81,3.66-1.46c2.24-1.26,4.49-2.52,6.73-3.77c0.08,1.54,0.37,3.07,0.85,4.54c0.66,0.68,1.66-0.35,2.15-1.16
			c2.94-4.87,13.01-8.34,21.43-10.58C714.37,175.15,708.64,173.1,700.73,173.33z"/>
		<path class="st27" d="M715.39,176.35c-4.15-2.13-8.81-3.19-14.67-3.02c-7.9,0.23-11.29,4.62-13.66,10.42
			c4.3-0.05,13.62-3.82,14.76-5.5c-1.01,1.47-1.28,3.42-0.73,5.12c2.78-2.6,6.13-4.57,9.74-5.75
			C712.31,177.14,713.86,176.76,715.39,176.35z"/>
		<path class="st28" d="M705.24,176.13c-3.13-0.37-7.76-1.72-10.64-0.08c-2.98,1.69-2.54,5.45-4.5,7.21
			c1.44-1.29,3.26-2.07,5.04-2.83C698.5,178.99,701.87,177.56,705.24,176.13z"/>
	</g>
	<g>
		<path class="st25" d="M643.7,145.02c-1.85,2.35-3.64,4.57-5.4,6.54c-0.4,0.44-0.81,0.92-0.92,1.48c-0.27,1.41,1.38,2.45,2.79,3.05
			c20.05,8.5,42.07,9.51,63.71,7.16c9.95-1.08,41.54-3.39,32.46-18.87c-6.64-11.32-10.47-19.98-24.04-24.96
			c-11.47-4.21-31.41-4.12-42.69,0.56C659.39,124.23,651.11,135.61,643.7,145.02z"/>
		<path class="st26" d="M723.99,126.4c-2.99-2.8-6.67-5.14-11.68-6.99c-11.47-4.21-31.41-4.12-42.69,0.56
			c-10.22,4.24-18.5,15.63-25.91,25.04c-1.15,1.47-2.28,2.85-3.39,4.19c8.76,6.1,23.73,8.04,31.6,7.35
			c-3.34-1.58-3.8-6.49-1.86-9.63c1.93-3.15,5.41-4.94,8.72-6.58c0.91-0.45,1.81-0.9,2.72-1.35c7.11-3.53,14.23-7.05,21.35-10.58
			c-4.89,7.1-9.77,14.21-14.66,21.31C700.46,142.51,712.41,134.72,723.99,126.4z"/>
		<path class="st27" d="M714.86,125.03c0.96-1.03,1.92-2.08,2.84-3.16c-1.62-0.89-3.39-1.72-5.4-2.46
			c-11.47-4.21-31.41-4.12-42.69,0.56c-10.22,4.24-18.5,15.63-25.91,25.04c-0.72,0.92-1.43,1.79-2.14,2.67
			c8.87-3.25,17.34-7.61,25.13-12.97c-3.13,2.77-4.73,7.17-4.11,11.31c1.9,0.54,3.38-1.59,4.33-3.33
			c3.74-6.79,9.72-12.33,16.77-15.54c5.16-2.35,10.79-3.45,16.35-4.54c3.96-0.77,7.91-1.54,11.87-2.32
			c-2.9,6.67-6.39,13.08-10.42,19.13C705.94,134.64,710.4,129.84,714.86,125.03z"/>
		<path class="st28" d="M669.67,122.04c3.76-1.57,9.32-1.97,13.36-2.35c4.61-0.44,9.13-0.25,13.79-0.09
			c-6.9,1.34-14.23,3.87-20.73,6.53c-3.82,1.56-7.55,3.37-11.08,5.51c-1.68,1.02-3.17,2.21-4.73,3.36c-1,0.74-3.38,1.42-4.06,2.31
			C659.89,132.54,663.82,124.49,669.67,122.04z"/>
		<path class="st28" d="M703.74,125.4c0.51-0.25,1.09-0.61,1.1-1.18c-4.01,0.4-8.01,1.18-11.72,2.74c-1.38,0.58-3.43,1.19-4.37,2.4
			c-1.12,1.43-2.17,2.93-3.13,4.48C691.57,130.78,697.72,128.35,703.74,125.4z"/>
	</g>
</g>
</svg>
