<?xml version="1.0" encoding="utf-8"?>
<!-- Generator: Adobe Illustrator 27.0.0, SVG Export Plug-In . SVG Version: 6.00 Build 0)  -->
<svg version="1.1" id="Layer_1" xmlns="http://www.w3.org/2000/svg" xmlns:xlink="http://www.w3.org/1999/xlink" x="0px" y="0px"
	 viewBox="0 0 972 338" style="enable-background:new 0 0 972 338;" xml:space="preserve">
<style type="text/css">
	.st0{display:none;}
	.st1{display:inline;fill:#FFFFFF;}
	.st2{fill:#E2AD94;}
	.st3{fill:#4C80BD;}
	.st4{fill:#EABA98;}
	.st5{fill:#538ECB;}
	.st6{fill:#9E272A;}
	.st7{fill:#AD252B;}
	.st8{fill:#B52840;}
	.st9{fill:#472514;}
	.st10{fill:#3E465E;}
	.st11{fill:#E6E6E5;}
</style>
<g id="background" class="st0">
	<rect x="-59.66" y="-32.34" class="st1" width="500" height="500"/>
</g>
<g>
	<g>
		<path class="st2" d="M70.39,276.96c-2.95,0-6.26-0.22-9.94-0.65c-10.32-1.2-19.91-3.68-20.31-3.79c-2.67-0.7-4.27-3.43-3.58-6.1
			s3.43-4.28,6.1-3.58c0.09,0.02,9.13,2.36,18.62,3.49c13.66,1.64,17.83-0.49,18.2-1.15c4.27-9.8,10.78-41.21,10.85-41.52
			c0.56-2.71,3.21-4.45,5.91-3.89s4.44,3.2,3.89,5.91c-0.27,1.33-6.79,32.75-11.47,43.49C86.37,274.42,80.48,276.96,70.39,276.96z"
			/>
	</g>
	<g>
		<path class="st3" d="M97.73,254.28c0,0-4.97,0.85-8.42,0c-4.63-1.14-8.83-3.85-8.83-3.85s3.76-24.37,7.27-31.54
			c1.96-3.99,7.91-7.24,7.91-7.24l14.3,9.69L97.73,254.28z"/>
	</g>
	<g>
		<path class="st4" d="M138.22,308.85c-2.16,0-4.16-1.41-4.8-3.59c-2.86-9.75-11.34-36.63-16.13-43.91
			c-6.07-9.23-25.82-34.67-26.02-34.93c-1.69-2.18-1.3-5.32,0.88-7.02c2.18-1.69,5.32-1.3,7.02,0.88
			c0.82,1.06,20.19,26.01,26.48,35.57c6.47,9.84,16.27,42.86,17.37,46.59c0.78,2.65-0.74,5.43-3.39,6.21
			C139.16,308.78,138.68,308.85,138.22,308.85z"/>
	</g>
	<g>
		<path class="st5" d="M122.27,245.99c0,0-0.31,3.81-4.17,6.66c-5.14,3.8-9.39,3.09-9.39,3.09s-18.62-19.75-21.81-27.06
			c-1.78-4.08,0.86-9.79,0.86-9.79l16.64-4.62l5.93,11.05L122.27,245.99z"/>
	</g>
	<path class="st4" d="M112.8,170.38c-0.36-2.74-2.87-4.67-5.61-4.31c-14.76,1.94-24.74,4.77-29.66,8.41
		c-9.09,6.72-18.96,27.39-20.05,29.73c-0.48,1.03-0.57,2.14-0.34,3.18c0.27,1.96,1.49,3.74,3.41,4.64c0.82,0.38,1.68,0.56,2.52,0.56
		c2.26,0,4.43-1.29,5.45-3.48l1.06-2.28c0.72-1.54,0.72-3.23,0.15-4.7c4.07-7.6,9.66-16.58,13.76-19.61
		c3.34-2.47,12.69-4.92,25.01-6.53C111.23,175.63,113.16,173.12,112.8,170.38z"/>
	<path class="st2" d="M155.05,199.48c-1.23-3.08-4.72-4.57-7.8-3.34l-2.33,0.93c-1.73,0.69-2.97,2.11-3.49,3.76
		c-8.03,3.32-15.54,4.72-16.95,2.81c-3.48-4.7-3.97-20.78-3.2-30.7c0.21-2.75-1.85-5.16-4.6-5.37c-2.76-0.21-5.16,1.84-5.37,4.6
		c-0.36,4.61-1.79,28.06,5.13,37.42c2.64,3.57,6.72,4.86,11.24,4.86c7.68,0,16.65-3.73,22.04-6.37l1.99-0.79
		C154.78,206.05,156.28,202.56,155.05,199.48z"/>
	<g>
		<path class="st4" d="M112.37,179.03c-0.36,0-0.72-0.04-1.08-0.12c-2.7-0.6-4.4-3.26-3.8-5.96l3.07-13.91
			c0.6-2.7,3.27-4.4,5.96-3.8c2.7,0.6,4.4,3.26,3.8,5.96l-3.07,13.91C116.73,177.44,114.67,179.03,112.37,179.03z"/>
	</g>
	<g>
		<path class="st6" d="M123.75,176.42l-0.51,21.94c0,0-2.85,1.75-7.1,1.86c-3.56,0.09-6.73-0.92-6.73-0.92l-0.59-22.49
			L123.75,176.42z"/>
	</g>
	<g>
		<path class="st7" d="M110.33,225.32c0,0-4.52,0.58-12.25-1.83c-5.07-1.58-10.33-4.6-10.33-4.6l13.62-47.82
			c1.22-4.29,5.69-6.78,9.99-5.56l5.15,1.47c5.33,1.52,8.42,7.07,6.91,12.4L110.33,225.32z"/>
	</g>
	<g>
		<path class="st8" d="M107.26,179.82l-13.64,0.76c0,0-1.39-2.22-1.93-6.44c-0.45-3.53,0.24-6.79,0.24-6.79l16.48-2.1
			c3.23-0.41,6.17,1.87,6.59,5.1l0.02,0.15C115.63,175.26,112.07,179.55,107.26,179.82z"/>
	</g>
	<g>
		<path class="st4" d="M124.7,164.04l-9.87-0.53c-3.22-0.16-5.7-2.89-5.54-6.11l1.53-31.13l8.78,0.43
			c8.94,0.44,15.83,8.04,15.39,16.98L133.56,156C133.33,160.67,129.37,164.27,124.7,164.04z"/>
	</g>
	<g>
		<path class="st4" d="M133.31,142.45l3.2,7.63c0.48,1.13-0.22,2.41-1.42,2.64l-2.11,0.39L133.31,142.45z"/>
	</g>
	<g>
		<path class="st9" d="M137.28,125.5c0.2-1.22,0.2-2.04,0.2-2.04c-5.14,1.45-18.1-3.32-26.85-0.3c-1.52,0.53-4.19,2.29-4.6,5.21
			c-5.12,0.46-6.38,8.11-6.38,13c0,16.62,10.73,19.72,10.73,19.72l3.6-13.3c0-5,4.04-11.73,7.29-11.73c2.4,0,6.53,0.07,9.11-0.67
			l0,0c0,0,8.64-0.08,8.64-10.4C139.02,124.99,138.55,125.19,137.28,125.5z"/>
	</g>
	<g>
		<path class="st4" d="M118.03,149.36c0,2.95-2.39,5.33-5.33,5.33c-2.95,0-5.33-2.39-5.33-5.33c0-2.95,2.39-5.33,5.33-5.33
			C115.65,144.03,118.03,146.42,118.03,149.36z"/>
	</g>
	<g>
		<g>
			<path class="st10" d="M132.63,304.67c-0.34,1.27-0.75,4.06,0.51,8.19c0,0,2.71,0.57,6.22-0.14c3.51-0.71,5.19-1.47,6.26-1.69
				c1.08-0.22,3.52,0.76,10.83-0.73c7.31-1.49,7.94-2.15,9.27-4.01c-2.2-3.63-6.98-1.56-11.5-2.73c-1.41-0.37-4.89-2.02-8.14-2.93
				c0,0-2.15-2.35-3.99-3.19c-0.21-0.09-0.45-0.06-0.62,0.09c-0.44,0.41-1.23,1.34-0.94,2.49c0.25,0.97,0.72,1.59,1.05,1.93
				c0.19,0.19,0.18,0.51-0.02,0.69c-0.88,0.82-3.39,2.56-7.93,1.44C133.2,303.97,132.75,304.23,132.63,304.67z"/>
		</g>
		<g>
			<path class="st5" d="M133.13,312.86c0,0,2.71,0.57,6.22-0.14c3.51-0.71,5.19-1.47,6.26-1.69c1.08-0.22,3.52,0.76,10.83-0.73
				c7.31-1.49,7.94-2.15,9.27-4.01c0.09,0.09,0.17,0.23,0.22,0.4c0.29,0.88,0.01,1.85-0.64,2.51c-1.08,1.11-3.41,2.35-7.28,3.14
				c-5.89,1.2-8.91,0.65-11.63,1.2c-2.72,0.55-3.05,1.64-6.83,2.41c-3.16,0.64-5.34,0.31-5.96,0.19c-0.12-0.02-0.21-0.1-0.26-0.21
				C132.65,314.35,133.13,312.86,133.13,312.86z"/>
		</g>
		<g>
			<path class="st5" d="M141.64,302.54c0.12-0.18,0.1-0.43-0.06-0.59c-0.33-0.34-0.8-0.96-1.05-1.93c-0.29-1.15,0.5-2.08,0.94-2.49
				c0.17-0.16,0.41-0.19,0.62-0.09c1.84,0.84,3.99,3.19,3.99,3.19c3.25,0.91,6.73,2.57,8.14,2.93c1.07,0.28,2.16,0.37,3.23,0.4
				c-0.37,0.2-0.95,0.39-1.84,0.55c-3.05,0.53-7.09-2.73-9.59-3.32C143.51,300.61,141.64,302.54,141.64,302.54L141.64,302.54z"/>
		</g>
		<g>
			<path class="st11" d="M152.75,305.33L152.75,305.33c0.27,0.08,0.58-0.06,0.69-0.31l0.59-1.46c0.11-0.25-0.01-0.53-0.27-0.61
				h-0.01c-0.26-0.08-0.57,0.06-0.68,0.31l-0.59,1.46C152.37,304.98,152.49,305.25,152.75,305.33z"/>
		</g>
		<g>
			<path class="st11" d="M150.76,304.57L150.76,304.57c0.27,0.08,0.58-0.06,0.69-0.31l0.59-1.46c0.11-0.25-0.01-0.53-0.27-0.61
				h-0.01c-0.26-0.08-0.57,0.06-0.68,0.31l-0.59,1.46C150.38,304.22,150.5,304.49,150.76,304.57z"/>
		</g>
		<g>
			<path class="st11" d="M148.77,303.82L148.77,303.82c0.27,0.08,0.58-0.06,0.69-0.31l0.59-1.46c0.11-0.25-0.01-0.53-0.27-0.61
				h-0.01c-0.26-0.08-0.57,0.06-0.68,0.31l-0.59,1.46C148.39,303.46,148.51,303.74,148.77,303.82z"/>
		</g>
		<g>
			<path class="st11" d="M146.78,303.06L146.78,303.06c0.27,0.08,0.58-0.06,0.69-0.31l0.59-1.46c0.11-0.25-0.01-0.53-0.27-0.61
				h-0.01c-0.26-0.08-0.57,0.06-0.68,0.31l-0.59,1.46C146.4,302.71,146.52,302.98,146.78,303.06z"/>
		</g>
	</g>
	<g>
		<g>
			<path class="st10" d="M44.08,262.56c-0.91-0.95-3.09-2.74-7.27-3.79c0,0-1.89,2.03-3.09,5.41s-1.42,5.2-1.79,6.24
				c-0.37,1.03-2.47,2.62-4.97,9.65s-2.26,7.91-1.35,10.01c4.25-0.01,4.94-5.17,8.27-8.44c1.04-1.02,4.26-3.14,6.72-5.46
				c0,0,3.12-0.63,4.79-1.77c0.19-0.13,0.29-0.35,0.24-0.58c-0.13-0.59-0.51-1.75-1.65-2.09c-0.96-0.29-1.74-0.21-2.19-0.1
				c-0.26,0.06-0.53-0.1-0.58-0.37c-0.24-1.18-0.44-4.23,2.86-7.53C44.38,263.41,44.39,262.89,44.08,262.56z"/>
		</g>
		<g>
			<path class="st5" d="M36.81,258.77c0,0-1.89,2.03-3.09,5.41s-1.42,5.2-1.79,6.24c-0.37,1.03-2.47,2.62-4.97,9.65
				s-2.26,7.91-1.35,10.01c-0.13,0.03-0.28,0.02-0.45-0.02c-0.91-0.2-1.59-0.95-1.82-1.85c-0.39-1.49-0.25-4.14,1.07-7.86
				c2.02-5.66,4.05-7.97,4.98-10.58s0.17-3.46,1.46-7.09c1.08-3.04,2.49-4.73,2.92-5.2c0.08-0.09,0.2-0.13,0.31-0.12
				C35.78,257.58,36.81,258.77,36.81,258.77z"/>
		</g>
		<g>
			<path class="st5" d="M41.25,271.37c0.1,0.19,0.31,0.31,0.53,0.26c0.46-0.11,1.24-0.19,2.19,0.1c1.14,0.34,1.52,1.5,1.65,2.09
				c0.05,0.22-0.05,0.45-0.24,0.58c-1.67,1.14-4.79,1.77-4.79,1.77c-2.46,2.32-5.67,4.44-6.72,5.46c-0.79,0.78-1.44,1.66-2.01,2.56
				c0.02-0.42,0.15-1.01,0.48-1.86c1.12-2.88,6-4.66,7.79-6.5C41.94,273.98,41.24,271.38,41.25,271.37
				C41.24,271.38,41.25,271.38,41.25,271.37z"/>
		</g>
		<g>
			<path class="st11" d="M33.12,279.45L33.12,279.45c-0.21,0.19-0.25,0.52-0.09,0.75l0.95,1.26c0.16,0.23,0.46,0.26,0.66,0.08
				l0.01-0.01c0.21-0.18,0.24-0.52,0.08-0.74l-0.95-1.26C33.63,279.31,33.33,279.27,33.12,279.45z"/>
		</g>
		<g>
			<path class="st11" d="M34.8,278.14L34.8,278.14c-0.21,0.19-0.25,0.52-0.09,0.75l0.95,1.26c0.16,0.23,0.46,0.26,0.66,0.08
				l0.01-0.01c0.21-0.18,0.24-0.52,0.08-0.74l-0.95-1.26C35.3,277.99,35,277.96,34.8,278.14z"/>
		</g>
		<g>
			<path class="st11" d="M36.47,276.83L36.47,276.83c-0.21,0.19-0.25,0.52-0.09,0.75l0.95,1.26c0.16,0.23,0.46,0.26,0.66,0.08
				l0.01-0.01c0.21-0.18,0.24-0.52,0.08-0.74l-0.95-1.26C36.97,276.68,36.68,276.64,36.47,276.83z"/>
		</g>
		<g>
			<path class="st11" d="M38.15,275.51L38.15,275.51c-0.21,0.19-0.25,0.52-0.09,0.75l0.95,1.26c0.16,0.23,0.46,0.26,0.66,0.08
				l0.01-0.01c0.21-0.18,0.24-0.52,0.08-0.74l-0.95-1.26C38.65,275.37,38.35,275.33,38.15,275.51z"/>
		</g>
	</g>
	<g>
		<g>
			<path class="st2" d="M264.9,270.25c-11.6,0-29.66-10.51-35.45-14.08c-2.35-1.45-3.08-4.53-1.63-6.88
				c1.45-2.35,4.53-3.08,6.88-1.64c0.07,0.04,6.88,4.22,14.57,7.77c10.72,4.95,15.54,5.13,16.74,4.73
				c4.27-10.03,10.69-41,10.76-41.32c0.56-2.7,3.2-4.44,5.91-3.89c2.7,0.56,4.44,3.2,3.88,5.91c-0.28,1.33-6.79,32.75-11.47,43.49
				c-1.13,2.59-3.22,4.43-6.04,5.32C267.8,270.07,266.41,270.25,264.9,270.25z"/>
		</g>
		<g>
			<path class="st3" d="M284.17,249.46c0,0-4.97,0.85-8.42,0c-4.63-1.14-8.83-3.85-8.83-3.85s3.76-24.37,7.27-31.54
				c1.96-3.99,7.91-7.24,7.91-7.24l14.3,9.69L284.17,249.46z"/>
		</g>
		<g>
			<path class="st4" d="M294.98,305.19c-0.31,0-0.62-0.03-0.93-0.09c-2.71-0.51-4.5-3.12-3.99-5.84
				c2.27-12.07,5.08-33.88,2.99-41.03c-3.05-10.41-15.77-37.3-15.9-37.57c-1.18-2.5-0.12-5.48,2.38-6.66
				c2.5-1.18,5.48-0.12,6.66,2.38c0.54,1.13,13.19,27.88,16.46,39.04c3.45,11.79-2.11,42.25-2.76,45.69
				C299.44,303.51,297.34,305.19,294.98,305.19z"/>
		</g>
		<g>
			<path class="st5" d="M303.08,247.3c0,0-0.9,3.37-4.94,5.37c-5.73,2.84-10.21,1.46-10.21,1.46s-11.41-22.96-14.59-30.27
				c-1.78-4.08,0.86-9.79,0.86-9.79l16.64-4.62l5.93,11.05L303.08,247.3z"/>
		</g>
		<path class="st2" d="M334.3,192.47c-0.97-3.17-4.33-4.95-7.5-3.97l-2.4,0.74c-1.78,0.55-3.12,1.85-3.78,3.45
			c-8.21,2.6-15.9,3.4-17.13,1.41c-2.27-3.67-2.73-13.99-1.19-26.95c0.33-2.74-1.63-5.23-4.38-5.55c-2.75-0.33-5.23,1.63-5.55,4.38
			c-1.33,11.16-1.95,26.02,2.62,33.39c2.71,4.37,7.59,5.86,12.98,5.86c7.17,0,15.24-2.63,20.32-4.62l2.05-0.63
			C333.5,199,335.28,195.64,334.3,192.47z"/>
		<g>
			<path class="st4" d="M298.81,174.2c-0.36,0-0.72-0.04-1.08-0.12c-2.7-0.6-4.4-3.26-3.8-5.96l3.07-13.91
				c0.6-2.7,3.27-4.4,5.96-3.8c2.7,0.6,4.4,3.26,3.8,5.96l-3.07,13.91C303.18,172.61,301.11,174.2,298.81,174.2z"/>
		</g>
		<g>
			<path class="st7" d="M296.77,220.5c0,0-4.52,0.58-12.25-1.83c-5.07-1.58-10.33-4.6-10.33-4.6l13.62-47.82
				c1.22-4.29,5.69-6.78,9.99-5.56l5.15,1.47c5.33,1.52,8.42,7.07,6.9,12.4L296.77,220.5z"/>
		</g>
		<g>
			<path class="st4" d="M311.14,159.22l-9.87-0.53c-3.22-0.16-5.7-2.89-5.54-6.11l1.53-31.13l8.78,0.43
				c8.94,0.44,15.83,8.04,15.39,16.98L320,151.18C319.78,155.85,315.81,159.45,311.14,159.22z"/>
		</g>
		<g>
			<path class="st4" d="M319.76,137.63l3.2,7.63c0.47,1.13-0.22,2.41-1.42,2.64l-2.11,0.39L319.76,137.63z"/>
		</g>
		<g>
			<path class="st9" d="M323.72,120.67c0.2-1.22,0.2-2.04,0.2-2.04c-5.14,1.45-18.1-3.32-26.85-0.3c-1.52,0.53-4.19,2.29-4.6,5.21
				c-5.12,0.46-6.38,8.11-6.38,13c0,16.62,10.73,19.72,10.73,19.72l3.6-13.3c0-5,4.04-11.73,7.29-11.73c2.4,0,6.53,0.07,9.11-0.67
				l0,0c0,0,8.64-0.08,8.64-10.4C325.46,120.17,325,120.37,323.72,120.67z"/>
		</g>
		<g>
			<path class="st4" d="M304.48,144.54c0,2.95-2.39,5.33-5.33,5.33s-5.33-2.39-5.33-5.33c0-2.95,2.39-5.33,5.33-5.33
				S304.48,141.6,304.48,144.54z"/>
		</g>
		<g>
			<g>
				<path class="st10" d="M289.53,298.95c-0.81,1.04-2.26,3.45-2.7,7.75c0,0,2.28,1.57,5.8,2.27c3.52,0.7,5.35,0.65,6.43,0.87
					c1.08,0.21,2.95,2.06,10.26,3.52c7.31,1.46,8.15,1.09,10.1-0.11c-0.62-4.2-5.83-4.14-9.55-6.96c-1.16-0.88-3.72-3.76-6.37-5.86
					c0,0-1.07-3-2.45-4.48c-0.16-0.17-0.39-0.23-0.61-0.15c-0.57,0.21-1.66,0.76-1.83,1.94c-0.15,0.99,0.05,1.75,0.22,2.18
					c0.1,0.25-0.03,0.54-0.28,0.63c-1.13,0.41-4.12,1.05-7.87-1.74C290.33,298.53,289.81,298.6,289.53,298.95z"/>
			</g>
			<g>
				<path class="st5" d="M286.83,306.7c0,0,2.28,1.57,5.8,2.27c3.52,0.7,5.35,0.65,6.43,0.87c1.08,0.21,2.95,2.06,10.26,3.52
					s8.15,1.09,10.1-0.11c0.05,0.12,0.06,0.28,0.05,0.45c-0.07,0.93-0.71,1.71-1.56,2.07c-1.42,0.61-4.06,0.85-7.93,0.08
					c-5.9-1.17-8.47-2.85-11.19-3.39s-3.45,0.34-7.23-0.42c-3.16-0.63-5.04-1.78-5.57-2.13c-0.1-0.07-0.16-0.17-0.16-0.29
					C285.81,307.89,286.83,306.7,286.83,306.7z"/>
			</g>
			<g>
				<path class="st5" d="M298.66,300.48c0.18-0.12,0.26-0.35,0.18-0.57c-0.17-0.44-0.37-1.19-0.22-2.18
					c0.18-1.18,1.26-1.73,1.83-1.94c0.21-0.08,0.45-0.01,0.61,0.15c1.37,1.49,2.45,4.48,2.45,4.48c2.65,2.1,5.21,4.97,6.37,5.86
					c0.88,0.67,1.85,1.18,2.82,1.62c-0.42,0.04-1.03,0-1.91-0.2c-3.02-0.69-5.48-5.26-7.56-6.77
					C301.14,299.42,298.67,300.48,298.66,300.48C298.67,300.48,298.66,300.48,298.66,300.48z"/>
			</g>
			<g>
				<path class="st11" d="M307.83,307.35L307.83,307.35c0.22,0.18,0.55,0.17,0.76-0.02l1.11-1.12c0.2-0.19,0.2-0.49-0.01-0.67
					l-0.01-0.01c-0.21-0.18-0.55-0.17-0.75,0.02l-1.11,1.12C307.62,306.87,307.62,307.17,307.83,307.35z"/>
			</g>
			<g>
				<path class="st11" d="M306.29,305.88L306.29,305.88c0.22,0.18,0.55,0.17,0.76-0.02l1.11-1.12c0.2-0.19,0.2-0.49-0.01-0.67
					l-0.01-0.01c-0.21-0.18-0.55-0.17-0.75,0.02l-1.11,1.12C306.07,305.41,306.08,305.71,306.29,305.88z"/>
			</g>
			<g>
				<path class="st11" d="M304.75,304.42L304.75,304.42c0.22,0.18,0.55,0.17,0.76-0.02l1.11-1.12c0.2-0.19,0.2-0.49-0.01-0.67
					l-0.01-0.01c-0.21-0.18-0.55-0.17-0.75,0.02l-1.11,1.12C304.53,303.94,304.54,304.24,304.75,304.42z"/>
			</g>
			<g>
				<path class="st11" d="M303.21,302.95L303.21,302.95c0.22,0.18,0.55,0.17,0.76-0.02l1.11-1.12c0.2-0.19,0.2-0.49-0.01-0.67
					l-0.01-0.01c-0.21-0.18-0.55-0.17-0.75,0.02l-1.11,1.12C302.99,302.48,303,302.77,303.21,302.95z"/>
			</g>
		</g>
		<g>
			<g>
				<path class="st10" d="M236.83,248.11c-0.67-1.13-2.39-3.36-6.23-5.33c0,0-2.3,1.55-4.23,4.57c-1.93,3.02-2.55,4.75-3.15,5.67
					c-0.59,0.93-2.99,2-7.01,8.28c-4.02,6.28-3.98,7.2-3.57,9.45c4.14,0.94,5.97-3.93,9.96-6.36c1.24-0.76,4.85-2.1,7.77-3.81
					c0,0,3.18,0.09,5.07-0.65c0.21-0.08,0.36-0.28,0.36-0.51c0.01-0.6-0.11-1.82-1.14-2.41c-0.87-0.5-1.64-0.59-2.11-0.59
					c-0.27,0-0.49-0.22-0.49-0.49c0.03-1.2,0.52-4.22,4.48-6.69C236.93,249.01,237.06,248.5,236.83,248.11z"/>
			</g>
			<g>
				<path class="st5" d="M230.6,242.78c0,0-2.3,1.55-4.23,4.57c-1.93,3.02-2.55,4.75-3.15,5.67c-0.59,0.93-2.99,2-7.01,8.28
					c-4.02,6.28-3.98,7.2-3.57,9.45c-0.13,0-0.28-0.04-0.44-0.12c-0.84-0.4-1.33-1.28-1.36-2.21c-0.05-1.55,0.68-4.09,2.81-7.41
					c3.24-5.07,5.73-6.86,7.23-9.19c1.49-2.34,0.94-3.33,3.02-6.58c1.74-2.72,3.49-4.05,4.01-4.41c0.1-0.07,0.22-0.08,0.33-0.04
					C229.86,241.39,230.6,242.78,230.6,242.78z"/>
			</g>
			<g>
				<path class="st5" d="M232.09,256.06c0.05,0.21,0.23,0.37,0.46,0.37c0.47,0,1.25,0.09,2.11,0.59c1.03,0.59,1.15,1.81,1.14,2.41
					c0,0.23-0.15,0.43-0.36,0.51c-1.88,0.74-5.07,0.65-5.07,0.65c-2.92,1.7-6.53,3.05-7.77,3.81c-0.95,0.58-1.77,1.3-2.54,2.04
					c0.12-0.4,0.37-0.95,0.89-1.71c1.74-2.56,6.89-3.19,9.06-4.58C232.17,258.76,232.08,256.07,232.09,256.06
					C232.08,256.07,232.09,256.06,232.09,256.06z"/>
			</g>
			<g>
				<path class="st11" d="M222.36,262.11L222.36,262.11c-0.25,0.14-0.36,0.45-0.26,0.71l0.64,1.44c0.1,0.26,0.38,0.36,0.63,0.23
					h0.01c0.24-0.13,0.35-0.45,0.25-0.71l-0.64-1.44C222.88,262.08,222.6,261.98,222.36,262.11z"/>
			</g>
			<g>
				<path class="st11" d="M224.28,261.2L224.28,261.2c-0.25,0.14-0.36,0.45-0.26,0.71l0.64,1.44c0.1,0.26,0.38,0.36,0.63,0.23h0.01
					c0.24-0.13,0.35-0.45,0.25-0.71l-0.64-1.44C224.8,261.17,224.52,261.07,224.28,261.2z"/>
			</g>
			<g>
				<path class="st11" d="M226.21,260.3L226.21,260.3c-0.25,0.14-0.36,0.45-0.26,0.71l0.64,1.44c0.1,0.26,0.38,0.36,0.63,0.23h0.01
					c0.24-0.13,0.35-0.45,0.25-0.71l-0.64-1.44C226.73,260.27,226.45,260.17,226.21,260.3z"/>
			</g>
			<g>
				<path class="st11" d="M228.14,259.4L228.14,259.4c-0.25,0.14-0.36,0.45-0.26,0.71l0.64,1.44c0.1,0.26,0.38,0.36,0.63,0.23h0.01
					c0.24-0.13,0.35-0.45,0.25-0.71l-0.64-1.44C228.66,259.37,228.38,259.27,228.14,259.4z"/>
			</g>
		</g>
		<path class="st4" d="M298.45,164.62c-1.07-2.54-4.01-3.74-6.55-2.66c-13.71,5.78-22.58,11.16-26.36,15.98
			c-8.83,11.27,7.45,28.65,9.33,30.59c0.69,0.72,1.55,1.17,2.46,1.38c0.8,0.37,1.66,0.56,2.53,0.56c1.41,0,2.83-0.49,3.97-1.5
			c2.49-2.19,2.72-5.98,0.53-8.47l-1.66-1.89c-1.25-1.42-3.03-2.1-4.78-2.02c-3.54-4.88-6.17-10.36-4.51-12.49
			c2.57-3.27,10.93-8.11,22.38-12.94C298.33,170.09,299.52,167.16,298.45,164.62z"/>
		<g>
			<path class="st8" d="M295.62,175.19l-12.94,4.35c0,0-1.93-1.77-3.57-5.69c-1.37-3.29-1.57-6.61-1.57-6.61l15.33-6.4
				c3-1.25,6.45,0.16,7.7,3.16l0.06,0.14C302.48,168.57,300.18,173.65,295.62,175.19z"/>
		</g>
	</g>
	<g>
		<g>
			<path class="st2" d="M425.01,267.85c-2.55,0-4.73-1.94-4.97-4.53c-0.26-2.75,1.76-5.19,4.5-5.45
				c13.18-1.26,26.53-4.89,28.66-7.74c-3.84-10.15-18.86-33.05-19.01-33.28c-1.52-2.31-0.88-5.41,1.43-6.92
				c2.31-1.52,5.41-0.87,6.92,1.43c0.66,1,16.09,24.55,20.15,35.61c1.03,2.8,0.71,5.74-0.89,8.28c-5.7,9.03-29.24,11.92-36.32,12.59
				C425.33,267.84,425.17,267.85,425.01,267.85z"/>
		</g>
		<g>
			<g>
				<path class="st10" d="M427.16,257.53c-1.2-0.55-3.88-1.41-8.16-0.85c0,0-1.01,2.58-0.89,6.16c0.12,3.58,0.59,5.36,0.63,6.46
					s-1.33,3.34-1.07,10.8c0.26,7.45,0.8,8.19,2.42,9.81c3.94-1.57,2.69-6.63,4.59-10.89c0.59-1.33,2.8-4.49,4.24-7.54
					c0,0,2.67-1.73,3.8-3.41c0.13-0.19,0.14-0.43,0.01-0.63c-0.33-0.5-1.12-1.44-2.3-1.34c-1,0.08-1.69,0.45-2.07,0.71
					c-0.22,0.15-0.53,0.1-0.68-0.13c-0.66-1.01-1.97-3.77-0.11-8.06C427.75,258.21,427.57,257.72,427.16,257.53z"/>
			</g>
			<g>
				<path class="st5" d="M419,256.68c0,0-1.01,2.58-0.89,6.16c0.12,3.58,0.59,5.36,0.63,6.46s-1.33,3.34-1.07,10.8
					c0.26,7.45,0.8,8.19,2.42,9.81c-0.11,0.08-0.26,0.13-0.43,0.15c-0.92,0.14-1.82-0.3-2.37-1.05c-0.92-1.24-1.76-3.75-1.89-7.7
					c-0.21-6.01,0.83-8.9,0.73-11.67c-0.1-2.77-1.12-3.28-1.25-7.13c-0.11-3.23,0.57-5.32,0.8-5.91c0.04-0.11,0.13-0.19,0.25-0.22
					C417.61,255.96,419,256.68,419,256.68z"/>
			</g>
			<g>
				<path class="st5" d="M427.77,266.77c0.16,0.14,0.4,0.17,0.59,0.04c0.38-0.27,1.08-0.63,2.07-0.71c1.18-0.1,1.97,0.84,2.3,1.34
					c0.13,0.19,0.12,0.44-0.01,0.63c-1.13,1.68-3.8,3.41-3.8,3.41c-1.44,3.06-3.64,6.21-4.24,7.54c-0.45,1.01-0.72,2.07-0.93,3.12
					c-0.13-0.4-0.23-1-0.24-1.91c-0.02-3.09,3.86-6.54,4.86-8.91S427.77,266.78,427.77,266.77
					C427.77,266.78,427.77,266.77,427.77,266.77z"/>
			</g>
			<g>
				<path class="st11" d="M423.19,277.27L423.19,277.27c-0.13,0.25-0.04,0.58,0.19,0.73l1.35,0.82c0.23,0.15,0.52,0.08,0.64-0.17
					v-0.01c0.12-0.25,0.04-0.57-0.2-0.72l-1.35-0.82C423.6,276.95,423.31,277.03,423.19,277.27z"/>
			</g>
			<g>
				<path class="st11" d="M424.26,275.44L424.26,275.44c-0.13,0.25-0.04,0.58,0.19,0.73l1.35,0.82c0.23,0.15,0.52,0.08,0.64-0.17
					v-0.01c0.12-0.25,0.04-0.57-0.2-0.72l-1.35-0.82C424.67,275.12,424.38,275.19,424.26,275.44z"/>
			</g>
			<g>
				<path class="st11" d="M425.33,273.6L425.33,273.6c-0.13,0.25-0.04,0.58,0.19,0.73l1.35,0.82c0.23,0.15,0.52,0.08,0.64-0.17
					v-0.01c0.12-0.25,0.04-0.57-0.2-0.72l-1.35-0.82C425.75,273.28,425.46,273.35,425.33,273.6z"/>
			</g>
			<g>
				<path class="st11" d="M426.41,271.76L426.41,271.76c-0.13,0.25-0.04,0.58,0.19,0.73l1.35,0.82c0.23,0.15,0.52,0.08,0.64-0.17
					v-0.01c0.12-0.25,0.04-0.57-0.2-0.72l-1.35-0.82C426.82,271.44,426.53,271.51,426.41,271.76z"/>
			</g>
		</g>
		<g>
			<path class="st3" d="M459.92,236.35c0,0-0.9,3.37-4.94,5.37c-5.73,2.84-10.21,1.46-10.21,1.46s-15.37-19.04-18.56-26.35
				c-1.78-4.08,0.86-9.79,0.86-9.79l16.64-4.62l5.93,11.05L459.92,236.35z"/>
		</g>
		<g>
			<path class="st4" d="M410.55,300.02c-0.96,0-1.93-0.27-2.78-0.85c-2.29-1.54-2.9-4.65-1.36-6.94
				c5.02-7.48,18.51-28.74,20.56-37.14c2.77-11.39,2.8-39.6,2.8-39.88c0-2.76,2.24-5,5-5l0,0c2.76,0,5,2.24,5,5
				c0,1.21-0.02,29.71-3.08,42.25c-2.84,11.64-20.02,37.44-21.97,40.35C413.74,299.24,412.16,300.02,410.55,300.02z"/>
		</g>
		<g>
			<path class="st5" d="M443.16,246.66c0,0-4.6,0.96-8.13,0.62c-5.91-0.58-10.4-2.64-10.4-2.64s-1.07-30.44,2.44-37.6
				c1.96-3.99,7.91-7.24,7.91-7.24l14.3,9.69L443.16,246.66z"/>
		</g>
		<path class="st2" d="M478.05,191.47c-0.06,0-0.12,0-0.18,0l-2.51,0.07c-1.86,0.05-3.5,0.95-4.57,2.32
			c-8.61,0.32-16.23-0.95-16.89-3.2c-1.21-4.14,1.09-14.22,6.02-26.29c1.04-2.56-0.18-5.48-2.74-6.52
			c-2.56-1.04-5.47,0.18-6.52,2.74c-4.25,10.41-8.8,24.56-6.36,32.88c2.52,8.61,13.77,10.52,23.25,10.52c3.17,0,6.13-0.21,8.51-0.46
			l2.15-0.06c3.31-0.1,5.92-2.86,5.82-6.17C483.95,194.04,481.28,191.47,478.05,191.47z"/>
		<g>
			<path class="st4" d="M451.69,167.18c-0.36,0-0.72-0.04-1.08-0.12c-2.7-0.6-4.4-3.26-3.8-5.96l3.07-13.91
				c0.6-2.7,3.26-4.4,5.96-3.8c2.7,0.6,4.4,3.26,3.8,5.96l-3.07,13.91C456.05,165.59,453.99,167.18,451.69,167.18z"/>
		</g>
		<g>
			<path class="st7" d="M449.65,213.47c0,0-4.52,0.58-12.25-1.83c-5.07-1.58-10.33-4.6-10.33-4.6l13.62-47.82
				c1.22-4.29,5.69-6.78,9.99-5.56l5.15,1.47c5.33,1.52,8.42,7.07,6.9,12.4L449.65,213.47z"/>
		</g>
		<g>
			<path class="st4" d="M464.02,152.19l-9.87-0.53c-3.22-0.16-5.7-2.89-5.54-6.11l1.53-31.13l8.78,0.43
				c8.94,0.44,15.83,8.04,15.39,16.98l-1.43,12.32C472.65,148.82,468.68,152.42,464.02,152.19z"/>
		</g>
		<g>
			<path class="st4" d="M472.63,130.6l3.2,7.63c0.48,1.13-0.22,2.41-1.42,2.64l-2.11,0.39L472.63,130.6z"/>
		</g>
		<g>
			<path class="st9" d="M476.6,113.65c0.2-1.22,0.2-2.04,0.2-2.04c-5.14,1.45-18.1-3.32-26.85-0.3c-1.52,0.53-4.19,2.29-4.6,5.21
				c-5.12,0.46-6.38,8.11-6.38,13c0,16.62,10.73,19.72,10.73,19.72l3.6-13.3c0-5,4.04-11.73,7.29-11.73c2.4,0,6.53,0.07,9.11-0.67
				l0,0c0,0,8.64-0.08,8.64-10.4C478.34,113.14,477.87,113.34,476.6,113.65z"/>
		</g>
		<g>
			<path class="st4" d="M457.35,137.52c0,2.95-2.39,5.33-5.33,5.33c-2.95,0-5.33-2.39-5.33-5.33s2.39-5.33,5.33-5.33
				C454.96,132.18,457.35,134.57,457.35,137.52z"/>
		</g>
		<g>
			<g>
				<path class="st10" d="M406.73,291.23c-1.1,0.72-3.26,2.53-5.06,6.46c0,0,1.65,2.23,4.75,4.03s4.85,2.35,5.8,2.9
					s2.12,2.9,8.57,6.65c6.45,3.74,7.36,3.67,9.59,3.16c0.77-4.18-4.18-5.8-6.78-9.68c-0.81-1.21-2.31-4.76-4.14-7.6
					c0,0-0.05-3.18-0.87-5.03c-0.09-0.21-0.3-0.35-0.52-0.34c-0.6,0.01-1.81,0.18-2.36,1.24c-0.46,0.89-0.52,1.67-0.5,2.14
					c0.01,0.27-0.2,0.5-0.47,0.51c-1.2,0.02-4.24-0.34-6.88-4.19C407.62,291.09,407.11,290.98,406.73,291.23z"/>
			</g>
			<g>
				<path class="st5" d="M401.67,297.69c0,0,1.65,2.23,4.75,4.03s4.85,2.35,5.8,2.9s2.12,2.9,8.57,6.65
					c6.45,3.74,7.36,3.67,9.59,3.16c0.01,0.13-0.03,0.28-0.1,0.44c-0.37,0.85-1.22,1.39-2.15,1.45c-1.54,0.11-4.11-0.51-7.53-2.49
					c-5.2-3.02-7.09-5.44-9.49-6.83c-2.4-1.39-3.37-0.8-6.7-2.73c-2.79-1.62-4.2-3.31-4.58-3.82c-0.07-0.09-0.09-0.22-0.06-0.33
					C400.31,298.48,401.67,297.69,401.67,297.69z"/>
			</g>
			<g>
				<path class="st5" d="M414.88,295.63c0.21-0.06,0.36-0.25,0.35-0.48c-0.02-0.47,0.04-1.25,0.5-2.14
					c0.55-1.06,1.75-1.22,2.36-1.24c0.23-0.01,0.43,0.13,0.52,0.34c0.82,1.85,0.87,5.03,0.87,5.03c1.83,2.84,3.32,6.39,4.14,7.6
					c0.62,0.92,1.37,1.72,2.15,2.45c-0.41-0.1-0.97-0.33-1.75-0.81c-2.63-1.62-3.48-6.75-4.96-8.85
					C417.56,295.43,414.88,295.63,414.88,295.63L414.88,295.63z"/>
			</g>
			<g>
				<path class="st11" d="M421.33,305.09L421.33,305.09c0.15,0.24,0.47,0.34,0.72,0.23l1.41-0.7c0.25-0.12,0.34-0.4,0.2-0.63
					l-0.01-0.01c-0.14-0.24-0.46-0.33-0.72-0.22l-1.41,0.7C421.28,304.57,421.19,304.86,421.33,305.09z"/>
			</g>
			<g>
				<path class="st11" d="M420.35,303.21L420.35,303.21c0.15,0.24,0.47,0.34,0.72,0.23l1.41-0.7c0.25-0.12,0.34-0.4,0.2-0.63
					l-0.01-0.01c-0.14-0.24-0.46-0.33-0.72-0.22l-1.41,0.7C420.29,302.69,420.2,302.97,420.35,303.21z"/>
			</g>
			<g>
				<path class="st11" d="M419.36,301.32L419.36,301.32c0.15,0.24,0.47,0.34,0.72,0.23l1.41-0.7c0.25-0.12,0.34-0.4,0.2-0.63
					l-0.01-0.01c-0.14-0.24-0.46-0.33-0.72-0.22l-1.41,0.7C419.31,300.8,419.22,301.08,419.36,301.32z"/>
			</g>
			<g>
				<path class="st11" d="M418.38,299.43L418.38,299.43c0.15,0.24,0.47,0.34,0.72,0.23l1.41-0.7c0.25-0.12,0.34-0.4,0.2-0.63
					l-0.01-0.01c-0.14-0.24-0.46-0.33-0.72-0.22l-1.41,0.7C418.32,298.91,418.23,299.2,418.38,299.43z"/>
			</g>
		</g>
		<path class="st4" d="M451.32,157.59c-1.07-2.54-4.01-3.74-6.55-2.66c-13.71,5.78-22.58,11.16-26.36,15.98
			c-8.84,11.27,7.45,28.65,9.33,30.59c0.69,0.72,1.55,1.17,2.46,1.38c0.8,0.37,1.66,0.56,2.53,0.56c1.41,0,2.83-0.49,3.97-1.5
			c2.49-2.19,2.72-5.98,0.53-8.47l-1.66-1.89c-1.25-1.42-3.03-2.1-4.78-2.02c-3.54-4.88-6.17-10.36-4.51-12.49
			c2.57-3.27,10.93-8.11,22.38-12.94C451.2,163.07,452.4,160.14,451.32,157.59z"/>
		<g>
			<path class="st8" d="M448.49,168.16l-12.94,4.35c0,0-1.93-1.77-3.57-5.69c-1.37-3.29-1.57-6.61-1.57-6.61l15.33-6.4
				c3-1.25,6.45,0.16,7.7,3.16l0.06,0.14C455.35,161.55,453.05,166.63,448.49,168.16z"/>
		</g>
	</g>
</g>
<g>
	<g>
		<path class="st2" d="M528.84,741.01c-2.95,0-6.26-0.22-9.94-0.65c-10.32-1.2-19.91-3.68-20.31-3.79c-2.67-0.7-4.27-3.43-3.58-6.1
			s3.43-4.28,6.1-3.58c0.09,0.02,9.13,2.36,18.62,3.49c13.66,1.64,17.83-0.49,18.2-1.15c4.27-9.8,10.78-41.21,10.85-41.52
			c0.56-2.7,3.21-4.45,5.91-3.89c2.7,0.56,4.44,3.2,3.89,5.91c-0.27,1.33-6.79,32.75-11.47,43.49
			C544.81,738.47,538.93,741.01,528.84,741.01z"/>
	</g>
	<g>
		<path class="st3" d="M556.18,718.33c0,0-4.97,0.85-8.42,0c-4.63-1.14-8.83-3.85-8.83-3.85s3.76-24.37,7.27-31.54
			c1.96-3.99,7.91-7.24,7.91-7.24l14.3,9.69L556.18,718.33z"/>
	</g>
	<g>
		<path class="st4" d="M596.67,772.89c-2.16,0-4.16-1.41-4.8-3.59c-2.86-9.75-11.34-36.63-16.13-43.91
			c-6.07-9.23-25.82-34.67-26.02-34.93c-1.69-2.18-1.3-5.32,0.88-7.02c2.18-1.69,5.32-1.3,7.02,0.88
			c0.82,1.06,20.19,26.01,26.48,35.57c6.47,9.84,16.27,42.86,17.37,46.59c0.78,2.65-0.74,5.43-3.39,6.21
			C597.61,772.83,597.13,772.89,596.67,772.89z"/>
	</g>
	<g>
		<path class="st5" d="M580.72,710.03c0,0-0.31,3.81-4.17,6.66c-5.14,3.8-9.39,3.09-9.39,3.09s-18.62-19.75-21.81-27.06
			c-1.78-4.08,0.86-9.79,0.86-9.79l16.64-4.62l5.93,11.05L580.72,710.03z"/>
	</g>
	<path class="st4" d="M571.24,634.42c-0.36-2.74-2.87-4.67-5.61-4.31c-14.76,1.94-24.74,4.77-29.66,8.41
		c-9.09,6.72-18.96,27.39-20.05,29.73c-0.48,1.03-0.57,2.14-0.34,3.18c0.27,1.96,1.49,3.74,3.41,4.64c0.82,0.38,1.68,0.56,2.52,0.56
		c2.26,0,4.43-1.29,5.45-3.48l1.06-2.28c0.72-1.54,0.72-3.23,0.15-4.7c4.07-7.6,9.66-16.58,13.76-19.61
		c3.34-2.47,12.69-4.92,25.01-6.53C569.67,639.67,571.6,637.16,571.24,634.42z"/>
	<path class="st2" d="M613.5,663.53c-1.23-3.08-4.72-4.57-7.8-3.34l-2.33,0.93c-1.73,0.69-2.97,2.11-3.49,3.76
		c-8.03,3.32-15.54,4.72-16.95,2.81c-3.48-4.7-3.97-20.78-3.2-30.7c0.21-2.75-1.85-5.16-4.6-5.37c-2.76-0.21-5.16,1.84-5.37,4.6
		c-0.36,4.61-1.79,28.06,5.13,37.42c2.64,3.57,6.72,4.86,11.24,4.86c7.68,0,16.65-3.73,22.04-6.37l1.99-0.79
		C613.23,670.1,614.73,666.61,613.5,663.53z"/>
	<g>
		<path class="st4" d="M570.82,643.07c-0.36,0-0.72-0.04-1.08-0.12c-2.7-0.6-4.4-3.26-3.8-5.96l3.07-13.91
			c0.6-2.7,3.27-4.39,5.96-3.8c2.7,0.6,4.4,3.26,3.8,5.96l-3.07,13.91C575.18,641.48,573.11,643.07,570.82,643.07z"/>
	</g>
	<g>
		<path class="st6" d="M582.2,640.47l-0.51,21.94c0,0-2.85,1.75-7.1,1.86c-3.56,0.09-6.73-0.92-6.73-0.92l-0.59-22.49L582.2,640.47z
			"/>
	</g>
	<g>
		<path class="st7" d="M568.78,689.36c0,0-4.52,0.58-12.25-1.83c-5.07-1.58-10.33-4.6-10.33-4.6l13.62-47.82
			c1.22-4.29,5.69-6.78,9.99-5.56l5.15,1.47c5.33,1.52,8.42,7.07,6.91,12.4L568.78,689.36z"/>
	</g>
	<g>
		<path class="st8" d="M565.71,643.86l-13.64,0.76c0,0-1.39-2.22-1.93-6.44c-0.45-3.53,0.24-6.79,0.24-6.79l16.48-2.1
			c3.23-0.41,6.17,1.87,6.59,5.1l0.02,0.15C574.08,639.31,570.51,643.59,565.71,643.86z"/>
	</g>
	<g>
		<path class="st4" d="M583.15,628.09l-9.87-0.53c-3.22-0.16-5.7-2.89-5.54-6.11l1.53-31.13l8.78,0.43
			c8.94,0.44,15.83,8.04,15.39,16.98l-1.43,12.32C591.78,624.72,587.81,628.32,583.15,628.09z"/>
	</g>
	<g>
		<path class="st4" d="M591.76,606.49l3.2,7.63c0.47,1.13-0.22,2.41-1.42,2.64l-2.11,0.39L591.76,606.49z"/>
	</g>
	<g>
		<path class="st9" d="M595.73,589.54c0.2-1.22,0.2-2.04,0.2-2.04c-5.14,1.45-18.1-3.32-26.85-0.3c-1.52,0.53-4.19,2.29-4.6,5.21
			c-5.12,0.46-6.38,8.11-6.38,13c0,16.62,10.73,19.72,10.73,19.72l3.6-13.3c0-5,4.04-11.73,7.29-11.73c2.4,0,6.53,0.07,9.11-0.67
			l0,0c0,0,8.64-0.08,8.64-10.4C597.47,589.03,597,589.24,595.73,589.54z"/>
	</g>
	<g>
		<path class="st4" d="M576.48,613.41c0,2.95-2.39,5.33-5.33,5.33s-5.33-2.39-5.33-5.33c0-2.95,2.39-5.33,5.33-5.33
			S576.48,610.46,576.48,613.41z"/>
	</g>
	<g>
		<g>
			<path class="st10" d="M591.07,768.72c-0.34,1.27-0.75,4.06,0.51,8.19c0,0,2.71,0.57,6.22-0.14c3.51-0.71,5.19-1.47,6.26-1.69
				c1.08-0.22,3.52,0.76,10.83-0.73s7.94-2.15,9.27-4.01c-2.2-3.63-6.98-1.56-11.5-2.73c-1.41-0.37-4.89-2.02-8.14-2.93
				c0,0-2.15-2.35-3.99-3.19c-0.21-0.09-0.45-0.06-0.62,0.09c-0.44,0.41-1.23,1.34-0.94,2.49c0.25,0.97,0.72,1.59,1.05,1.93
				c0.19,0.19,0.18,0.51-0.02,0.69c-0.88,0.82-3.39,2.56-7.93,1.44C591.65,768.02,591.19,768.28,591.07,768.72z"/>
		</g>
		<g>
			<path class="st5" d="M591.58,776.9c0,0,2.71,0.57,6.22-0.14c3.51-0.71,5.19-1.47,6.26-1.69c1.08-0.22,3.52,0.76,10.83-0.73
				s7.94-2.15,9.27-4.01c0.09,0.09,0.17,0.23,0.22,0.4c0.29,0.88,0.01,1.85-0.64,2.51c-1.08,1.11-3.41,2.35-7.28,3.14
				c-5.89,1.2-8.91,0.65-11.63,1.2c-2.72,0.55-3.05,1.64-6.83,2.41c-3.16,0.64-5.34,0.31-5.96,0.19c-0.12-0.02-0.21-0.1-0.26-0.21
				C591.09,778.4,591.58,776.9,591.58,776.9z"/>
		</g>
		<g>
			<path class="st5" d="M600.08,766.59c0.12-0.18,0.1-0.43-0.06-0.59c-0.33-0.34-0.8-0.96-1.05-1.93c-0.29-1.15,0.5-2.08,0.94-2.49
				c0.17-0.16,0.41-0.19,0.62-0.09c1.84,0.84,3.99,3.19,3.99,3.19c3.25,0.91,6.73,2.57,8.14,2.93c1.07,0.28,2.16,0.37,3.23,0.4
				c-0.37,0.2-0.95,0.39-1.84,0.55c-3.05,0.53-7.09-2.73-9.59-3.32S600.09,766.59,600.08,766.59
				C600.09,766.59,600.08,766.59,600.08,766.59z"/>
		</g>
		<g>
			<path class="st11" d="M611.2,769.38L611.2,769.38c0.27,0.08,0.58-0.06,0.69-0.31l0.59-1.46c0.11-0.25-0.01-0.53-0.27-0.61h-0.01
				c-0.26-0.08-0.57,0.06-0.68,0.31l-0.59,1.46C610.81,769.02,610.93,769.29,611.2,769.38z"/>
		</g>
		<g>
			<path class="st11" d="M609.21,768.62L609.21,768.62c0.27,0.08,0.58-0.06,0.69-0.31l0.59-1.46c0.11-0.25-0.01-0.53-0.27-0.61
				h-0.01c-0.26-0.08-0.57,0.06-0.68,0.31l-0.59,1.46C608.82,768.27,608.95,768.54,609.21,768.62z"/>
		</g>
		<g>
			<path class="st11" d="M607.22,767.87L607.22,767.87c0.27,0.08,0.58-0.06,0.69-0.31l0.59-1.46c0.11-0.25-0.01-0.53-0.27-0.61
				h-0.01c-0.26-0.08-0.57,0.06-0.68,0.31l-0.59,1.46C606.83,767.51,606.96,767.78,607.22,767.87z"/>
		</g>
		<g>
			<path class="st11" d="M605.23,767.11L605.23,767.11c0.27,0.08,0.58-0.06,0.69-0.31l0.59-1.46c0.11-0.25-0.01-0.53-0.27-0.61
				h-0.01c-0.26-0.08-0.57,0.06-0.68,0.31l-0.59,1.46C604.84,766.76,604.97,767.03,605.23,767.11z"/>
		</g>
	</g>
	<g>
		<g>
			<path class="st10" d="M502.53,726.61c-0.91-0.95-3.09-2.74-7.27-3.79c0,0-1.89,2.03-3.09,5.41c-1.2,3.38-1.42,5.2-1.79,6.24
				c-0.37,1.03-2.47,2.62-4.97,9.65s-2.26,7.91-1.35,10.01c4.25-0.01,4.94-5.17,8.27-8.44c1.04-1.02,4.26-3.14,6.72-5.46
				c0,0,3.12-0.63,4.79-1.77c0.19-0.13,0.29-0.35,0.24-0.58c-0.13-0.59-0.51-1.75-1.65-2.09c-0.96-0.29-1.74-0.21-2.19-0.1
				c-0.26,0.06-0.53-0.1-0.58-0.37c-0.24-1.18-0.44-4.23,2.86-7.53C502.83,727.46,502.84,726.93,502.53,726.61z"/>
		</g>
		<g>
			<path class="st5" d="M495.25,722.81c0,0-1.89,2.03-3.09,5.41c-1.2,3.38-1.42,5.2-1.79,6.24c-0.37,1.03-2.47,2.62-4.97,9.65
				s-2.26,7.91-1.35,10.01c-0.13,0.03-0.28,0.02-0.45-0.02c-0.91-0.2-1.59-0.95-1.82-1.85c-0.39-1.49-0.25-4.14,1.07-7.86
				c2.02-5.66,4.05-7.97,4.98-10.58c0.93-2.61,0.17-3.46,1.46-7.09c1.08-3.04,2.49-4.73,2.92-5.2c0.08-0.09,0.2-0.13,0.31-0.12
				C494.22,721.63,495.25,722.81,495.25,722.81z"/>
		</g>
		<g>
			<path class="st5" d="M499.7,735.42c0.1,0.19,0.31,0.31,0.53,0.26c0.46-0.11,1.23-0.19,2.19,0.1c1.14,0.34,1.52,1.5,1.65,2.09
				c0.05,0.22-0.05,0.45-0.24,0.58c-1.67,1.14-4.79,1.77-4.79,1.77c-2.46,2.32-5.67,4.44-6.72,5.46c-0.79,0.78-1.44,1.66-2.01,2.56
				c0.02-0.42,0.15-1.01,0.48-1.86c1.11-2.88,6-4.66,7.79-6.5C500.38,738.02,499.69,735.42,499.7,735.42
				C499.69,735.42,499.69,735.42,499.7,735.42z"/>
		</g>
		<g>
			<path class="st11" d="M491.57,743.5L491.57,743.5c-0.21,0.19-0.25,0.52-0.09,0.75l0.95,1.26c0.16,0.23,0.46,0.26,0.66,0.08
				l0.01-0.01c0.21-0.18,0.24-0.52,0.08-0.74l-0.95-1.26C492.07,743.35,491.78,743.32,491.57,743.5z"/>
		</g>
		<g>
			<path class="st11" d="M493.24,742.19L493.24,742.19c-0.21,0.19-0.25,0.52-0.09,0.75l0.95,1.26c0.16,0.23,0.46,0.26,0.66,0.08
				l0.01-0.01c0.21-0.18,0.24-0.52,0.08-0.74l-0.95-1.26C493.75,742.04,493.45,742,493.24,742.19z"/>
		</g>
		<g>
			<path class="st11" d="M494.92,740.87L494.92,740.87c-0.21,0.19-0.25,0.52-0.09,0.75l0.95,1.26c0.16,0.23,0.46,0.26,0.66,0.08
				l0.01-0.01c0.21-0.18,0.24-0.52,0.08-0.74l-0.95-1.26C495.42,740.73,495.12,740.69,494.92,740.87z"/>
		</g>
		<g>
			<path class="st11" d="M496.59,739.56L496.59,739.56c-0.21,0.19-0.25,0.52-0.09,0.75l0.95,1.26c0.16,0.23,0.46,0.26,0.66,0.08
				l0.01-0.01c0.21-0.18,0.24-0.52,0.08-0.74l-0.95-1.26C497.09,739.41,496.8,739.37,496.59,739.56z"/>
		</g>
	</g>
</g>
<g>
	<g>
		<path class="st2" d="M701.35,734.3c-11.6,0-29.66-10.51-35.45-14.08c-2.35-1.45-3.08-4.53-1.63-6.88s4.53-3.08,6.88-1.64
			c0.07,0.04,6.88,4.22,14.57,7.77c10.72,4.95,15.54,5.13,16.74,4.73c4.27-10.03,10.69-41,10.76-41.32c0.56-2.7,3.2-4.44,5.91-3.89
			c2.7,0.56,4.44,3.2,3.88,5.91c-0.28,1.33-6.79,32.75-11.47,43.49c-1.13,2.59-3.22,4.43-6.04,5.32
			C704.25,734.12,702.85,734.3,701.35,734.3z"/>
	</g>
	<g>
		<path class="st3" d="M720.62,713.5c0,0-4.97,0.85-8.42,0c-4.63-1.14-8.83-3.85-8.83-3.85s3.76-24.37,7.27-31.54
			c1.96-3.99,7.91-7.24,7.91-7.24l14.3,9.69L720.62,713.5z"/>
	</g>
	<g>
		<path class="st4" d="M731.43,769.23c-0.31,0-0.62-0.03-0.93-0.09c-2.71-0.51-4.5-3.12-3.99-5.84c2.27-12.07,5.08-33.88,2.99-41.03
			c-3.05-10.41-15.77-37.3-15.9-37.57c-1.18-2.5-0.12-5.48,2.38-6.66s5.48-0.12,6.66,2.38c0.54,1.13,13.19,27.88,16.46,39.04
			c3.45,11.79-2.11,42.25-2.76,45.69C735.88,767.56,733.78,769.23,731.43,769.23z"/>
	</g>
	<g>
		<path class="st5" d="M739.53,711.34c0,0-0.9,3.37-4.94,5.37c-5.73,2.84-10.21,1.46-10.21,1.46s-11.41-22.96-14.59-30.27
			c-1.78-4.08,0.86-9.79,0.86-9.79l16.64-4.62l5.93,11.05L739.53,711.34z"/>
	</g>
	<path class="st2" d="M770.75,656.52c-0.97-3.17-4.33-4.95-7.5-3.97l-2.4,0.74c-1.78,0.55-3.12,1.85-3.78,3.45
		c-8.21,2.6-15.9,3.4-17.13,1.41c-2.27-3.67-2.73-13.99-1.19-26.95c0.33-2.74-1.63-5.23-4.38-5.55c-2.75-0.33-5.23,1.63-5.55,4.38
		c-1.33,11.16-1.95,26.02,2.62,33.39c2.71,4.37,7.59,5.86,12.98,5.86c7.17,0,15.24-2.63,20.32-4.62l2.05-0.63
		C769.94,663.04,771.72,659.69,770.75,656.52z"/>
	<g>
		<path class="st4" d="M735.26,638.25c-0.36,0-0.72-0.04-1.08-0.12c-2.7-0.6-4.4-3.26-3.8-5.96l3.07-13.91
			c0.6-2.7,3.27-4.4,5.96-3.8c2.7,0.6,4.4,3.26,3.8,5.96l-3.07,13.91C739.62,636.66,737.56,638.25,735.26,638.25z"/>
	</g>
	<g>
		<path class="st7" d="M733.22,684.54c0,0-4.52,0.58-12.25-1.83c-5.07-1.58-10.33-4.6-10.33-4.6l13.62-47.82
			c1.22-4.29,5.69-6.78,9.99-5.56l5.15,1.47c5.33,1.52,8.42,7.07,6.91,12.4L733.22,684.54z"/>
	</g>
	<g>
		<path class="st4" d="M747.59,623.26l-9.87-0.53c-3.22-0.16-5.7-2.89-5.54-6.11l1.53-31.13l8.78,0.43
			c8.94,0.44,15.83,8.04,15.39,16.98l-1.43,12.32C756.22,619.9,752.26,623.49,747.59,623.26z"/>
	</g>
	<g>
		<path class="st4" d="M756.2,601.67l3.2,7.63c0.48,1.13-0.22,2.41-1.42,2.64l-2.11,0.39L756.2,601.67z"/>
	</g>
	<g>
		<path class="st9" d="M760.17,584.72c0.2-1.22,0.2-2.04,0.2-2.04c-5.14,1.45-18.1-3.32-26.85-0.3c-1.52,0.53-4.19,2.29-4.6,5.21
			c-5.12,0.46-6.38,8.11-6.38,13c0,16.62,10.73,19.72,10.73,19.72l3.6-13.3c0-5,4.04-11.73,7.29-11.73c2.4,0,6.53,0.07,9.11-0.67
			l0,0c0,0,8.64-0.08,8.64-10.4C761.91,584.21,761.44,584.41,760.17,584.72z"/>
	</g>
	<g>
		<path class="st4" d="M740.92,608.59c0,2.95-2.39,5.33-5.33,5.33c-2.95,0-5.33-2.39-5.33-5.33s2.39-5.33,5.33-5.33
			C738.53,603.25,740.92,605.64,740.92,608.59z"/>
	</g>
	<g>
		<g>
			<path class="st10" d="M725.98,763c-0.81,1.04-2.26,3.45-2.7,7.75c0,0,2.28,1.57,5.8,2.27c3.52,0.7,5.35,0.65,6.43,0.87
				c1.08,0.21,2.95,2.06,10.26,3.52s8.15,1.09,10.1-0.11c-0.62-4.2-5.83-4.14-9.55-6.96c-1.16-0.88-3.72-3.76-6.37-5.86
				c0,0-1.07-3-2.45-4.48c-0.16-0.17-0.39-0.23-0.61-0.15c-0.57,0.21-1.66,0.76-1.83,1.94c-0.15,0.99,0.05,1.75,0.22,2.18
				c0.1,0.25-0.03,0.54-0.28,0.63c-1.13,0.41-4.12,1.05-7.87-1.74C726.78,762.58,726.26,762.64,725.98,763z"/>
		</g>
		<g>
			<path class="st5" d="M723.28,770.75c0,0,2.28,1.57,5.8,2.27c3.52,0.7,5.35,0.65,6.43,0.87c1.08,0.21,2.95,2.06,10.26,3.52
				s8.15,1.09,10.1-0.11c0.05,0.12,0.06,0.28,0.05,0.45c-0.07,0.93-0.71,1.71-1.56,2.07c-1.42,0.61-4.06,0.85-7.93,0.08
				c-5.9-1.17-8.47-2.85-11.19-3.39c-2.72-0.54-3.45,0.34-7.23-0.42c-3.16-0.63-5.04-1.78-5.57-2.13c-0.1-0.07-0.16-0.17-0.16-0.29
				C722.25,771.94,723.28,770.75,723.28,770.75z"/>
		</g>
		<g>
			<path class="st5" d="M735.11,764.53c0.18-0.12,0.26-0.35,0.18-0.57c-0.17-0.44-0.37-1.19-0.22-2.18
				c0.18-1.18,1.26-1.73,1.83-1.94c0.21-0.08,0.45-0.01,0.61,0.15c1.37,1.49,2.45,4.48,2.45,4.48c2.65,2.1,5.21,4.97,6.37,5.86
				c0.88,0.67,1.85,1.18,2.82,1.62c-0.42,0.04-1.03,0-1.91-0.2c-3.02-0.69-5.48-5.26-7.56-6.77
				C737.59,763.47,735.12,764.53,735.11,764.53C735.12,764.53,735.11,764.53,735.11,764.53z"/>
		</g>
		<g>
			<path class="st11" d="M744.28,771.4L744.28,771.4c0.22,0.18,0.55,0.17,0.76-0.02l1.11-1.12c0.2-0.19,0.2-0.49-0.01-0.67
				l-0.01-0.01c-0.21-0.18-0.55-0.17-0.75,0.02l-1.11,1.12C744.06,770.92,744.07,771.22,744.28,771.4z"/>
		</g>
		<g>
			<path class="st11" d="M742.74,769.93L742.74,769.93c0.22,0.18,0.55,0.17,0.76-0.02l1.11-1.12c0.2-0.19,0.2-0.49-0.01-0.67
				l-0.01-0.01c-0.21-0.18-0.55-0.17-0.75,0.02l-1.11,1.12C742.52,769.45,742.53,769.75,742.74,769.93z"/>
		</g>
		<g>
			<path class="st11" d="M741.2,768.46L741.2,768.46c0.22,0.18,0.55,0.17,0.76-0.02l1.11-1.12c0.2-0.19,0.2-0.49-0.01-0.67
				l-0.01-0.01c-0.21-0.18-0.55-0.17-0.75,0.03l-1.11,1.12C740.98,767.99,740.98,768.29,741.2,768.46z"/>
		</g>
		<g>
			<path class="st11" d="M739.65,767L739.65,767c0.22,0.18,0.55,0.17,0.76-0.02l1.11-1.12c0.2-0.19,0.2-0.49-0.01-0.67l-0.01-0.01
				c-0.21-0.18-0.55-0.17-0.75,0.03l-1.11,1.12C739.44,766.52,739.44,766.82,739.65,767z"/>
		</g>
	</g>
	<g>
		<g>
			<path class="st10" d="M673.28,712.16c-0.67-1.13-2.39-3.36-6.23-5.33c0,0-2.3,1.55-4.23,4.57s-2.56,4.75-3.15,5.67
				c-0.59,0.93-2.99,2-7.01,8.28s-3.98,7.2-3.57,9.45c4.14,0.94,5.97-3.93,9.96-6.36c1.24-0.76,4.85-2.1,7.77-3.81
				c0,0,3.18,0.09,5.07-0.65c0.21-0.08,0.36-0.28,0.36-0.51c0.01-0.6-0.11-1.82-1.14-2.41c-0.87-0.5-1.64-0.59-2.11-0.59
				c-0.27,0-0.49-0.22-0.49-0.49c0.03-1.2,0.52-4.22,4.48-6.69C673.38,713.05,673.51,712.55,673.28,712.16z"/>
		</g>
		<g>
			<path class="st5" d="M667.04,706.83c0,0-2.3,1.55-4.23,4.57s-2.56,4.75-3.15,5.67c-0.59,0.93-2.99,2-7.01,8.28
				s-3.98,7.2-3.57,9.45c-0.13,0-0.28-0.04-0.44-0.12c-0.84-0.4-1.33-1.28-1.36-2.21c-0.05-1.55,0.68-4.09,2.81-7.41
				c3.24-5.07,5.73-6.86,7.23-9.19c1.49-2.34,0.94-3.33,3.02-6.58c1.74-2.72,3.49-4.05,4.01-4.41c0.1-0.07,0.22-0.08,0.33-0.04
				C666.31,705.44,667.04,706.83,667.04,706.83z"/>
		</g>
		<g>
			<path class="st5" d="M668.54,720.11c0.05,0.21,0.23,0.37,0.46,0.37c0.47,0,1.25,0.09,2.11,0.59c1.03,0.59,1.15,1.81,1.14,2.41
				c0,0.23-0.15,0.43-0.36,0.51c-1.88,0.74-5.07,0.65-5.07,0.65c-2.92,1.7-6.53,3.05-7.77,3.81c-0.95,0.58-1.77,1.3-2.54,2.04
				c0.12-0.4,0.37-0.95,0.89-1.71c1.74-2.56,6.89-3.19,9.06-4.58C668.62,722.8,668.53,720.11,668.54,720.11
				C668.53,720.11,668.53,720.11,668.54,720.11z"/>
		</g>
		<g>
			<path class="st11" d="M658.8,726.15L658.8,726.15c-0.25,0.14-0.36,0.45-0.26,0.71l0.64,1.44c0.1,0.26,0.38,0.36,0.63,0.23h0.01
				c0.24-0.13,0.35-0.45,0.25-0.71l-0.64-1.44C659.32,726.12,659.04,726.02,658.8,726.15z"/>
		</g>
		<g>
			<path class="st11" d="M660.73,725.25L660.73,725.25c-0.25,0.14-0.36,0.45-0.26,0.71l0.64,1.44c0.1,0.26,0.38,0.36,0.63,0.23h0.01
				c0.24-0.13,0.35-0.45,0.25-0.71l-0.64-1.44C661.25,725.22,660.97,725.12,660.73,725.25z"/>
		</g>
		<g>
			<path class="st11" d="M662.66,724.35L662.66,724.35c-0.25,0.14-0.36,0.45-0.26,0.71l0.64,1.44c0.1,0.26,0.38,0.36,0.63,0.23h0.01
				c0.24-0.13,0.35-0.45,0.25-0.71l-0.64-1.44C663.18,724.32,662.9,724.22,662.66,724.35z"/>
		</g>
		<g>
			<path class="st11" d="M664.58,723.44L664.58,723.44c-0.25,0.14-0.36,0.45-0.26,0.71l0.64,1.44c0.1,0.26,0.38,0.36,0.63,0.23h0.01
				c0.24-0.13,0.35-0.45,0.25-0.71l-0.64-1.44C665.1,723.41,664.82,723.31,664.58,723.44z"/>
		</g>
	</g>
	<path class="st4" d="M734.89,628.66c-1.07-2.54-4.01-3.74-6.55-2.66c-13.71,5.78-22.58,11.16-26.36,15.98
		c-8.83,11.27,7.45,28.65,9.33,30.59c0.69,0.72,1.55,1.17,2.46,1.38c0.8,0.37,1.66,0.56,2.53,0.56c1.41,0,2.83-0.49,3.97-1.5
		c2.49-2.19,2.72-5.98,0.53-8.47l-1.66-1.89c-1.25-1.42-3.03-2.1-4.78-2.02c-3.54-4.88-6.17-10.36-4.51-12.49
		c2.57-3.27,10.93-8.11,22.38-12.94C734.77,634.14,735.97,631.21,734.89,628.66z"/>
	<g>
		<path class="st8" d="M732.06,639.23l-12.94,4.35c0,0-1.93-1.77-3.57-5.69c-1.37-3.29-1.57-6.61-1.57-6.61l15.33-6.4
			c3-1.25,6.45,0.16,7.7,3.16l0.06,0.14C738.92,632.62,736.62,637.7,732.06,639.23z"/>
	</g>
</g>
<g>
	<g>
		<path class="st2" d="M859.46,731.9c-2.55,0-4.73-1.94-4.97-4.53c-0.26-2.75,1.76-5.19,4.5-5.45c13.18-1.26,26.53-4.89,28.66-7.74
			c-3.84-10.15-18.86-33.05-19.01-33.28c-1.52-2.31-0.88-5.41,1.43-6.92c2.31-1.52,5.41-0.87,6.92,1.43
			c0.66,1,16.09,24.55,20.15,35.61c1.03,2.8,0.71,5.74-0.89,8.28c-5.7,9.03-29.24,11.92-36.32,12.59
			C859.78,731.89,859.62,731.9,859.46,731.9z"/>
	</g>
	<g>
		<g>
			<path class="st10" d="M861.61,721.58c-1.2-0.55-3.88-1.41-8.16-0.85c0,0-1.01,2.58-0.89,6.16c0.12,3.58,0.59,5.36,0.63,6.46
				c0.04,1.1-1.33,3.34-1.07,10.8c0.26,7.45,0.8,8.19,2.42,9.81c3.94-1.57,2.69-6.63,4.59-10.89c0.59-1.33,2.8-4.49,4.24-7.54
				c0,0,2.67-1.73,3.8-3.41c0.13-0.19,0.14-0.43,0.01-0.63c-0.33-0.5-1.12-1.44-2.3-1.34c-1,0.08-1.69,0.45-2.07,0.71
				c-0.22,0.15-0.53,0.1-0.68-0.13c-0.66-1.01-1.97-3.77-0.11-8.05C862.2,722.26,862.02,721.77,861.61,721.58z"/>
		</g>
		<g>
			<path class="st5" d="M853.45,720.73c0,0-1.01,2.58-0.89,6.16c0.12,3.58,0.59,5.36,0.63,6.46c0.04,1.1-1.33,3.34-1.07,10.8
				c0.26,7.45,0.8,8.19,2.42,9.81c-0.11,0.08-0.26,0.13-0.43,0.15c-0.92,0.14-1.82-0.3-2.37-1.05c-0.92-1.24-1.76-3.75-1.89-7.7
				c-0.21-6.01,0.83-8.9,0.73-11.67c-0.1-2.77-1.12-3.28-1.25-7.13c-0.11-3.23,0.57-5.32,0.8-5.91c0.04-0.11,0.13-0.19,0.25-0.22
				C852.06,720,853.45,720.73,853.45,720.73z"/>
		</g>
		<g>
			<path class="st5" d="M862.22,730.82c0.16,0.14,0.4,0.17,0.59,0.04c0.38-0.27,1.08-0.63,2.07-0.71c1.18-0.1,1.97,0.84,2.3,1.34
				c0.13,0.19,0.12,0.44-0.01,0.63c-1.13,1.68-3.8,3.41-3.8,3.41c-1.44,3.06-3.64,6.21-4.24,7.54c-0.45,1.01-0.72,2.07-0.93,3.12
				c-0.13-0.4-0.23-1-0.24-1.91c-0.02-3.09,3.86-6.54,4.86-8.91S862.21,730.82,862.22,730.82
				C862.21,730.82,862.22,730.82,862.22,730.82z"/>
		</g>
		<g>
			<path class="st11" d="M857.63,741.32L857.63,741.32c-0.13,0.25-0.04,0.58,0.19,0.73l1.35,0.82c0.23,0.15,0.52,0.08,0.64-0.17
				v-0.01c0.12-0.25,0.04-0.57-0.2-0.72l-1.35-0.82C858.05,741,857.76,741.07,857.63,741.32z"/>
		</g>
		<g>
			<path class="st11" d="M858.71,739.48L858.71,739.48c-0.13,0.25-0.04,0.58,0.19,0.73l1.35,0.82c0.23,0.15,0.52,0.08,0.64-0.17
				v-0.01c0.12-0.25,0.04-0.57-0.2-0.72l-1.35-0.82C859.12,739.16,858.83,739.24,858.71,739.48z"/>
		</g>
		<g>
			<path class="st11" d="M859.78,737.64L859.78,737.64c-0.13,0.25-0.04,0.58,0.19,0.73l1.35,0.82c0.23,0.15,0.52,0.08,0.64-0.17
				v-0.01c0.12-0.25,0.04-0.57-0.2-0.72l-1.35-0.82C860.19,737.32,859.9,737.4,859.78,737.64z"/>
		</g>
		<g>
			<path class="st11" d="M860.85,735.81L860.85,735.81c-0.13,0.25-0.04,0.58,0.19,0.73l1.35,0.82c0.23,0.15,0.52,0.08,0.64-0.17
				v-0.01c0.12-0.25,0.04-0.57-0.2-0.72l-1.35-0.82C861.27,735.49,860.98,735.56,860.85,735.81z"/>
		</g>
	</g>
	<g>
		<path class="st3" d="M894.37,700.39c0,0-0.9,3.37-4.94,5.37c-5.73,2.84-10.21,1.46-10.21,1.46s-15.37-19.04-18.56-26.35
			c-1.78-4.08,0.86-9.79,0.86-9.79l16.64-4.62l5.93,11.05L894.37,700.39z"/>
	</g>
	<g>
		<path class="st4" d="M844.99,764.06c-0.96,0-1.93-0.27-2.78-0.85c-2.29-1.54-2.9-4.65-1.36-6.94
			c5.02-7.48,18.51-28.74,20.56-37.14c2.77-11.39,2.8-39.6,2.8-39.88c0-2.76,2.24-5,5-5l0,0c2.76,0,5,2.24,5,5
			c0,1.21-0.02,29.71-3.08,42.25c-2.84,11.64-20.02,37.44-21.97,40.35C848.18,763.29,846.6,764.06,844.99,764.06z"/>
	</g>
	<g>
		<path class="st5" d="M877.61,710.71c0,0-4.6,0.96-8.13,0.62c-5.91-0.58-10.4-2.64-10.4-2.64s-1.07-30.44,2.44-37.6
			c1.96-3.99,7.91-7.24,7.91-7.24l14.3,9.69L877.61,710.71z"/>
	</g>
	<path class="st2" d="M912.49,655.51c-0.06,0-0.12,0-0.18,0l-2.51,0.07c-1.86,0.05-3.5,0.95-4.57,2.32
		c-8.61,0.32-16.23-0.95-16.89-3.2c-1.21-4.14,1.09-14.22,6.02-26.29c1.04-2.56-0.18-5.48-2.74-6.52c-2.56-1.04-5.47,0.18-6.52,2.74
		c-4.25,10.41-8.8,24.56-6.36,32.88c2.52,8.61,13.77,10.52,23.25,10.52c3.17,0,6.13-0.21,8.51-0.46l2.15-0.06
		c3.31-0.1,5.92-2.86,5.82-6.17C918.39,658.09,915.73,655.51,912.49,655.51z"/>
	<g>
		<path class="st4" d="M886.14,631.22c-0.36,0-0.72-0.04-1.08-0.12c-2.7-0.6-4.4-3.26-3.8-5.96l3.07-13.91
			c0.6-2.7,3.26-4.4,5.96-3.8c2.7,0.6,4.4,3.26,3.8,5.96l-3.07,13.91C890.5,629.63,888.43,631.22,886.14,631.22z"/>
	</g>
	<g>
		<path class="st7" d="M884.09,677.51c0,0-4.52,0.58-12.25-1.83c-5.07-1.58-10.33-4.6-10.33-4.6l13.62-47.82
			c1.22-4.29,5.69-6.78,9.99-5.56l5.15,1.47c5.33,1.52,8.42,7.07,6.91,12.4L884.09,677.51z"/>
	</g>
	<g>
		<path class="st4" d="M898.46,616.24l-9.87-0.53c-3.22-0.16-5.7-2.89-5.54-6.11l1.53-31.13l8.78,0.43
			c8.94,0.44,15.83,8.04,15.39,16.98l-1.43,12.32C907.1,612.87,903.13,616.47,898.46,616.24z"/>
	</g>
	<g>
		<path class="st4" d="M907.08,594.64l3.2,7.63c0.48,1.13-0.22,2.41-1.42,2.64l-2.11,0.39L907.08,594.64z"/>
	</g>
	<g>
		<path class="st9" d="M911.04,577.69c0.2-1.22,0.2-2.04,0.2-2.04c-5.14,1.45-18.1-3.32-26.85-0.3c-1.52,0.53-4.19,2.29-4.6,5.21
			c-5.12,0.46-6.38,8.11-6.38,13c0,16.62,10.73,19.72,10.73,19.72l3.6-13.3c0-5,4.04-11.73,7.29-11.73c2.4,0,6.53,0.07,9.11-0.67
			l0,0c0,0,8.64-0.08,8.64-10.4C912.79,577.19,912.32,577.39,911.04,577.69z"/>
	</g>
	<g>
		<path class="st4" d="M891.8,601.56c0,2.95-2.39,5.33-5.33,5.33c-2.95,0-5.33-2.39-5.33-5.33s2.39-5.33,5.33-5.33
			S891.8,598.62,891.8,601.56z"/>
	</g>
	<g>
		<g>
			<path class="st10" d="M841.18,755.28c-1.1,0.72-3.26,2.53-5.06,6.46c0,0,1.65,2.23,4.75,4.03c3.1,1.8,4.85,2.35,5.8,2.9
				c0.95,0.55,2.12,2.9,8.57,6.65c6.45,3.74,7.36,3.67,9.59,3.16c0.77-4.18-4.18-5.8-6.78-9.68c-0.81-1.21-2.31-4.76-4.14-7.6
				c0,0-0.05-3.18-0.87-5.03c-0.09-0.21-0.3-0.35-0.52-0.34c-0.6,0.01-1.81,0.18-2.36,1.24c-0.46,0.89-0.52,1.67-0.5,2.14
				c0.01,0.27-0.2,0.5-0.47,0.51c-1.2,0.02-4.24-0.34-6.88-4.19C842.07,755.14,841.56,755.03,841.18,755.28z"/>
		</g>
		<g>
			<path class="st5" d="M836.12,761.73c0,0,1.65,2.23,4.75,4.03c3.1,1.8,4.85,2.35,5.8,2.9c0.95,0.55,2.12,2.9,8.57,6.65
				c6.45,3.74,7.36,3.67,9.59,3.16c0.01,0.13-0.03,0.28-0.1,0.44c-0.37,0.85-1.22,1.39-2.15,1.45c-1.54,0.11-4.11-0.51-7.53-2.49
				c-5.2-3.02-7.09-5.44-9.49-6.83c-2.4-1.39-3.37-0.8-6.7-2.73c-2.79-1.62-4.2-3.31-4.58-3.82c-0.07-0.09-0.09-0.22-0.06-0.33
				C834.76,762.53,836.12,761.73,836.12,761.73z"/>
		</g>
		<g>
			<path class="st5" d="M849.32,759.67c0.21-0.06,0.36-0.25,0.35-0.48c-0.02-0.47,0.04-1.25,0.5-2.14c0.55-1.06,1.75-1.22,2.36-1.24
				c0.23-0.01,0.43,0.13,0.52,0.34c0.82,1.85,0.87,5.03,0.87,5.03c1.83,2.84,3.32,6.39,4.14,7.6c0.62,0.92,1.37,1.72,2.15,2.45
				c-0.41-0.1-0.97-0.33-1.75-0.81c-2.63-1.62-3.48-6.75-4.96-8.85C852.01,759.47,849.33,759.68,849.32,759.67
				C849.33,759.68,849.32,759.67,849.32,759.67z"/>
		</g>
		<g>
			<path class="st11" d="M855.78,769.14L855.78,769.14c0.15,0.24,0.47,0.34,0.72,0.23l1.41-0.7c0.25-0.12,0.34-0.4,0.2-0.63
				l-0.01-0.01c-0.14-0.24-0.46-0.33-0.72-0.22l-1.41,0.7C855.73,768.62,855.64,768.9,855.78,769.14z"/>
		</g>
		<g>
			<path class="st11" d="M854.79,767.25L854.79,767.25c0.15,0.24,0.47,0.34,0.72,0.23l1.41-0.7c0.25-0.12,0.34-0.4,0.2-0.63
				l-0.01-0.01c-0.14-0.24-0.46-0.33-0.72-0.22l-1.41,0.7C854.74,766.73,854.65,767.02,854.79,767.25z"/>
		</g>
		<g>
			<path class="st11" d="M853.81,765.37L853.81,765.37c0.15,0.24,0.47,0.34,0.72,0.23l1.41-0.7c0.25-0.12,0.34-0.4,0.2-0.63
				l-0.01-0.01c-0.14-0.24-0.46-0.33-0.72-0.22l-1.41,0.7C853.76,764.85,853.67,765.13,853.81,765.37z"/>
		</g>
		<g>
			<path class="st11" d="M852.82,763.48L852.82,763.48c0.15,0.24,0.47,0.34,0.72,0.23l1.41-0.7c0.25-0.12,0.34-0.4,0.2-0.63
				l-0.01-0.01c-0.14-0.24-0.46-0.33-0.72-0.22l-1.41,0.7C852.77,762.96,852.68,763.24,852.82,763.48z"/>
		</g>
	</g>
	<path class="st4" d="M885.77,621.64c-1.07-2.54-4.01-3.74-6.55-2.66c-13.71,5.78-22.58,11.16-26.36,15.98
		c-8.83,11.27,7.45,28.65,9.33,30.59c0.69,0.72,1.55,1.17,2.46,1.38c0.8,0.37,1.66,0.56,2.53,0.56c1.41,0,2.83-0.49,3.97-1.5
		c2.49-2.19,2.72-5.98,0.53-8.47l-1.66-1.89c-1.25-1.42-3.03-2.1-4.78-2.02c-3.54-4.88-6.17-10.36-4.51-12.49
		c2.57-3.27,10.93-8.11,22.38-12.94C885.65,627.11,886.84,624.18,885.77,621.64z"/>
	<g>
		<path class="st8" d="M882.94,632.21L870,636.56c0,0-1.93-1.77-3.57-5.69c-1.37-3.29-1.57-6.61-1.57-6.61l15.33-6.4
			c3-1.25,6.45,0.16,7.7,3.16l0.06,0.14C889.8,625.59,887.5,630.67,882.94,632.21z"/>
	</g>
</g>
<g id="designed_by_freepik">
</g>
<g>
	<g>
		<path class="st2" d="M607.8,271.82c-11.6,0-29.66-10.51-35.45-14.08c-2.35-1.45-3.08-4.53-1.63-6.88s4.53-3.08,6.88-1.64
			c0.07,0.04,6.88,4.22,14.57,7.77c10.72,4.95,15.54,5.13,16.74,4.73c4.27-10.03,10.69-41,10.76-41.32c0.56-2.7,3.2-4.44,5.91-3.89
			c2.7,0.56,4.44,3.2,3.88,5.91c-0.28,1.33-6.79,32.75-11.47,43.49c-1.13,2.59-3.22,4.43-6.04,5.32
			C610.7,271.64,609.31,271.82,607.8,271.82z"/>
	</g>
	<g>
		<path class="st3" d="M627.07,251.03c0,0-4.97,0.85-8.42,0c-4.63-1.14-8.83-3.85-8.83-3.85s3.76-24.37,7.27-31.54
			c1.96-3.99,7.91-7.24,7.91-7.24l14.3,9.69L627.07,251.03z"/>
	</g>
	<g>
		<path class="st4" d="M637.88,306.76c-0.31,0-0.62-0.03-0.93-0.09c-2.71-0.51-4.5-3.12-3.99-5.84c2.27-12.07,5.08-33.88,2.99-41.03
			c-3.05-10.41-15.77-37.3-15.9-37.57c-1.18-2.5-0.12-5.48,2.38-6.66c2.5-1.18,5.48-0.12,6.66,2.38
			c0.54,1.13,13.19,27.88,16.46,39.04c3.45,11.79-2.11,42.25-2.76,45.69C642.34,305.08,640.24,306.76,637.88,306.76z"/>
	</g>
	<g>
		<path class="st5" d="M645.98,248.87c0,0-0.9,3.37-4.94,5.37c-5.73,2.84-10.21,1.46-10.21,1.46s-11.41-22.96-14.59-30.27
			c-1.78-4.08,0.86-9.79,0.86-9.79l16.64-4.62l5.93,11.05L645.98,248.87z"/>
	</g>
	<path class="st2" d="M677.2,194.04c-0.97-3.17-4.33-4.95-7.5-3.97l-2.4,0.74c-1.78,0.55-3.12,1.85-3.78,3.45
		c-8.21,2.6-15.9,3.4-17.13,1.41c-2.27-3.67-2.73-13.99-1.19-26.95c0.33-2.74-1.63-5.23-4.38-5.55c-2.75-0.33-5.23,1.63-5.55,4.38
		c-1.33,11.16-1.95,26.02,2.62,33.39c2.71,4.37,7.59,5.86,12.98,5.86c7.17,0,15.24-2.63,20.32-4.62l2.05-0.63
		C676.4,200.57,678.18,197.21,677.2,194.04z"/>
	<g>
		<path class="st4" d="M641.71,175.77c-0.36,0-0.72-0.04-1.08-0.12c-2.7-0.6-4.4-3.26-3.8-5.96l3.07-13.91
			c0.6-2.7,3.27-4.4,5.96-3.8c2.7,0.6,4.4,3.26,3.8,5.96l-3.07,13.91C646.08,174.18,644.01,175.77,641.71,175.77z"/>
	</g>
	<g>
		<path class="st7" d="M639.67,222.07c0,0-4.52,0.58-12.25-1.83c-5.07-1.58-10.33-4.6-10.33-4.6l13.62-47.82
			c1.22-4.29,5.69-6.78,9.99-5.56l5.15,1.47c5.33,1.52,8.42,7.07,6.9,12.4L639.67,222.07z"/>
	</g>
	<g>
		<path class="st4" d="M654.04,160.79l-9.87-0.53c-3.22-0.16-5.7-2.89-5.54-6.11l1.53-31.13l8.78,0.43
			c8.94,0.44,15.83,8.04,15.39,16.98l-1.43,12.32C662.68,157.42,658.71,161.02,654.04,160.79z"/>
	</g>
	<g>
		<path class="st4" d="M662.66,139.2l3.2,7.63c0.47,1.13-0.22,2.41-1.42,2.64l-2.11,0.39L662.66,139.2z"/>
	</g>
	<g>
		<path class="st9" d="M666.62,122.24c0.2-1.22,0.2-2.04,0.2-2.04c-5.14,1.45-18.1-3.32-26.85-0.3c-1.52,0.53-4.19,2.29-4.6,5.21
			c-5.12,0.46-6.38,8.11-6.38,13c0,16.62,10.73,19.72,10.73,19.72l3.6-13.3c0-5,4.04-11.73,7.29-11.73c2.4,0,6.53,0.07,9.11-0.67
			l0,0c0,0,8.64-0.08,8.64-10.4C668.36,121.74,667.9,121.94,666.62,122.24z"/>
	</g>
	<g>
		<path class="st4" d="M647.38,146.11c0,2.95-2.39,5.33-5.33,5.33c-2.94,0-5.33-2.39-5.33-5.33c0-2.95,2.39-5.33,5.33-5.33
			C644.99,140.78,647.38,143.17,647.38,146.11z"/>
	</g>
	<g>
		<g>
			<path class="st10" d="M632.43,300.52c-0.81,1.04-2.26,3.45-2.7,7.75c0,0,2.28,1.57,5.8,2.27c3.52,0.7,5.35,0.65,6.43,0.87
				c1.08,0.21,2.95,2.06,10.26,3.52c7.31,1.46,8.15,1.09,10.1-0.11c-0.62-4.2-5.83-4.14-9.55-6.96c-1.16-0.88-3.72-3.76-6.37-5.86
				c0,0-1.07-3-2.45-4.48c-0.16-0.17-0.39-0.23-0.61-0.15c-0.57,0.21-1.66,0.76-1.83,1.94c-0.15,0.99,0.05,1.75,0.22,2.18
				c0.1,0.25-0.03,0.54-0.28,0.63c-1.13,0.41-4.12,1.05-7.87-1.74C633.23,300.1,632.71,300.17,632.43,300.52z"/>
		</g>
		<g>
			<path class="st5" d="M629.73,308.27c0,0,2.28,1.57,5.8,2.27c3.52,0.7,5.35,0.65,6.43,0.87c1.08,0.21,2.95,2.06,10.26,3.52
				s8.15,1.09,10.1-0.11c0.05,0.12,0.06,0.28,0.05,0.45c-0.07,0.93-0.71,1.71-1.56,2.07c-1.42,0.61-4.06,0.85-7.93,0.08
				c-5.9-1.17-8.47-2.85-11.19-3.39c-2.72-0.54-3.45,0.34-7.23-0.42c-3.16-0.63-5.04-1.78-5.57-2.13c-0.1-0.07-0.16-0.17-0.16-0.29
				C628.71,309.46,629.73,308.27,629.73,308.27z"/>
		</g>
		<g>
			<path class="st5" d="M641.56,302.05c0.18-0.12,0.26-0.35,0.18-0.57c-0.17-0.44-0.37-1.19-0.22-2.18
				c0.18-1.18,1.26-1.73,1.83-1.94c0.21-0.08,0.45-0.01,0.61,0.15c1.37,1.49,2.45,4.48,2.45,4.48c2.65,2.1,5.21,4.97,6.37,5.86
				c0.88,0.67,1.85,1.18,2.82,1.62c-0.42,0.04-1.03,0-1.91-0.2c-3.02-0.69-5.48-5.26-7.56-6.77
				C644.04,300.99,641.57,302.05,641.56,302.05C641.57,302.05,641.56,302.05,641.56,302.05z"/>
		</g>
		<g>
			<path class="st11" d="M650.73,308.92L650.73,308.92c0.22,0.18,0.55,0.17,0.76-0.02l1.11-1.12c0.2-0.19,0.2-0.49-0.01-0.67
				l-0.01-0.01c-0.21-0.18-0.55-0.17-0.75,0.02l-1.11,1.12C650.52,308.44,650.52,308.74,650.73,308.92z"/>
		</g>
		<g>
			<path class="st11" d="M649.19,307.45L649.19,307.45c0.22,0.18,0.55,0.17,0.76-0.02l1.11-1.12c0.2-0.19,0.2-0.49-0.01-0.67
				l-0.01-0.01c-0.21-0.18-0.55-0.17-0.75,0.02l-1.11,1.12C648.97,306.98,648.98,307.28,649.19,307.45z"/>
		</g>
		<g>
			<path class="st11" d="M647.65,305.99L647.65,305.99c0.22,0.18,0.55,0.17,0.76-0.02l1.11-1.12c0.2-0.19,0.2-0.49-0.01-0.67
				l-0.01-0.01c-0.21-0.18-0.55-0.17-0.75,0.02l-1.11,1.12C647.43,305.51,647.44,305.81,647.65,305.99z"/>
		</g>
		<g>
			<path class="st11" d="M646.11,304.52L646.11,304.52c0.22,0.18,0.55,0.17,0.76-0.02l1.11-1.12c0.2-0.19,0.2-0.49-0.01-0.67
				l-0.01-0.01c-0.21-0.18-0.55-0.17-0.75,0.02l-1.11,1.12C645.89,304.05,645.9,304.34,646.11,304.52z"/>
		</g>
	</g>
	<g>
		<g>
			<path class="st10" d="M579.73,249.68c-0.67-1.13-2.39-3.36-6.23-5.33c0,0-2.3,1.55-4.23,4.57c-1.93,3.02-2.55,4.75-3.15,5.67
				c-0.59,0.93-2.99,2-7.01,8.28s-3.98,7.2-3.57,9.45c4.14,0.94,5.97-3.93,9.96-6.36c1.24-0.76,4.85-2.1,7.77-3.81
				c0,0,3.18,0.09,5.07-0.65c0.21-0.08,0.36-0.28,0.36-0.51c0.01-0.6-0.11-1.82-1.14-2.41c-0.87-0.5-1.64-0.59-2.11-0.59
				c-0.27,0-0.49-0.22-0.49-0.49c0.03-1.2,0.52-4.22,4.48-6.69C579.83,250.58,579.96,250.07,579.73,249.68z"/>
		</g>
		<g>
			<path class="st5" d="M573.5,244.35c0,0-2.3,1.55-4.23,4.57c-1.93,3.02-2.55,4.75-3.15,5.67c-0.59,0.93-2.99,2-7.01,8.28
				s-3.98,7.2-3.57,9.45c-0.13,0-0.28-0.04-0.44-0.12c-0.84-0.4-1.33-1.28-1.36-2.21c-0.05-1.55,0.68-4.09,2.81-7.41
				c3.24-5.07,5.73-6.86,7.23-9.19c1.49-2.34,0.94-3.33,3.02-6.58c1.74-2.72,3.49-4.05,4.01-4.41c0.1-0.07,0.22-0.08,0.33-0.04
				C572.76,242.96,573.5,244.35,573.5,244.35z"/>
		</g>
		<g>
			<path class="st5" d="M574.99,257.63c0.05,0.21,0.23,0.37,0.46,0.37c0.47,0,1.25,0.09,2.11,0.59c1.03,0.59,1.15,1.81,1.14,2.41
				c0,0.23-0.15,0.43-0.36,0.51c-1.88,0.74-5.07,0.65-5.07,0.65c-2.92,1.7-6.53,3.05-7.77,3.81c-0.95,0.58-1.77,1.3-2.54,2.04
				c0.12-0.4,0.37-0.95,0.89-1.71c1.74-2.56,6.89-3.19,9.06-4.58C575.07,260.33,574.98,257.64,574.99,257.63
				C574.98,257.64,574.99,257.63,574.99,257.63z"/>
		</g>
		<g>
			<path class="st11" d="M565.26,263.68L565.26,263.68c-0.25,0.14-0.36,0.45-0.26,0.71l0.64,1.44c0.1,0.26,0.38,0.36,0.63,0.23h0.01
				c0.24-0.13,0.35-0.45,0.25-0.71l-0.64-1.44C565.78,263.65,565.5,263.55,565.26,263.68z"/>
		</g>
		<g>
			<path class="st11" d="M567.18,262.77L567.18,262.77c-0.25,0.14-0.36,0.45-0.26,0.71l0.64,1.44c0.1,0.26,0.38,0.36,0.63,0.23h0.01
				c0.24-0.13,0.35-0.45,0.25-0.71l-0.64-1.44C567.7,262.74,567.42,262.64,567.18,262.77z"/>
		</g>
		<g>
			<path class="st11" d="M569.11,261.87L569.11,261.87c-0.25,0.14-0.36,0.45-0.26,0.71l0.64,1.44c0.1,0.26,0.38,0.36,0.63,0.23h0.01
				c0.24-0.13,0.35-0.45,0.25-0.71l-0.64-1.44C569.63,261.84,569.35,261.74,569.11,261.87z"/>
		</g>
		<g>
			<path class="st11" d="M571.04,260.97L571.04,260.97c-0.25,0.14-0.36,0.45-0.26,0.71l0.64,1.44c0.1,0.26,0.38,0.36,0.63,0.23h0.01
				c0.24-0.13,0.35-0.45,0.25-0.71l-0.64-1.44C571.56,260.94,571.28,260.84,571.04,260.97z"/>
		</g>
	</g>
	<path class="st4" d="M641.35,166.19c-1.07-2.54-4.01-3.74-6.55-2.66c-13.71,5.78-22.58,11.16-26.36,15.98
		c-8.83,11.27,7.45,28.65,9.33,30.59c0.69,0.72,1.55,1.17,2.46,1.38c0.8,0.37,1.66,0.56,2.53,0.56c1.41,0,2.83-0.49,3.97-1.5
		c2.49-2.19,2.72-5.98,0.53-8.47l-1.66-1.89c-1.25-1.42-3.03-2.1-4.78-2.02c-3.54-4.88-6.17-10.36-4.51-12.49
		c2.57-3.27,10.93-8.11,22.38-12.94C641.23,171.66,642.42,168.73,641.35,166.19z"/>
	<g>
		<path class="st8" d="M638.52,176.76l-12.94,4.35c0,0-1.93-1.77-3.57-5.69c-1.37-3.29-1.57-6.61-1.57-6.61l15.33-6.4
			c3-1.25,6.45,0.16,7.7,3.16l0.06,0.14C645.38,170.14,643.08,175.22,638.52,176.76z"/>
	</g>
</g>
<g>
	<g>
		<path class="st2" d="M767.91,269.42c-2.55,0-4.73-1.94-4.97-4.53c-0.26-2.75,1.76-5.19,4.5-5.45c13.18-1.26,26.53-4.89,28.66-7.74
			c-3.84-10.15-18.86-33.05-19.01-33.28c-1.52-2.31-0.88-5.41,1.43-6.92c2.31-1.52,5.41-0.87,6.92,1.43
			c0.66,1,16.09,24.55,20.15,35.61c1.03,2.8,0.71,5.74-0.89,8.28c-5.7,9.03-29.24,11.92-36.32,12.59
			C768.23,269.41,768.07,269.42,767.91,269.42z"/>
	</g>
	<g>
		<g>
			<path class="st10" d="M770.06,259.1c-1.2-0.55-3.88-1.41-8.16-0.85c0,0-1.01,2.58-0.89,6.16c0.12,3.58,0.59,5.36,0.63,6.46
				s-1.33,3.34-1.07,10.8c0.26,7.45,0.8,8.19,2.42,9.81c3.94-1.57,2.69-6.63,4.59-10.89c0.59-1.33,2.8-4.49,4.24-7.54
				c0,0,2.67-1.73,3.8-3.41c0.13-0.19,0.14-0.43,0.01-0.63c-0.33-0.5-1.12-1.44-2.3-1.34c-1,0.08-1.69,0.45-2.07,0.71
				c-0.22,0.15-0.53,0.1-0.68-0.13c-0.66-1.01-1.97-3.77-0.11-8.06C770.65,259.78,770.47,259.29,770.06,259.1z"/>
		</g>
		<g>
			<path class="st5" d="M761.9,258.25c0,0-1.01,2.58-0.89,6.16c0.12,3.58,0.59,5.36,0.63,6.46s-1.33,3.34-1.07,10.8
				c0.26,7.45,0.8,8.19,2.42,9.81c-0.11,0.08-0.26,0.13-0.43,0.15c-0.92,0.14-1.82-0.3-2.37-1.05c-0.92-1.24-1.76-3.75-1.89-7.7
				c-0.21-6.01,0.83-8.9,0.73-11.67c-0.1-2.77-1.12-3.28-1.25-7.13c-0.11-3.23,0.57-5.32,0.8-5.91c0.04-0.11,0.13-0.19,0.25-0.22
				C760.51,257.53,761.9,258.25,761.9,258.25z"/>
		</g>
		<g>
			<path class="st5" d="M770.67,268.34c0.16,0.14,0.4,0.17,0.59,0.04c0.38-0.27,1.08-0.63,2.07-0.71c1.18-0.1,1.97,0.84,2.3,1.34
				c0.13,0.19,0.12,0.44-0.01,0.63c-1.13,1.68-3.8,3.41-3.8,3.41c-1.44,3.06-3.64,6.21-4.24,7.54c-0.45,1.01-0.72,2.07-0.93,3.12
				c-0.13-0.4-0.23-1-0.24-1.91c-0.02-3.09,3.86-6.54,4.86-8.91S770.67,268.35,770.67,268.34
				C770.67,268.35,770.67,268.34,770.67,268.34z"/>
		</g>
		<g>
			<path class="st11" d="M766.09,278.84L766.09,278.84c-0.13,0.25-0.04,0.58,0.19,0.73l1.35,0.82c0.23,0.15,0.52,0.08,0.64-0.17
				v-0.01c0.12-0.25,0.04-0.57-0.2-0.72l-1.35-0.82C766.5,278.52,766.21,278.6,766.09,278.84z"/>
		</g>
		<g>
			<path class="st11" d="M767.16,277.01L767.16,277.01c-0.13,0.25-0.04,0.58,0.19,0.73l1.35,0.82c0.23,0.15,0.52,0.08,0.64-0.17
				v-0.01c0.12-0.25,0.04-0.57-0.2-0.72l-1.35-0.82C767.57,276.69,767.28,276.76,767.16,277.01z"/>
		</g>
		<g>
			<path class="st11" d="M768.23,275.17L768.23,275.17c-0.13,0.25-0.04,0.58,0.19,0.73l1.35,0.82c0.23,0.15,0.52,0.08,0.64-0.17
				v-0.01c0.12-0.25,0.04-0.57-0.2-0.72l-1.35-0.82C768.65,274.85,768.36,274.92,768.23,275.17z"/>
		</g>
		<g>
			<path class="st11" d="M769.31,273.33L769.31,273.33c-0.13,0.25-0.04,0.58,0.19,0.73l1.35,0.82c0.23,0.15,0.52,0.08,0.64-0.17
				v-0.01c0.12-0.25,0.04-0.57-0.2-0.72l-1.35-0.82C769.72,273.01,769.43,273.08,769.31,273.33z"/>
		</g>
	</g>
	<g>
		<path class="st3" d="M802.82,237.92c0,0-0.9,3.37-4.94,5.37c-5.73,2.84-10.21,1.46-10.21,1.46s-15.37-19.04-18.56-26.35
			c-1.78-4.08,0.86-9.79,0.86-9.79l16.64-4.62l5.93,11.05L802.82,237.92z"/>
	</g>
	<g>
		<path class="st4" d="M753.45,301.59c-0.96,0-1.93-0.27-2.78-0.85c-2.29-1.54-2.9-4.65-1.36-6.94
			c5.02-7.48,18.51-28.74,20.56-37.14c2.77-11.39,2.8-39.6,2.8-39.88c0-2.76,2.24-5,5-5l0,0c2.76,0,5,2.24,5,5
			c0,1.21-0.02,29.71-3.08,42.25c-2.84,11.64-20.02,37.44-21.97,40.35C756.64,300.81,755.06,301.59,753.45,301.59z"/>
	</g>
	<g>
		<path class="st5" d="M786.06,248.23c0,0-4.6,0.96-8.13,0.62c-5.91-0.58-10.4-2.64-10.4-2.64s-1.07-30.44,2.44-37.6
			c1.96-3.99,7.91-7.24,7.91-7.24l14.3,9.69L786.06,248.23z"/>
	</g>
	<path class="st2" d="M820.95,193.04c-0.06,0-0.12,0-0.18,0l-2.51,0.07c-1.86,0.05-3.5,0.95-4.57,2.32
		c-8.61,0.32-16.23-0.95-16.89-3.2c-1.21-4.14,1.09-14.22,6.02-26.29c1.04-2.56-0.18-5.48-2.74-6.52c-2.56-1.04-5.47,0.18-6.52,2.74
		c-4.25,10.41-8.8,24.56-6.36,32.88c2.52,8.61,13.77,10.52,23.25,10.52c3.17,0,6.13-0.21,8.51-0.46l2.15-0.06
		c3.31-0.1,5.92-2.86,5.82-6.17C826.85,195.61,824.18,193.04,820.95,193.04z"/>
	<g>
		<path class="st4" d="M794.59,168.75c-0.36,0-0.72-0.04-1.08-0.12c-2.7-0.6-4.4-3.26-3.8-5.96l3.07-13.91
			c0.6-2.7,3.26-4.4,5.96-3.8c2.7,0.6,4.4,3.26,3.8,5.96l-3.07,13.91C798.95,167.16,796.89,168.75,794.59,168.75z"/>
	</g>
	<g>
		<path class="st7" d="M792.55,215.04c0,0-4.52,0.58-12.25-1.83c-5.07-1.58-10.33-4.6-10.33-4.6l13.62-47.82
			c1.22-4.29,5.69-6.78,9.99-5.56l5.15,1.47c5.33,1.52,8.42,7.07,6.9,12.4L792.55,215.04z"/>
	</g>
	<g>
		<path class="st4" d="M806.92,153.76l-9.87-0.53c-3.22-0.16-5.7-2.89-5.54-6.11l1.53-31.13l8.78,0.43
			c8.94,0.44,15.83,8.04,15.39,16.98l-1.43,12.32C815.55,150.39,811.58,153.99,806.92,153.76z"/>
	</g>
	<g>
		<path class="st4" d="M815.53,132.17l3.2,7.63c0.48,1.13-0.22,2.41-1.42,2.64l-2.11,0.39L815.53,132.17z"/>
	</g>
	<g>
		<path class="st9" d="M819.5,115.22c0.2-1.22,0.2-2.04,0.2-2.04c-5.14,1.45-18.1-3.32-26.85-0.3c-1.52,0.53-4.19,2.29-4.6,5.21
			c-5.12,0.46-6.38,8.11-6.38,13c0,16.62,10.73,19.72,10.73,19.72l3.6-13.3c0-5,4.04-11.73,7.29-11.73c2.4,0,6.53,0.07,9.11-0.67
			l0,0c0,0,8.64-0.08,8.64-10.4C821.24,114.71,820.77,114.91,819.5,115.22z"/>
	</g>
	<g>
		<path class="st4" d="M800.25,139.09c0,2.95-2.39,5.33-5.33,5.33c-2.95,0-5.33-2.39-5.33-5.33s2.39-5.33,5.33-5.33
			C797.86,133.75,800.25,136.14,800.25,139.09z"/>
	</g>
	<g>
		<g>
			<path class="st10" d="M749.63,292.8c-1.1,0.72-3.26,2.53-5.06,6.46c0,0,1.65,2.23,4.75,4.03s4.85,2.35,5.8,2.9
				s2.12,2.9,8.57,6.65c6.45,3.74,7.36,3.67,9.59,3.16c0.77-4.18-4.18-5.8-6.78-9.68c-0.81-1.21-2.31-4.76-4.14-7.6
				c0,0-0.05-3.18-0.87-5.03c-0.09-0.21-0.3-0.35-0.52-0.34c-0.6,0.01-1.81,0.18-2.36,1.24c-0.46,0.89-0.52,1.67-0.5,2.14
				c0.01,0.27-0.2,0.5-0.47,0.51c-1.2,0.02-4.24-0.34-6.88-4.19C750.52,292.66,750.01,292.55,749.63,292.8z"/>
		</g>
		<g>
			<path class="st5" d="M744.57,299.26c0,0,1.65,2.23,4.75,4.03s4.85,2.35,5.8,2.9s2.12,2.9,8.57,6.65
				c6.45,3.74,7.36,3.67,9.59,3.16c0.01,0.13-0.03,0.28-0.1,0.44c-0.37,0.85-1.22,1.39-2.15,1.45c-1.54,0.11-4.11-0.51-7.53-2.49
				c-5.2-3.02-7.09-5.44-9.49-6.83c-2.4-1.39-3.37-0.8-6.7-2.73c-2.79-1.62-4.2-3.31-4.58-3.82c-0.07-0.09-0.09-0.22-0.06-0.33
				C743.21,300.05,744.57,299.26,744.57,299.26z"/>
		</g>
		<g>
			<path class="st5" d="M757.78,297.2c0.21-0.06,0.36-0.25,0.35-0.48c-0.02-0.47,0.04-1.25,0.5-2.14c0.55-1.06,1.75-1.22,2.36-1.24
				c0.23-0.01,0.43,0.13,0.52,0.34c0.82,1.85,0.87,5.03,0.87,5.03c1.83,2.84,3.32,6.39,4.14,7.6c0.62,0.92,1.37,1.72,2.15,2.45
				c-0.41-0.1-0.97-0.33-1.75-0.81c-2.63-1.62-3.48-6.75-4.96-8.85C760.46,297,757.78,297.2,757.78,297.2L757.78,297.2z"/>
		</g>
		<g>
			<path class="st11" d="M764.23,306.66L764.23,306.66c0.15,0.24,0.47,0.34,0.72,0.23l1.41-0.7c0.25-0.12,0.34-0.4,0.2-0.63
				l-0.01-0.01c-0.14-0.24-0.46-0.33-0.72-0.22l-1.41,0.7C764.18,306.14,764.09,306.43,764.23,306.66z"/>
		</g>
		<g>
			<path class="st11" d="M763.25,304.78L763.25,304.78c0.15,0.24,0.47,0.34,0.72,0.23l1.41-0.7c0.25-0.12,0.34-0.4,0.2-0.63
				l-0.01-0.01c-0.14-0.24-0.46-0.33-0.72-0.22l-1.41,0.7C763.19,304.26,763.1,304.54,763.25,304.78z"/>
		</g>
		<g>
			<path class="st11" d="M762.26,302.89L762.26,302.89c0.15,0.24,0.47,0.34,0.72,0.23l1.41-0.7c0.25-0.12,0.34-0.4,0.2-0.63
				l-0.01-0.01c-0.14-0.24-0.46-0.33-0.72-0.22l-1.41,0.7C762.21,302.37,762.12,302.65,762.26,302.89z"/>
		</g>
		<g>
			<path class="st11" d="M761.28,301L761.28,301c0.15,0.24,0.47,0.34,0.72,0.23l1.41-0.7c0.25-0.12,0.34-0.4,0.2-0.63l-0.01-0.01
				c-0.14-0.24-0.46-0.33-0.72-0.22l-1.41,0.7C761.22,300.48,761.13,300.77,761.28,301z"/>
		</g>
	</g>
	<path class="st4" d="M794.22,159.16c-1.07-2.54-4.01-3.74-6.55-2.66c-13.71,5.78-22.58,11.16-26.36,15.98
		c-8.84,11.27,7.45,28.65,9.33,30.59c0.69,0.72,1.55,1.17,2.46,1.38c0.8,0.37,1.66,0.56,2.53,0.56c1.41,0,2.83-0.49,3.97-1.5
		c2.49-2.19,2.72-5.98,0.53-8.47l-1.66-1.89c-1.25-1.42-3.03-2.1-4.78-2.02c-3.54-4.88-6.17-10.36-4.51-12.49
		c2.57-3.27,10.93-8.11,22.38-12.94C794.1,164.64,795.3,161.71,794.22,159.16z"/>
	<g>
		<path class="st8" d="M791.39,169.73l-12.94,4.35c0,0-1.93-1.77-3.57-5.69c-1.37-3.29-1.57-6.61-1.57-6.61l15.33-6.4
			c3-1.25,6.45,0.16,7.7,3.16l0.06,0.14C798.25,163.12,795.95,168.2,791.39,169.73z"/>
	</g>
</g>
</svg>
