<?xml version="1.0" encoding="utf-8"?>
<!-- Generator: Adobe Illustrator 27.0.0, SVG Export Plug-In . SVG Version: 6.00 Build 0)  -->
<svg version="1.1" id="Layer_1" xmlns="http://www.w3.org/2000/svg" xmlns:xlink="http://www.w3.org/1999/xlink" x="0px" y="0px"
	 viewBox="0 0 972 338" style="enable-background:new 0 0 972 338;" xml:space="preserve">
<style type="text/css">
	.st0{display:none;}
	.st1{display:inline;fill:#FFFFFF;}
	.st2{fill:#E2AD94;}
	.st3{fill:#4C80BD;}
	.st4{fill:#EABA98;}
	.st5{fill:#538ECB;}
	.st6{fill:#9E272A;}
	.st7{fill:#AD252B;}
	.st8{fill:#B52840;}
	.st9{fill:#472514;}
	.st10{fill:#3E465E;}
	.st11{fill:#E6E6E5;}
	.st12{fill:#231F20;}
	.st13{font-family:'MyriadPro-Regular';}
	.st14{font-size:4.2449px;}
</style>
<g id="background" class="st0">
	<rect x="-59.7" y="-32.3" class="st1" width="500" height="500"/>
</g>
<g>
	<g>
		<path class="st2" d="M528.8,741c-3,0-6.3-0.2-9.9-0.7c-10.3-1.2-19.9-3.7-20.3-3.8c-2.7-0.7-4.3-3.4-3.6-6.1s3.4-4.3,6.1-3.6
			c0.1,0,9.1,2.4,18.6,3.5c13.7,1.6,17.8-0.5,18.2-1.2c4.3-9.8,10.8-41.2,10.8-41.5c0.6-2.7,3.2-4.5,5.9-3.9
			c2.7,0.6,4.4,3.2,3.9,5.9c-0.3,1.3-6.8,32.8-11.5,43.5C544.8,738.5,538.9,741,528.8,741z"/>
	</g>
	<g>
		<path class="st3" d="M556.2,718.3c0,0-5,0.8-8.4,0c-4.6-1.1-8.8-3.8-8.8-3.8s3.8-24.4,7.3-31.5c2-4,7.9-7.2,7.9-7.2l14.3,9.7
			L556.2,718.3z"/>
	</g>
	<g>
		<path class="st4" d="M596.7,772.9c-2.2,0-4.2-1.4-4.8-3.6c-2.9-9.8-11.3-36.6-16.1-43.9c-6.1-9.2-25.8-34.7-26-34.9
			c-1.7-2.2-1.3-5.3,0.9-7c2.2-1.7,5.3-1.3,7,0.9c0.8,1.1,20.2,26,26.5,35.6c6.5,9.8,16.3,42.9,17.4,46.6c0.8,2.7-0.7,5.4-3.4,6.2
			C597.6,772.8,597.1,772.9,596.7,772.9z"/>
	</g>
	<g>
		<path class="st5" d="M580.7,710c0,0-0.3,3.8-4.2,6.7c-5.1,3.8-9.4,3.1-9.4,3.1s-18.6-19.8-21.8-27.1c-1.8-4.1,0.9-9.8,0.9-9.8
			l16.6-4.6l5.9,11L580.7,710z"/>
	</g>
	<path class="st4" d="M571.2,634.4c-0.4-2.7-2.9-4.7-5.6-4.3c-14.8,1.9-24.7,4.8-29.7,8.4c-9.1,6.7-19,27.4-20,29.7
		c-0.5,1-0.6,2.1-0.3,3.2c0.3,2,1.5,3.7,3.4,4.6c0.8,0.4,1.7,0.6,2.5,0.6c2.3,0,4.4-1.3,5.5-3.5l1.1-2.3c0.7-1.5,0.7-3.2,0.2-4.7
		c4.1-7.6,9.7-16.6,13.8-19.6c3.3-2.5,12.7-4.9,25-6.5C569.7,639.7,571.6,637.2,571.2,634.4z"/>
	<path class="st2" d="M613.5,663.5c-1.2-3.1-4.7-4.6-7.8-3.3l-2.3,0.9c-1.7,0.7-3,2.1-3.5,3.8c-8,3.3-15.5,4.7-17,2.8
		c-3.5-4.7-4-20.8-3.2-30.7c0.2-2.8-1.8-5.2-4.6-5.4c-2.8-0.2-5.2,1.8-5.4,4.6c-0.4,4.6-1.8,28.1,5.1,37.4c2.6,3.6,6.7,4.9,11.2,4.9
		c7.7,0,16.7-3.7,22-6.4l2-0.8C613.2,670.1,614.7,666.6,613.5,663.5z"/>
	<g>
		<path class="st4" d="M570.8,643.1c-0.4,0-0.7,0-1.1-0.1c-2.7-0.6-4.4-3.3-3.8-6l3.1-13.9c0.6-2.7,3.3-4.4,6-3.8
			c2.7,0.6,4.4,3.3,3.8,6l-3.1,13.9C575.2,641.5,573.1,643.1,570.8,643.1z"/>
	</g>
	<g>
		<path class="st6" d="M582.2,640.5l-0.5,21.9c0,0-2.8,1.8-7.1,1.9c-3.6,0.1-6.7-0.9-6.7-0.9l-0.6-22.5L582.2,640.5z"/>
	</g>
	<g>
		<path class="st7" d="M568.8,689.4c0,0-4.5,0.6-12.2-1.8c-5.1-1.6-10.3-4.6-10.3-4.6l13.6-47.8c1.2-4.3,5.7-6.8,10-5.6l5.2,1.5
			c5.3,1.5,8.4,7.1,6.9,12.4L568.8,689.4z"/>
	</g>
	<g>
		<path class="st8" d="M565.7,643.9l-13.6,0.8c0,0-1.4-2.2-1.9-6.4c-0.5-3.5,0.2-6.8,0.2-6.8l16.5-2.1c3.2-0.4,6.2,1.9,6.6,5.1
			l0,0.2C574.1,639.3,570.5,643.6,565.7,643.9z"/>
	</g>
	<g>
		<path class="st4" d="M583.2,628.1l-9.9-0.5c-3.2-0.2-5.7-2.9-5.5-6.1l1.5-31.1l8.8,0.4c8.9,0.4,15.8,8,15.4,17L592,620
			C591.8,624.7,587.8,628.3,583.2,628.1z"/>
	</g>
	<g>
		<path class="st4" d="M591.8,606.5l3.2,7.6c0.5,1.1-0.2,2.4-1.4,2.6l-2.1,0.4L591.8,606.5z"/>
	</g>
	<g>
		<path class="st9" d="M595.7,589.5c0.2-1.2,0.2-2,0.2-2c-5.1,1.5-18.1-3.3-26.8-0.3c-1.5,0.5-4.2,2.3-4.6,5.2
			c-5.1,0.5-6.4,8.1-6.4,13c0,16.6,10.7,19.7,10.7,19.7l3.6-13.3c0-5,4-11.7,7.3-11.7c2.4,0,6.5,0.1,9.1-0.7l0,0
			c0,0,8.6-0.1,8.6-10.4C597.5,589,597,589.2,595.7,589.5z"/>
	</g>
	<g>
		<path class="st4" d="M576.5,613.4c0,3-2.4,5.3-5.3,5.3s-5.3-2.4-5.3-5.3c0-3,2.4-5.3,5.3-5.3S576.5,610.5,576.5,613.4z"/>
	</g>
	<g>
		<g>
			<path class="st10" d="M591.1,768.7c-0.3,1.3-0.8,4.1,0.5,8.2c0,0,2.7,0.6,6.2-0.1c3.5-0.7,5.2-1.5,6.3-1.7
				c1.1-0.2,3.5,0.8,10.8-0.7s7.9-2.2,9.3-4c-2.2-3.6-7-1.6-11.5-2.7c-1.4-0.4-4.9-2-8.1-2.9c0,0-2.2-2.3-4-3.2
				c-0.2-0.1-0.5-0.1-0.6,0.1c-0.4,0.4-1.2,1.3-0.9,2.5c0.2,1,0.7,1.6,1,1.9c0.2,0.2,0.2,0.5,0,0.7c-0.9,0.8-3.4,2.6-7.9,1.4
				C591.7,768,591.2,768.3,591.1,768.7z"/>
		</g>
		<g>
			<path class="st5" d="M591.6,776.9c0,0,2.7,0.6,6.2-0.1c3.5-0.7,5.2-1.5,6.3-1.7c1.1-0.2,3.5,0.8,10.8-0.7s7.9-2.2,9.3-4
				c0.1,0.1,0.2,0.2,0.2,0.4c0.3,0.9,0,1.8-0.6,2.5c-1.1,1.1-3.4,2.3-7.3,3.1c-5.9,1.2-8.9,0.7-11.6,1.2c-2.7,0.5-3,1.6-6.8,2.4
				c-3.2,0.6-5.3,0.3-6,0.2c-0.1,0-0.2-0.1-0.3-0.2C591.1,778.4,591.6,776.9,591.6,776.9z"/>
		</g>
		<g>
			<path class="st5" d="M600.1,766.6c0.1-0.2,0.1-0.4-0.1-0.6c-0.3-0.3-0.8-1-1-1.9c-0.3-1.2,0.5-2.1,0.9-2.5
				c0.2-0.2,0.4-0.2,0.6-0.1c1.8,0.8,4,3.2,4,3.2c3.2,0.9,6.7,2.6,8.1,2.9c1.1,0.3,2.2,0.4,3.2,0.4c-0.4,0.2-1,0.4-1.8,0.5
				c-3,0.5-7.1-2.7-9.6-3.3S600.1,766.6,600.1,766.6C600.1,766.6,600.1,766.6,600.1,766.6z"/>
		</g>
		<g>
			<path class="st11" d="M611.2,769.4L611.2,769.4c0.3,0.1,0.6-0.1,0.7-0.3l0.6-1.5c0.1-0.2,0-0.5-0.3-0.6h0
				c-0.3-0.1-0.6,0.1-0.7,0.3l-0.6,1.5C610.8,769,610.9,769.3,611.2,769.4z"/>
		</g>
		<g>
			<path class="st11" d="M609.2,768.6L609.2,768.6c0.3,0.1,0.6-0.1,0.7-0.3l0.6-1.5c0.1-0.2,0-0.5-0.3-0.6h0
				c-0.3-0.1-0.6,0.1-0.7,0.3l-0.6,1.5C608.8,768.3,609,768.5,609.2,768.6z"/>
		</g>
		<g>
			<path class="st11" d="M607.2,767.9L607.2,767.9c0.3,0.1,0.6-0.1,0.7-0.3l0.6-1.5c0.1-0.2,0-0.5-0.3-0.6h0
				c-0.3-0.1-0.6,0.1-0.7,0.3l-0.6,1.5C606.8,767.5,607,767.8,607.2,767.9z"/>
		</g>
		<g>
			<path class="st11" d="M605.2,767.1L605.2,767.1c0.3,0.1,0.6-0.1,0.7-0.3l0.6-1.5c0.1-0.2,0-0.5-0.3-0.6h0
				c-0.3-0.1-0.6,0.1-0.7,0.3l-0.6,1.5C604.8,766.8,605,767,605.2,767.1z"/>
		</g>
	</g>
	<g>
		<g>
			<path class="st10" d="M502.5,726.6c-0.9-1-3.1-2.7-7.3-3.8c0,0-1.9,2-3.1,5.4c-1.2,3.4-1.4,5.2-1.8,6.2c-0.4,1-2.5,2.6-5,9.7
				s-2.3,7.9-1.4,10c4.2,0,4.9-5.2,8.3-8.4c1-1,4.3-3.1,6.7-5.5c0,0,3.1-0.6,4.8-1.8c0.2-0.1,0.3-0.3,0.2-0.6
				c-0.1-0.6-0.5-1.8-1.6-2.1c-1-0.3-1.7-0.2-2.2-0.1c-0.3,0.1-0.5-0.1-0.6-0.4c-0.2-1.2-0.4-4.2,2.9-7.5
				C502.8,727.5,502.8,726.9,502.5,726.6z"/>
		</g>
		<g>
			<path class="st5" d="M495.2,722.8c0,0-1.9,2-3.1,5.4c-1.2,3.4-1.4,5.2-1.8,6.2c-0.4,1-2.5,2.6-5,9.7s-2.3,7.9-1.4,10
				c-0.1,0-0.3,0-0.5,0c-0.9-0.2-1.6-1-1.8-1.8c-0.4-1.5-0.2-4.1,1.1-7.9c2-5.7,4-8,5-10.6c0.9-2.6,0.2-3.5,1.5-7.1
				c1.1-3,2.5-4.7,2.9-5.2c0.1-0.1,0.2-0.1,0.3-0.1C494.2,721.6,495.2,722.8,495.2,722.8z"/>
		</g>
		<g>
			<path class="st5" d="M499.7,735.4c0.1,0.2,0.3,0.3,0.5,0.3c0.5-0.1,1.2-0.2,2.2,0.1c1.1,0.3,1.5,1.5,1.6,2.1c0,0.2,0,0.5-0.2,0.6
				c-1.7,1.1-4.8,1.8-4.8,1.8c-2.5,2.3-5.7,4.4-6.7,5.5c-0.8,0.8-1.4,1.7-2,2.6c0-0.4,0.1-1,0.5-1.9c1.1-2.9,6-4.7,7.8-6.5
				C500.4,738,499.7,735.4,499.7,735.4C499.7,735.4,499.7,735.4,499.7,735.4z"/>
		</g>
		<g>
			<path class="st11" d="M491.6,743.5L491.6,743.5c-0.2,0.2-0.2,0.5-0.1,0.8l1,1.3c0.2,0.2,0.5,0.3,0.7,0.1l0,0
				c0.2-0.2,0.2-0.5,0.1-0.7l-1-1.3C492.1,743.3,491.8,743.3,491.6,743.5z"/>
		</g>
		<g>
			<path class="st11" d="M493.2,742.2L493.2,742.2c-0.2,0.2-0.2,0.5-0.1,0.8l1,1.3c0.2,0.2,0.5,0.3,0.7,0.1l0,0
				c0.2-0.2,0.2-0.5,0.1-0.7l-1-1.3C493.8,742,493.5,742,493.2,742.2z"/>
		</g>
		<g>
			<path class="st11" d="M494.9,740.9L494.9,740.9c-0.2,0.2-0.2,0.5-0.1,0.8l1,1.3c0.2,0.2,0.5,0.3,0.7,0.1l0,0
				c0.2-0.2,0.2-0.5,0.1-0.7l-1-1.3C495.4,740.7,495.1,740.7,494.9,740.9z"/>
		</g>
		<g>
			<path class="st11" d="M496.6,739.6L496.6,739.6c-0.2,0.2-0.2,0.5-0.1,0.8l1,1.3c0.2,0.2,0.5,0.3,0.7,0.1l0,0
				c0.2-0.2,0.2-0.5,0.1-0.7l-1-1.3C497.1,739.4,496.8,739.4,496.6,739.6z"/>
		</g>
	</g>
</g>
<g>
	<g>
		<path class="st2" d="M701.3,734.3c-11.6,0-29.7-10.5-35.5-14.1c-2.3-1.5-3.1-4.5-1.6-6.9s4.5-3.1,6.9-1.6c0.1,0,6.9,4.2,14.6,7.8
			c10.7,5,15.5,5.1,16.7,4.7c4.3-10,10.7-41,10.8-41.3c0.6-2.7,3.2-4.4,5.9-3.9c2.7,0.6,4.4,3.2,3.9,5.9
			c-0.3,1.3-6.8,32.8-11.5,43.5c-1.1,2.6-3.2,4.4-6,5.3C704.2,734.1,702.8,734.3,701.3,734.3z"/>
	</g>
	<g>
		<path class="st3" d="M720.6,713.5c0,0-5,0.8-8.4,0c-4.6-1.1-8.8-3.8-8.8-3.8s3.8-24.4,7.3-31.5c2-4,7.9-7.2,7.9-7.2l14.3,9.7
			L720.6,713.5z"/>
	</g>
	<g>
		<path class="st4" d="M731.4,769.2c-0.3,0-0.6,0-0.9-0.1c-2.7-0.5-4.5-3.1-4-5.8c2.3-12.1,5.1-33.9,3-41
			c-3-10.4-15.8-37.3-15.9-37.6c-1.2-2.5-0.1-5.5,2.4-6.7s5.5-0.1,6.7,2.4c0.5,1.1,13.2,27.9,16.5,39c3.5,11.8-2.1,42.2-2.8,45.7
			C735.9,767.6,733.8,769.2,731.4,769.2z"/>
	</g>
	<g>
		<path class="st5" d="M739.5,711.3c0,0-0.9,3.4-4.9,5.4c-5.7,2.8-10.2,1.5-10.2,1.5s-11.4-23-14.6-30.3c-1.8-4.1,0.9-9.8,0.9-9.8
			l16.6-4.6l5.9,11L739.5,711.3z"/>
	</g>
	<path class="st2" d="M770.8,656.5c-1-3.2-4.3-5-7.5-4l-2.4,0.7c-1.8,0.5-3.1,1.8-3.8,3.5c-8.2,2.6-15.9,3.4-17.1,1.4
		c-2.3-3.7-2.7-14-1.2-27c0.3-2.7-1.6-5.2-4.4-5.5c-2.8-0.3-5.2,1.6-5.5,4.4c-1.3,11.2-2,26,2.6,33.4c2.7,4.4,7.6,5.9,13,5.9
		c7.2,0,15.2-2.6,20.3-4.6l2-0.6C769.9,663,771.7,659.7,770.8,656.5z"/>
	<g>
		<path class="st4" d="M735.3,638.2c-0.4,0-0.7,0-1.1-0.1c-2.7-0.6-4.4-3.3-3.8-6l3.1-13.9c0.6-2.7,3.3-4.4,6-3.8
			c2.7,0.6,4.4,3.3,3.8,6l-3.1,13.9C739.6,636.7,737.6,638.2,735.3,638.2z"/>
	</g>
	<g>
		<path class="st7" d="M733.2,684.5c0,0-4.5,0.6-12.2-1.8c-5.1-1.6-10.3-4.6-10.3-4.6l13.6-47.8c1.2-4.3,5.7-6.8,10-5.6l5.2,1.5
			c5.3,1.5,8.4,7.1,6.9,12.4L733.2,684.5z"/>
	</g>
	<g>
		<path class="st4" d="M747.6,623.3l-9.9-0.5c-3.2-0.2-5.7-2.9-5.5-6.1l1.5-31.1l8.8,0.4c8.9,0.4,15.8,8,15.4,17l-1.4,12.3
			C756.2,619.9,752.3,623.5,747.6,623.3z"/>
	</g>
	<g>
		<path class="st4" d="M756.2,601.7l3.2,7.6c0.5,1.1-0.2,2.4-1.4,2.6l-2.1,0.4L756.2,601.7z"/>
	</g>
	<g>
		<path class="st9" d="M760.2,584.7c0.2-1.2,0.2-2,0.2-2c-5.1,1.5-18.1-3.3-26.8-0.3c-1.5,0.5-4.2,2.3-4.6,5.2
			c-5.1,0.5-6.4,8.1-6.4,13c0,16.6,10.7,19.7,10.7,19.7l3.6-13.3c0-5,4-11.7,7.3-11.7c2.4,0,6.5,0.1,9.1-0.7l0,0
			c0,0,8.6-0.1,8.6-10.4C761.9,584.2,761.4,584.4,760.2,584.7z"/>
	</g>
	<g>
		<path class="st4" d="M740.9,608.6c0,3-2.4,5.3-5.3,5.3c-3,0-5.3-2.4-5.3-5.3s2.4-5.3,5.3-5.3C738.5,603.2,740.9,605.6,740.9,608.6
			z"/>
	</g>
	<g>
		<g>
			<path class="st10" d="M726,763c-0.8,1-2.3,3.5-2.7,7.8c0,0,2.3,1.6,5.8,2.3c3.5,0.7,5.3,0.7,6.4,0.9c1.1,0.2,3,2.1,10.3,3.5
				s8.2,1.1,10.1-0.1c-0.6-4.2-5.8-4.1-9.5-7c-1.2-0.9-3.7-3.8-6.4-5.9c0,0-1.1-3-2.5-4.5c-0.2-0.2-0.4-0.2-0.6-0.2
				c-0.6,0.2-1.7,0.8-1.8,1.9c-0.2,1,0,1.8,0.2,2.2c0.1,0.2,0,0.5-0.3,0.6c-1.1,0.4-4.1,1-7.9-1.7C726.8,762.6,726.3,762.6,726,763z
				"/>
		</g>
		<g>
			<path class="st5" d="M723.3,770.8c0,0,2.3,1.6,5.8,2.3c3.5,0.7,5.3,0.7,6.4,0.9c1.1,0.2,3,2.1,10.3,3.5s8.2,1.1,10.1-0.1
				c0,0.1,0.1,0.3,0,0.5c-0.1,0.9-0.7,1.7-1.6,2.1c-1.4,0.6-4.1,0.8-7.9,0.1c-5.9-1.2-8.5-2.8-11.2-3.4c-2.7-0.5-3.5,0.3-7.2-0.4
				c-3.2-0.6-5-1.8-5.6-2.1c-0.1-0.1-0.2-0.2-0.2-0.3C722.2,771.9,723.3,770.8,723.3,770.8z"/>
		</g>
		<g>
			<path class="st5" d="M735.1,764.5c0.2-0.1,0.3-0.3,0.2-0.6c-0.2-0.4-0.4-1.2-0.2-2.2c0.2-1.2,1.3-1.7,1.8-1.9
				c0.2-0.1,0.5,0,0.6,0.2c1.4,1.5,2.5,4.5,2.5,4.5c2.7,2.1,5.2,5,6.4,5.9c0.9,0.7,1.8,1.2,2.8,1.6c-0.4,0-1,0-1.9-0.2
				c-3-0.7-5.5-5.3-7.6-6.8C737.6,763.5,735.1,764.5,735.1,764.5C735.1,764.5,735.1,764.5,735.1,764.5z"/>
		</g>
		<g>
			<path class="st11" d="M744.3,771.4L744.3,771.4c0.2,0.2,0.5,0.2,0.8,0l1.1-1.1c0.2-0.2,0.2-0.5,0-0.7l0,0c-0.2-0.2-0.5-0.2-0.8,0
				l-1.1,1.1C744.1,770.9,744.1,771.2,744.3,771.4z"/>
		</g>
		<g>
			<path class="st11" d="M742.7,769.9L742.7,769.9c0.2,0.2,0.5,0.2,0.8,0l1.1-1.1c0.2-0.2,0.2-0.5,0-0.7l0,0c-0.2-0.2-0.5-0.2-0.8,0
				l-1.1,1.1C742.5,769.5,742.5,769.8,742.7,769.9z"/>
		</g>
		<g>
			<path class="st11" d="M741.2,768.5L741.2,768.5c0.2,0.2,0.5,0.2,0.8,0l1.1-1.1c0.2-0.2,0.2-0.5,0-0.7l0,0c-0.2-0.2-0.5-0.2-0.8,0
				l-1.1,1.1C741,768,741,768.3,741.2,768.5z"/>
		</g>
		<g>
			<path class="st11" d="M739.7,767L739.7,767c0.2,0.2,0.5,0.2,0.8,0l1.1-1.1c0.2-0.2,0.2-0.5,0-0.7l0,0c-0.2-0.2-0.5-0.2-0.8,0
				l-1.1,1.1C739.4,766.5,739.4,766.8,739.7,767z"/>
		</g>
	</g>
	<g>
		<g>
			<path class="st10" d="M673.3,712.2c-0.7-1.1-2.4-3.4-6.2-5.3c0,0-2.3,1.5-4.2,4.6s-2.6,4.8-3.2,5.7c-0.6,0.9-3,2-7,8.3
				s-4,7.2-3.6,9.5c4.1,0.9,6-3.9,10-6.4c1.2-0.8,4.8-2.1,7.8-3.8c0,0,3.2,0.1,5.1-0.7c0.2-0.1,0.4-0.3,0.4-0.5
				c0-0.6-0.1-1.8-1.1-2.4c-0.9-0.5-1.6-0.6-2.1-0.6c-0.3,0-0.5-0.2-0.5-0.5c0-1.2,0.5-4.2,4.5-6.7
				C673.4,713,673.5,712.5,673.3,712.2z"/>
		</g>
		<g>
			<path class="st5" d="M667,706.8c0,0-2.3,1.5-4.2,4.6s-2.6,4.8-3.2,5.7c-0.6,0.9-3,2-7,8.3s-4,7.2-3.6,9.5c-0.1,0-0.3,0-0.4-0.1
				c-0.8-0.4-1.3-1.3-1.4-2.2c0-1.5,0.7-4.1,2.8-7.4c3.2-5.1,5.7-6.9,7.2-9.2c1.5-2.3,0.9-3.3,3-6.6c1.7-2.7,3.5-4,4-4.4
				c0.1-0.1,0.2-0.1,0.3,0C666.3,705.4,667,706.8,667,706.8z"/>
		</g>
		<g>
			<path class="st5" d="M668.5,720.1c0,0.2,0.2,0.4,0.5,0.4c0.5,0,1.2,0.1,2.1,0.6c1,0.6,1.2,1.8,1.1,2.4c0,0.2-0.2,0.4-0.4,0.5
				c-1.9,0.7-5.1,0.7-5.1,0.7c-2.9,1.7-6.5,3-7.8,3.8c-1,0.6-1.8,1.3-2.5,2c0.1-0.4,0.4-1,0.9-1.7c1.7-2.6,6.9-3.2,9.1-4.6
				C668.6,722.8,668.5,720.1,668.5,720.1C668.5,720.1,668.5,720.1,668.5,720.1z"/>
		</g>
		<g>
			<path class="st11" d="M658.8,726.2L658.8,726.2c-0.2,0.1-0.4,0.5-0.3,0.7l0.6,1.4c0.1,0.3,0.4,0.4,0.6,0.2h0
				c0.2-0.1,0.3-0.5,0.2-0.7l-0.6-1.4C659.3,726.1,659,726,658.8,726.2z"/>
		</g>
		<g>
			<path class="st11" d="M660.7,725.2L660.7,725.2c-0.2,0.1-0.4,0.5-0.3,0.7l0.6,1.4c0.1,0.3,0.4,0.4,0.6,0.2h0
				c0.2-0.1,0.3-0.5,0.2-0.7l-0.6-1.4C661.2,725.2,661,725.1,660.7,725.2z"/>
		</g>
		<g>
			<path class="st11" d="M662.7,724.3L662.7,724.3c-0.2,0.1-0.4,0.5-0.3,0.7l0.6,1.4c0.1,0.3,0.4,0.4,0.6,0.2h0
				c0.2-0.1,0.3-0.5,0.2-0.7l-0.6-1.4C663.2,724.3,662.9,724.2,662.7,724.3z"/>
		</g>
		<g>
			<path class="st11" d="M664.6,723.4L664.6,723.4c-0.2,0.1-0.4,0.5-0.3,0.7l0.6,1.4c0.1,0.3,0.4,0.4,0.6,0.2h0
				c0.2-0.1,0.3-0.5,0.2-0.7l-0.6-1.4C665.1,723.4,664.8,723.3,664.6,723.4z"/>
		</g>
	</g>
	<path class="st4" d="M734.9,628.7c-1.1-2.5-4-3.7-6.5-2.7c-13.7,5.8-22.6,11.2-26.4,16c-8.8,11.3,7.5,28.7,9.3,30.6
		c0.7,0.7,1.5,1.2,2.5,1.4c0.8,0.4,1.7,0.6,2.5,0.6c1.4,0,2.8-0.5,4-1.5c2.5-2.2,2.7-6,0.5-8.5l-1.7-1.9c-1.2-1.4-3-2.1-4.8-2
		c-3.5-4.9-6.2-10.4-4.5-12.5c2.6-3.3,10.9-8.1,22.4-12.9C734.8,634.1,736,631.2,734.9,628.7z"/>
	<g>
		<path class="st8" d="M732.1,639.2l-12.9,4.3c0,0-1.9-1.8-3.6-5.7c-1.4-3.3-1.6-6.6-1.6-6.6l15.3-6.4c3-1.2,6.5,0.2,7.7,3.2
			l0.1,0.1C738.9,632.6,736.6,637.7,732.1,639.2z"/>
	</g>
</g>
<g>
	<g>
		<path class="st2" d="M859.5,731.9c-2.5,0-4.7-1.9-5-4.5c-0.3-2.8,1.8-5.2,4.5-5.5c13.2-1.3,26.5-4.9,28.7-7.7
			c-3.8-10.2-18.9-33-19-33.3c-1.5-2.3-0.9-5.4,1.4-6.9c2.3-1.5,5.4-0.9,6.9,1.4c0.7,1,16.1,24.5,20.2,35.6c1,2.8,0.7,5.7-0.9,8.3
			c-5.7,9-29.2,11.9-36.3,12.6C859.8,731.9,859.6,731.9,859.5,731.9z"/>
	</g>
	<g>
		<g>
			<path class="st10" d="M861.6,721.6c-1.2-0.5-3.9-1.4-8.2-0.8c0,0-1,2.6-0.9,6.2c0.1,3.6,0.6,5.4,0.6,6.5c0,1.1-1.3,3.3-1.1,10.8
				c0.3,7.5,0.8,8.2,2.4,9.8c3.9-1.6,2.7-6.6,4.6-10.9c0.6-1.3,2.8-4.5,4.2-7.5c0,0,2.7-1.7,3.8-3.4c0.1-0.2,0.1-0.4,0-0.6
				c-0.3-0.5-1.1-1.4-2.3-1.3c-1,0.1-1.7,0.5-2.1,0.7c-0.2,0.2-0.5,0.1-0.7-0.1c-0.7-1-2-3.8-0.1-8
				C862.2,722.3,862,721.8,861.6,721.6z"/>
		</g>
		<g>
			<path class="st5" d="M853.5,720.7c0,0-1,2.6-0.9,6.2c0.1,3.6,0.6,5.4,0.6,6.5c0,1.1-1.3,3.3-1.1,10.8c0.3,7.5,0.8,8.2,2.4,9.8
				c-0.1,0.1-0.3,0.1-0.4,0.2c-0.9,0.1-1.8-0.3-2.4-1c-0.9-1.2-1.8-3.8-1.9-7.7c-0.2-6,0.8-8.9,0.7-11.7c-0.1-2.8-1.1-3.3-1.2-7.1
				c-0.1-3.2,0.6-5.3,0.8-5.9c0-0.1,0.1-0.2,0.2-0.2C852.1,720,853.5,720.7,853.5,720.7z"/>
		</g>
		<g>
			<path class="st5" d="M862.2,730.8c0.2,0.1,0.4,0.2,0.6,0c0.4-0.3,1.1-0.6,2.1-0.7c1.2-0.1,2,0.8,2.3,1.3c0.1,0.2,0.1,0.4,0,0.6
				c-1.1,1.7-3.8,3.4-3.8,3.4c-1.4,3.1-3.6,6.2-4.2,7.5c-0.5,1-0.7,2.1-0.9,3.1c-0.1-0.4-0.2-1-0.2-1.9c0-3.1,3.9-6.5,4.9-8.9
				S862.2,730.8,862.2,730.8C862.2,730.8,862.2,730.8,862.2,730.8z"/>
		</g>
		<g>
			<path class="st11" d="M857.6,741.3L857.6,741.3c-0.1,0.2,0,0.6,0.2,0.7l1.3,0.8c0.2,0.2,0.5,0.1,0.6-0.2v0c0.1-0.2,0-0.6-0.2-0.7
				l-1.3-0.8C858,741,857.8,741.1,857.6,741.3z"/>
		</g>
		<g>
			<path class="st11" d="M858.7,739.5L858.7,739.5c-0.1,0.2,0,0.6,0.2,0.7l1.3,0.8c0.2,0.2,0.5,0.1,0.6-0.2v0c0.1-0.2,0-0.6-0.2-0.7
				l-1.3-0.8C859.1,739.2,858.8,739.2,858.7,739.5z"/>
		</g>
		<g>
			<path class="st11" d="M859.8,737.6L859.8,737.6c-0.1,0.2,0,0.6,0.2,0.7l1.3,0.8c0.2,0.2,0.5,0.1,0.6-0.2v0c0.1-0.2,0-0.6-0.2-0.7
				l-1.3-0.8C860.2,737.3,859.9,737.4,859.8,737.6z"/>
		</g>
		<g>
			<path class="st11" d="M860.8,735.8L860.8,735.8c-0.1,0.2,0,0.6,0.2,0.7l1.3,0.8c0.2,0.2,0.5,0.1,0.6-0.2v0c0.1-0.2,0-0.6-0.2-0.7
				l-1.3-0.8C861.3,735.5,861,735.6,860.8,735.8z"/>
		</g>
	</g>
	<g>
		<path class="st3" d="M894.4,700.4c0,0-0.9,3.4-4.9,5.4c-5.7,2.8-10.2,1.5-10.2,1.5s-15.4-19-18.6-26.3c-1.8-4.1,0.9-9.8,0.9-9.8
			l16.6-4.6l5.9,11L894.4,700.4z"/>
	</g>
	<g>
		<path class="st4" d="M845,764.1c-1,0-1.9-0.3-2.8-0.8c-2.3-1.5-2.9-4.7-1.4-6.9c5-7.5,18.5-28.7,20.6-37.1
			c2.8-11.4,2.8-39.6,2.8-39.9c0-2.8,2.2-5,5-5l0,0c2.8,0,5,2.2,5,5c0,1.2,0,29.7-3.1,42.2c-2.8,11.6-20,37.4-22,40.3
			C848.2,763.3,846.6,764.1,845,764.1z"/>
	</g>
	<g>
		<path class="st5" d="M877.6,710.7c0,0-4.6,1-8.1,0.6c-5.9-0.6-10.4-2.6-10.4-2.6s-1.1-30.4,2.4-37.6c2-4,7.9-7.2,7.9-7.2l14.3,9.7
			L877.6,710.7z"/>
	</g>
	<path class="st2" d="M912.5,655.5c-0.1,0-0.1,0-0.2,0l-2.5,0.1c-1.9,0-3.5,1-4.6,2.3c-8.6,0.3-16.2-1-16.9-3.2
		c-1.2-4.1,1.1-14.2,6-26.3c1-2.6-0.2-5.5-2.7-6.5c-2.6-1-5.5,0.2-6.5,2.7c-4.2,10.4-8.8,24.6-6.4,32.9c2.5,8.6,13.8,10.5,23.2,10.5
		c3.2,0,6.1-0.2,8.5-0.5l2.2-0.1c3.3-0.1,5.9-2.9,5.8-6.2C918.4,658.1,915.7,655.5,912.5,655.5z"/>
	<g>
		<path class="st4" d="M886.1,631.2c-0.4,0-0.7,0-1.1-0.1c-2.7-0.6-4.4-3.3-3.8-6l3.1-13.9c0.6-2.7,3.3-4.4,6-3.8
			c2.7,0.6,4.4,3.3,3.8,6l-3.1,13.9C890.5,629.6,888.4,631.2,886.1,631.2z"/>
	</g>
	<g>
		<path class="st7" d="M884.1,677.5c0,0-4.5,0.6-12.2-1.8c-5.1-1.6-10.3-4.6-10.3-4.6l13.6-47.8c1.2-4.3,5.7-6.8,10-5.6l5.2,1.5
			c5.3,1.5,8.4,7.1,6.9,12.4L884.1,677.5z"/>
	</g>
	<g>
		<path class="st4" d="M898.5,616.2l-9.9-0.5c-3.2-0.2-5.7-2.9-5.5-6.1l1.5-31.1l8.8,0.4c8.9,0.4,15.8,8,15.4,17l-1.4,12.3
			C907.1,612.9,903.1,616.5,898.5,616.2z"/>
	</g>
	<g>
		<path class="st4" d="M907.1,594.6l3.2,7.6c0.5,1.1-0.2,2.4-1.4,2.6l-2.1,0.4L907.1,594.6z"/>
	</g>
	<g>
		<path class="st9" d="M911,577.7c0.2-1.2,0.2-2,0.2-2c-5.1,1.5-18.1-3.3-26.8-0.3c-1.5,0.5-4.2,2.3-4.6,5.2
			c-5.1,0.5-6.4,8.1-6.4,13c0,16.6,10.7,19.7,10.7,19.7l3.6-13.3c0-5,4-11.7,7.3-11.7c2.4,0,6.5,0.1,9.1-0.7l0,0
			c0,0,8.6-0.1,8.6-10.4C912.8,577.2,912.3,577.4,911,577.7z"/>
	</g>
	<g>
		<path class="st4" d="M891.8,601.6c0,3-2.4,5.3-5.3,5.3c-3,0-5.3-2.4-5.3-5.3s2.4-5.3,5.3-5.3S891.8,598.6,891.8,601.6z"/>
	</g>
	<g>
		<g>
			<path class="st10" d="M841.2,755.3c-1.1,0.7-3.3,2.5-5.1,6.5c0,0,1.7,2.2,4.8,4c3.1,1.8,4.8,2.3,5.8,2.9c1,0.5,2.1,2.9,8.6,6.7
				c6.5,3.7,7.4,3.7,9.6,3.2c0.8-4.2-4.2-5.8-6.8-9.7c-0.8-1.2-2.3-4.8-4.1-7.6c0,0,0-3.2-0.9-5c-0.1-0.2-0.3-0.3-0.5-0.3
				c-0.6,0-1.8,0.2-2.4,1.2c-0.5,0.9-0.5,1.7-0.5,2.1c0,0.3-0.2,0.5-0.5,0.5c-1.2,0-4.2-0.3-6.9-4.2
				C842.1,755.1,841.6,755,841.2,755.3z"/>
		</g>
		<g>
			<path class="st5" d="M836.1,761.7c0,0,1.7,2.2,4.8,4c3.1,1.8,4.8,2.3,5.8,2.9c1,0.5,2.1,2.9,8.6,6.7c6.5,3.7,7.4,3.7,9.6,3.2
				c0,0.1,0,0.3-0.1,0.4c-0.4,0.8-1.2,1.4-2.2,1.5c-1.5,0.1-4.1-0.5-7.5-2.5c-5.2-3-7.1-5.4-9.5-6.8c-2.4-1.4-3.4-0.8-6.7-2.7
				c-2.8-1.6-4.2-3.3-4.6-3.8c-0.1-0.1-0.1-0.2-0.1-0.3C834.8,762.5,836.1,761.7,836.1,761.7z"/>
		</g>
		<g>
			<path class="st5" d="M849.3,759.7c0.2-0.1,0.4-0.2,0.3-0.5c0-0.5,0-1.2,0.5-2.1c0.5-1.1,1.8-1.2,2.4-1.2c0.2,0,0.4,0.1,0.5,0.3
				c0.8,1.8,0.9,5,0.9,5c1.8,2.8,3.3,6.4,4.1,7.6c0.6,0.9,1.4,1.7,2.2,2.5c-0.4-0.1-1-0.3-1.8-0.8c-2.6-1.6-3.5-6.8-5-8.8
				C852,759.5,849.3,759.7,849.3,759.7C849.3,759.7,849.3,759.7,849.3,759.7z"/>
		</g>
		<g>
			<path class="st11" d="M855.8,769.1L855.8,769.1c0.2,0.2,0.5,0.3,0.7,0.2l1.4-0.7c0.2-0.1,0.3-0.4,0.2-0.6l0,0
				c-0.1-0.2-0.5-0.3-0.7-0.2l-1.4,0.7C855.7,768.6,855.6,768.9,855.8,769.1z"/>
		</g>
		<g>
			<path class="st11" d="M854.8,767.2L854.8,767.2c0.2,0.2,0.5,0.3,0.7,0.2l1.4-0.7c0.2-0.1,0.3-0.4,0.2-0.6l0,0
				c-0.1-0.2-0.5-0.3-0.7-0.2l-1.4,0.7C854.7,766.7,854.7,767,854.8,767.2z"/>
		</g>
		<g>
			<path class="st11" d="M853.8,765.4L853.8,765.4c0.2,0.2,0.5,0.3,0.7,0.2l1.4-0.7c0.2-0.1,0.3-0.4,0.2-0.6l0,0
				c-0.1-0.2-0.5-0.3-0.7-0.2l-1.4,0.7C853.8,764.8,853.7,765.1,853.8,765.4z"/>
		</g>
		<g>
			<path class="st11" d="M852.8,763.5L852.8,763.5c0.2,0.2,0.5,0.3,0.7,0.2l1.4-0.7c0.2-0.1,0.3-0.4,0.2-0.6l0,0
				c-0.1-0.2-0.5-0.3-0.7-0.2l-1.4,0.7C852.8,763,852.7,763.2,852.8,763.5z"/>
		</g>
	</g>
	<path class="st4" d="M885.8,621.6c-1.1-2.5-4-3.7-6.5-2.7c-13.7,5.8-22.6,11.2-26.4,16c-8.8,11.3,7.5,28.7,9.3,30.6
		c0.7,0.7,1.5,1.2,2.5,1.4c0.8,0.4,1.7,0.6,2.5,0.6c1.4,0,2.8-0.5,4-1.5c2.5-2.2,2.7-6,0.5-8.5l-1.7-1.9c-1.2-1.4-3-2.1-4.8-2
		c-3.5-4.9-6.2-10.4-4.5-12.5c2.6-3.3,10.9-8.1,22.4-12.9C885.7,627.1,886.8,624.2,885.8,621.6z"/>
	<g>
		<path class="st8" d="M882.9,632.2l-12.9,4.3c0,0-1.9-1.8-3.6-5.7c-1.4-3.3-1.6-6.6-1.6-6.6l15.3-6.4c3-1.2,6.5,0.2,7.7,3.2
			l0.1,0.1C889.8,625.6,887.5,630.7,882.9,632.2z"/>
	</g>
</g>
<g id="designed_by_freepik">
</g>
<g>
	
		<image style="overflow:visible;" width="926" height="1977" xlink:href="../../../../../../../../Downloads/craftpix-097918-character-island-boy/Character-Island-Boy/png/3/Run/1.png"  transform="matrix(8.489832e-02 0 0 8.489832e-02 866.4034 119.4513)">
	</image>
	
		<image style="overflow:visible;" width="1068" height="2040" xlink:href="../../../../../../../../Downloads/craftpix-097918-character-island-boy/Character-Island-Boy/png/3/Run/2.png"  transform="matrix(8.489832e-02 0 0 8.489832e-02 671.3667 111.8066)">
	</image>
	
		<image style="overflow:visible;" width="1213" height="2008" xlink:href="../../../../../../../../Downloads/craftpix-097918-character-island-boy/Character-Island-Boy/png/3/Run/3.png"  transform="matrix(8.489832e-02 0 0 8.489832e-02 496.288 118.1354)">
	</image>
	
		<image style="overflow:visible;" width="953" height="1952" xlink:href="../../../../../../../../Downloads/craftpix-097918-character-island-boy/Character-Island-Boy/png/3/Run/4.png"  transform="matrix(8.489832e-02 0 0 8.489832e-02 327.1843 120.5125)">
	</image>
	
		<image style="overflow:visible;" width="1239" height="2013" xlink:href="../../../../../../../../Downloads/craftpix-097918-character-island-boy/Character-Island-Boy/png/3/Run/5.png"  transform="matrix(8.489832e-02 0 0 8.489832e-02 178.0386 117.9231)">
	</image>
	
		<image style="overflow:visible;" width="1165" height="1986" xlink:href="../../../../../../../../Downloads/craftpix-097918-character-island-boy/Character-Island-Boy/png/3/Run/6.png"  transform="matrix(8.489832e-02 0 0 8.489832e-02 26.9808 114.0989)">
	</image>
	<text transform="matrix(1 0 0 1 591.7864 190.947)" class="st12 st13 st14">brightrun </text>
</g>
</svg>
